SeanSans-NormalBlack.ufo
<glyph name="exclam" format="1">
  <advance width="267"/>
  <unicode hex="0021"/>
  <outline>
    <contour>
      <point x="198" y="229" type="line"/>
      <point x="213" y="722" type="line"/>
      <point x="54" y="722" type="line"/>
      <point x="69" y="229" type="line"/>
    </contour>
    <contour>
      <point x="217" y="63" type="curve"/>
      <point x="217" y="112"/>
      <point x="181" y="136"/>
      <point x="133" y="136" type="curve"/>
      <point x="84" y="136"/>
      <point x="50" y="109"/>
      <point x="50" y="63" type="curve"/>
      <point x="217" y="63"/>
      <point x="51" y="63"/>
      <point x="217" y="63" type="curve"/>
      <point x="217" y="12"/>
      <point x="182" y="-9"/>
      <point x="132" y="-9" type="curve"/>
      <point x="83" y="-9"/>
      <point x="50" y="15"/>
      <point x="50" y="63" type="curve"/>
      <point x="217" y="63"/>
      <point x="51" y="63"/>
    </contour>
  </outline>
</glyph>
<glyph name="numbersign" format="1">
  <advance width="717"/>
  <unicode hex="0023"/>
  <outline>
    <contour>
      <point x="31" y="216" type="curve"/>
      <point x="581" y="216" type="curve"/>
      <point x="620" y="328" type="curve"/>
      <point x="70" y="328" type="curve"/>
    </contour>
    <contour>
      <point x="98" y="428" type="curve"/>
      <point x="653" y="428" type="curve"/>
      <point x="690" y="540" type="curve"/>
      <point x="135" y="540" type="curve"/>
    </contour>
    <contour>
      <point x="463" y="39" type="curve"/>
      <point x="689" y="722" type="curve"/>
      <point x="539" y="722" type="curve"/>
      <point x="313" y="39" type="curve"/>
    </contour>
    <contour>
      <point x="181" y="46" type="curve"/>
      <point x="405" y="722" type="curve"/>
      <point x="256" y="722" type="curve"/>
      <point x="38" y="46" type="curve"/>
    </contour>
  </outline>
</glyph>
<glyph name="dollar" format="1">
  <advance width="598"/>
  <unicode hex="0024"/>
  <outline>
    <contour>
      <point x="349" y="-40" type="curve"/>
      <point x="349" y="-10"/>
      <point x="349" y="68"/>
      <point x="349" y="98" type="curve"/>
      <point x="199" y="98"/>
      <point x="349" y="98"/>
      <point x="199" y="98" type="curve"/>
      <point x="199" y="68"/>
      <point x="199" y="-10"/>
      <point x="199" y="-40" type="curve"/>
      <point x="349" y="-40"/>
      <point x="199" y="-40"/>
    </contour>
    <contour>
      <point x="361" y="631" type="curve"/>
      <point x="361" y="661"/>
      <point x="361" y="743"/>
      <point x="361" y="773" type="curve"/>
      <point x="212" y="773"/>
      <point x="361" y="773"/>
      <point x="212" y="773" type="curve"/>
      <point x="212" y="743"/>
      <point x="212" y="661"/>
      <point x="212" y="631" type="curve"/>
      <point x="361" y="631"/>
      <point x="212" y="631"/>
    </contour>
    <contour>
      <point x="36" y="91" type="curve"/>
      <point x="101" y="64"/>
      <point x="179" y="42"/>
      <point x="267" y="42" type="curve"/>
      <point x="434" y="42"/>
      <point x="573" y="89"/>
      <point x="573" y="222" type="curve"/>
      <point x="573" y="335"/>
      <point x="457" y="378"/>
      <point x="333" y="424" type="curve"/>
      <point x="258" y="451"/>
      <point x="183" y="465"/>
      <point x="183" y="519" type="curve"/>
      <point x="183" y="562"/>
      <point x="231" y="577"/>
      <point x="288" y="577" type="curve"/>
      <point x="351" y="577"/>
      <point x="394" y="565"/>
      <point x="457" y="540" type="curve"/>
      <point x="524" y="636"/>
      <point x="457" y="540"/>
      <point x="524" y="636" type="curve"/>
      <point x="447" y="670"/>
      <point x="384" y="688"/>
      <point x="295" y="688" type="curve"/>
      <point x="149" y="688"/>
      <point x="33" y="638"/>
      <point x="33" y="519" type="curve"/>
      <point x="33" y="410"/>
      <point x="126" y="366"/>
      <point x="245" y="323" type="curve"/>
      <point x="328" y="294"/>
      <point x="423" y="280"/>
      <point x="423" y="216" type="curve"/>
      <point x="423" y="168"/>
      <point x="355" y="153"/>
      <point x="281" y="153" type="curve"/>
      <point x="218" y="153"/>
      <point x="164" y="173"/>
      <point x="108" y="193" type="curve"/>
      <point x="36" y="91"/>
      <point x="108" y="194"/>
    </contour>
  </outline>
</glyph>
<glyph name="percent" format="1">
  <advance width="1167"/>
  <unicode hex="0025"/>
  <outline>
    <contour>
      <point x="432" y="-34" type="line"/>
      <point x="876" y="706" type="line"/>
      <point x="740" y="706" type="line"/>
      <point x="296" y="-34" type="line"/>
    </contour>
    <contour>
      <point x="160" y="487" type="curve"/>
      <point x="160" y="554"/>
      <point x="190" y="602"/>
      <point x="253" y="602" type="curve"/>
      <point x="318" y="603"/>
      <point x="348" y="554"/>
      <point x="348" y="486" type="curve"/>
      <point x="348" y="418"/>
      <point x="323" y="368"/>
      <point x="261" y="368" type="curve"/>
      <point x="193" y="368"/>
      <point x="160" y="417"/>
      <point x="160" y="487" type="curve"/>
      <point x="110" y="487"/>
      <point x="75" y="487"/>
      <point x="25" y="487" type="curve"/>
      <point x="25" y="347"/>
      <point x="113" y="261"/>
      <point x="254" y="261" type="curve"/>
      <point x="399" y="261"/>
      <point x="490" y="347"/>
      <point x="490" y="491" type="curve"/>
      <point x="490" y="629"/>
      <point x="399" y="708"/>
      <point x="259" y="709" type="curve"/>
      <point x="117" y="709"/>
      <point x="25" y="627"/>
      <point x="25" y="487" type="curve"/>
      <point x="75" y="487"/>
      <point x="110" y="487"/>
    </contour>
    <contour>
      <point x="812" y="188" type="curve"/>
      <point x="812" y="255"/>
      <point x="842" y="302"/>
      <point x="905" y="302" type="curve"/>
      <point x="969" y="303"/>
      <point x="1000" y="255"/>
      <point x="1000" y="186" type="curve"/>
      <point x="1000" y="119"/>
      <point x="975" y="68"/>
      <point x="913" y="68" type="curve"/>
      <point x="845" y="68"/>
      <point x="812" y="117"/>
      <point x="812" y="188" type="curve"/>
      <point x="762" y="188"/>
      <point x="727" y="188"/>
      <point x="677" y="188" type="curve"/>
      <point x="677" y="47"/>
      <point x="765" y="-38"/>
      <point x="906" y="-38" type="curve"/>
      <point x="1050" y="-38"/>
      <point x="1141" y="48"/>
      <point x="1141" y="192" type="curve"/>
      <point x="1141" y="329"/>
      <point x="1051" y="409"/>
      <point x="911" y="409" type="curve"/>
      <point x="769" y="409"/>
      <point x="677" y="328"/>
      <point x="677" y="188" type="curve"/>
      <point x="727" y="188"/>
      <point x="762" y="188"/>
    </contour>
  </outline>
</glyph>
<glyph name="ampersand" format="1">
  <advance width="760"/>
  <unicode hex="0026"/>
  <outline>
    <contour>
      <point x="727" y="66" type="line"/>
      <point x="625" y="158"/>
      <point x="500" y="280"/>
      <point x="393" y="378" type="curve"/>
      <point x="335" y="432"/>
      <point x="258" y="468"/>
      <point x="258" y="549" type="curve"/>
      <point x="258" y="587"/>
      <point x="280" y="615"/>
      <point x="318" y="615" type="curve"/>
      <point x="363" y="615"/>
      <point x="394" y="594"/>
      <point x="394" y="551" type="curve"/>
      <point x="393" y="478"/>
      <point x="333" y="453"/>
      <point x="265" y="420" type="curve"/>
      <point x="152" y="364"/>
      <point x="42" y="324"/>
      <point x="42" y="201" type="curve"/>
      <point x="42" y="62"/>
      <point x="161" y="-5"/>
      <point x="312" y="-5" type="curve"/>
      <point x="515" y="-5"/>
      <point x="641" y="119"/>
      <point x="714" y="312" type="curve"/>
      <point x="584" y="340"/>
      <point x="714" y="312"/>
      <point x="584" y="340" type="curve"/>
      <point x="533" y="205"/>
      <point x="459" y="107"/>
      <point x="319" y="107" type="curve"/>
      <point x="247" y="107"/>
      <point x="192" y="134"/>
      <point x="192" y="201" type="curve"/>
      <point x="192" y="276"/>
      <point x="258" y="297"/>
      <point x="327" y="331" type="curve"/>
      <point x="438" y="386"/>
      <point x="542" y="430"/>
      <point x="543" y="551" type="curve"/>
      <point x="543" y="668"/>
      <point x="448" y="727"/>
      <point x="325" y="727" type="curve"/>
      <point x="203" y="727"/>
      <point x="113" y="664"/>
      <point x="113" y="549" type="curve"/>
      <point x="113" y="438"/>
      <point x="207" y="383"/>
      <point x="289" y="311" type="curve"/>
      <point x="394" y="213"/>
      <point x="538" y="76"/>
      <point x="638" y="-16" type="curve"/>
    </contour>
  </outline>
</glyph>
<glyph name="quotesingle" format="1">
  <advance width="238"/>
  <unicode hex="0027"/>
  <outline>
    <contour>
      <point x="189" y="618" type="line"/>
      <point x="199" y="845" type="line"/>
      <point x="39" y="845" type="line"/>
      <point x="49" y="618" type="line"/>
    </contour>
  </outline>
</glyph>
<glyph name="parenleft" format="1">
  <advance width="405"/>
  <unicode hex="0028"/>
  <outline>
    <contour>
      <point x="404" y="-204" type="curve"/>
      <point x="246" y="-50"/>
      <point x="178" y="103"/>
      <point x="178" y="326" type="curve"/>
      <point x="178" y="549"/>
      <point x="246" y="703"/>
      <point x="403" y="860" type="curve"/>
      <point x="314" y="931"/>
      <point x="403" y="860"/>
      <point x="314" y="931" type="curve"/>
      <point x="128" y="753"/>
      <point x="31" y="586"/>
      <point x="31" y="326" type="curve"/>
      <point x="31" y="65"/>
      <point x="129" y="-102"/>
      <point x="315" y="-282" type="curve"/>
      <point x="404" y="-204"/>
      <point x="315" y="-282"/>
    </contour>
  </outline>
</glyph>
<glyph name="parenright" format="1">
  <advance width="417"/>
  <unicode hex="0029"/>
  <outline>
    <contour>
      <point x="87" y="-295" type="curve"/>
      <point x="276" y="-108"/>
      <point x="385" y="60"/>
      <point x="385" y="329" type="curve"/>
      <point x="385" y="592"/>
      <point x="283" y="758"/>
      <point x="91" y="934" type="curve"/>
      <point x="3" y="856"/>
      <point x="91" y="934"/>
      <point x="3" y="856" type="curve"/>
      <point x="165" y="701"/>
      <point x="238" y="549"/>
      <point x="238" y="324" type="curve"/>
      <point x="238" y="94"/>
      <point x="156" y="-58"/>
      <point x="-1" y="-224" type="curve"/>
      <point x="87" y="-295"/>
      <point x="-1" y="-224"/>
    </contour>
  </outline>
</glyph>
<glyph name="asterisk" format="1">
  <advance width="537"/>
  <unicode hex="002A"/>
  <outline>
    <contour>
      <point x="317" y="578" type="line"/>
      <point x="324" y="805" type="line"/>
      <point x="211" y="805" type="line"/>
      <point x="218" y="578" type="line"/>
    </contour>
    <contour>
      <point x="286" y="531" type="line"/>
      <point x="501" y="601" type="line"/>
      <point x="463" y="707" type="line"/>
      <point x="252" y="623" type="line"/>
    </contour>
    <contour>
      <point x="231" y="544" type="line"/>
      <point x="372" y="365" type="line"/>
      <point x="457" y="438" type="line"/>
      <point x="306" y="607" type="line"/>
    </contour>
    <contour>
      <point x="229" y="607" type="line"/>
      <point x="78" y="437" type="line"/>
      <point x="164" y="366" type="line"/>
      <point x="305" y="544" type="line"/>
    </contour>
    <contour>
      <point x="283" y="623" type="line"/>
      <point x="72" y="707" type="line"/>
      <point x="34" y="602" type="line"/>
      <point x="249" y="531" type="line"/>
    </contour>
  </outline>
</glyph>
<glyph name="plus" format="1">
  <advance width="631"/>
  <unicode hex="002B"/>
  <outline>
    <contour>
      <point x="32" y="253" type="curve"/>
      <point x="598" y="253" type="line"/>
      <point x="598" y="375"/>
      <point x="598" y="253"/>
      <point x="598" y="375" type="curve"/>
      <point x="32" y="375" type="line"/>
      <point x="32" y="253"/>
      <point x="32" y="375"/>
    </contour>
    <contour>
      <point x="388" y="36" type="curve"/>
      <point x="388" y="583" type="line"/>
      <point x="238" y="583"/>
      <point x="397" y="583"/>
      <point x="248" y="583" type="curve"/>
      <point x="248" y="36" type="line"/>
      <point x="397" y="36"/>
      <point x="238" y="36"/>
    </contour>
  </outline>
</glyph>
<glyph name="hyphen" format="1">
  <advance width="405"/>
  <unicode hex="002D"/>
  <outline>
    <contour>
      <point x="51" y="222" type="curve"/>
      <point x="152" y="222"/>
      <point x="254" y="222"/>
      <point x="355" y="222" type="curve"/>
      <point x="355" y="345"/>
      <point x="355" y="222"/>
      <point x="355" y="345" type="curve"/>
      <point x="254" y="345"/>
      <point x="152" y="345"/>
      <point x="51" y="345" type="curve"/>
      <point x="51" y="222"/>
      <point x="51" y="345"/>
    </contour>
  </outline>
</glyph>
<glyph name="period" format="1">
  <advance width="256"/>
  <unicode hex="002E"/>
  <outline>
    <contour>
      <point x="211" y="63" type="curve"/>
      <point x="211" y="112"/>
      <point x="175" y="136"/>
      <point x="127" y="136" type="curve"/>
      <point x="78" y="136"/>
      <point x="44" y="109"/>
      <point x="44" y="63" type="curve"/>
      <point x="211" y="63"/>
      <point x="45" y="63"/>
      <point x="211" y="63" type="curve"/>
      <point x="211" y="12"/>
      <point x="176" y="-9"/>
      <point x="126" y="-9" type="curve"/>
      <point x="77" y="-9"/>
      <point x="44" y="15"/>
      <point x="44" y="63" type="curve"/>
      <point x="211" y="63"/>
      <point x="45" y="63"/>
    </contour>
  </outline>
</glyph>
<glyph name="slash" format="1">
  <advance width="630"/>
  <unicode hex="002F"/>
  <outline>
    <contour>
      <point x="168" y="-12" type="curve"/>
      <point x="316" y="252"/>
      <point x="464" y="516"/>
      <point x="612" y="781" type="curve"/>
      <point x="462" y="781"/>
      <point x="612" y="781"/>
      <point x="462" y="781" type="curve"/>
      <point x="314" y="516"/>
      <point x="166" y="252"/>
      <point x="18" y="-12" type="curve"/>
      <point x="168" y="-12"/>
      <point x="18" y="-12"/>
    </contour>
  </outline>
</glyph>
<glyph name="zero" format="1">
  <advance width="762"/>
  <unicode hex="0030"/>
  <outline>
    <contour>
      <point x="190" y="360" type="curve"/>
      <point x="190" y="509"/>
      <point x="249" y="610"/>
      <point x="377" y="610" type="curve"/>
      <point x="507" y="610"/>
      <point x="572" y="512"/>
      <point x="572" y="363" type="curve"/>
      <point x="572" y="214"/>
      <point x="514" y="113"/>
      <point x="388" y="113" type="curve"/>
      <point x="255" y="113"/>
      <point x="190" y="210"/>
      <point x="190" y="360" type="curve"/>
      <point x="40" y="360"/>
      <point x="190" y="360"/>
      <point x="40" y="360" type="curve"/>
      <point x="40" y="134"/>
      <point x="164" y="-5"/>
      <point x="382" y="-5" type="curve"/>
      <point x="600" y="-5"/>
      <point x="723" y="134"/>
      <point x="723" y="363" type="curve"/>
      <point x="723" y="588"/>
      <point x="604" y="727"/>
      <point x="390" y="727" type="curve"/>
      <point x="168" y="727"/>
      <point x="40" y="589"/>
      <point x="40" y="360" type="curve"/>
      <point x="190" y="360"/>
      <point x="40" y="360"/>
    </contour>
  </outline>
</glyph>
<glyph name="one" format="1">
  <advance width="411"/>
  <unicode hex="0031"/>
  <outline>
    <contour>
      <point x="81" y="465" type="curve"/>
      <point x="316" y="647"/>
      <point x="81" y="465"/>
      <point x="316" y="647" type="curve"/>
      <point x="206" y="722"/>
      <point x="316" y="647"/>
      <point x="206" y="722" type="curve"/>
      <point x="5" y="568"/>
      <point x="206" y="722"/>
      <point x="5" y="568" type="curve"/>
      <point x="81" y="465"/>
      <point x="5" y="568"/>
    </contour>
    <contour>
      <point x="354" y="0" type="curve"/>
      <point x="354" y="241"/>
      <point x="354" y="481"/>
      <point x="354" y="722" type="curve"/>
      <point x="206" y="722"/>
      <point x="354" y="722"/>
      <point x="206" y="722" type="curve"/>
      <point x="206" y="481"/>
      <point x="206" y="241"/>
      <point x="206" y="0" type="curve"/>
      <point x="354" y="0"/>
      <point x="206" y="0"/>
    </contour>
  </outline>
</glyph>
<glyph name="two" format="1">
  <advance width="622"/>
  <unicode hex="0032"/>
  <outline>
    <contour>
      <point x="35" y="0" type="curve"/>
      <point x="255" y="0"/>
      <point x="438" y="0"/>
      <point x="587" y="0" type="curve"/>
      <point x="587" y="112"/>
      <point x="587" y="0"/>
      <point x="587" y="112" type="curve"/>
      <point x="414" y="112"/>
      <point x="208" y="112"/>
      <point x="35" y="112" type="curve"/>
      <point x="35" y="0"/>
      <point x="35" y="112"/>
    </contour>
    <contour>
      <point x="138" y="511" type="curve"/>
      <point x="191" y="573"/>
      <point x="230" y="610"/>
      <point x="300" y="610" type="curve"/>
      <point x="372" y="610"/>
      <point x="417" y="575"/>
      <point x="417" y="502" type="curve"/>
      <point x="417" y="406"/>
      <point x="346" y="350"/>
      <point x="263" y="287" type="curve"/>
      <point x="187" y="228"/>
      <point x="113" y="172"/>
      <point x="35" y="112" type="curve"/>
      <point x="35" y="0"/>
      <point x="35" y="112"/>
      <point x="35" y="0" type="curve"/>
      <point x="194" y="62"/>
      <point x="274" y="134"/>
      <point x="359" y="201" type="curve"/>
      <point x="475" y="288"/>
      <point x="557" y="362"/>
      <point x="557" y="508" type="curve"/>
      <point x="557" y="656"/>
      <point x="460" y="727"/>
      <point x="306" y="727" type="curve"/>
      <point x="186" y="727"/>
      <point x="97" y="676"/>
      <point x="38" y="576" type="curve"/>
      <point x="138" y="511"/>
      <point x="38" y="576"/>
    </contour>
  </outline>
</glyph>
<glyph name="three" format="1">
  <advance width="576"/>
  <unicode hex="0033"/>
  <outline>
    <contour>
      <point x="29" y="56" type="curve"/>
      <point x="84" y="20"/>
      <point x="155" y="-5"/>
      <point x="242" y="-5" type="curve"/>
      <point x="414" y="-5"/>
      <point x="538" y="53"/>
      <point x="538" y="218" type="curve"/>
      <point x="538" y="358"/>
      <point x="380" y="414"/>
      <point x="160" y="414" type="curve"/>
      <point x="160" y="320"/>
      <point x="160" y="414"/>
      <point x="160" y="320" type="curve"/>
      <point x="281" y="320"/>
      <point x="395" y="291"/>
      <point x="395" y="213" type="curve"/>
      <point x="395" y="131"/>
      <point x="323" y="112"/>
      <point x="247" y="112" type="curve"/>
      <point x="204" y="112"/>
      <point x="151" y="125"/>
      <point x="100" y="148" type="curve"/>
      <point x="29" y="56"/>
      <point x="100" y="148"/>
    </contour>
    <contour>
      <point x="111" y="558" type="curve"/>
      <point x="139" y="583"/>
      <point x="189" y="610"/>
      <point x="239" y="610" type="curve"/>
      <point x="310" y="610"/>
      <point x="361" y="591"/>
      <point x="361" y="523" type="curve"/>
      <point x="361" y="454"/>
      <point x="266" y="429"/>
      <point x="160" y="429" type="curve"/>
      <point x="160" y="334"/>
      <point x="160" y="429"/>
      <point x="160" y="334" type="curve"/>
      <point x="351" y="334"/>
      <point x="503" y="389"/>
      <point x="503" y="528" type="curve"/>
      <point x="503" y="668"/>
      <point x="397" y="727"/>
      <point x="251" y="727" type="curve"/>
      <point x="156" y="727"/>
      <point x="71" y="687"/>
      <point x="29" y="638" type="curve"/>
      <point x="111" y="558"/>
      <point x="29" y="638"/>
    </contour>
  </outline>
</glyph>
<glyph name="four" format="1">
  <advance width="627"/>
  <unicode hex="0034"/>
  <outline>
    <contour>
      <point x="64" y="241" type="line"/>
      <point x="436" y="667" type="line"/>
      <point x="317" y="696" type="line"/>
      <point x="8" y="349" type="line"/>
    </contour>
    <contour>
      <point x="597" y="349" type="line"/>
      <point x="8" y="349" type="line"/>
      <point x="9" y="225" type="line"/>
      <point x="597" y="225" type="line"/>
    </contour>
    <contour>
      <point x="467" y="0" type="line"/>
      <point x="467" y="696" type="line"/>
      <point x="319" y="696" type="line"/>
      <point x="319" y="0" type="line"/>
    </contour>
  </outline>
</glyph>
<glyph name="five" format="1">
  <advance width="578"/>
  <unicode hex="0035"/>
  <outline>
    <contour>
      <point x="64" y="722" type="curve"/>
      <point x="64" y="627"/>
      <point x="64" y="516"/>
      <point x="64" y="374" type="curve"/>
      <point x="207" y="336"/>
      <point x="64" y="374"/>
      <point x="206" y="336" type="curve"/>
      <point x="206" y="422"/>
      <point x="206" y="524"/>
      <point x="206" y="610" type="curve"/>
      <point x="64" y="722"/>
      <point x="206" y="610"/>
    </contour>
    <contour>
      <point x="206" y="336" type="curve"/>
      <point x="223" y="350"/>
      <point x="256" y="359"/>
      <point x="280" y="359" type="curve"/>
      <point x="359" y="359"/>
      <point x="399" y="317"/>
      <point x="399" y="241" type="curve"/>
      <point x="399" y="162"/>
      <point x="339" y="112"/>
      <point x="258" y="112" type="curve"/>
      <point x="203" y="112"/>
      <point x="161" y="120"/>
      <point x="106" y="144" type="curve"/>
      <point x="37" y="43"/>
      <point x="106" y="144"/>
      <point x="37" y="43" type="curve"/>
      <point x="104" y="11"/>
      <point x="176" y="-5"/>
      <point x="258" y="-5" type="curve"/>
      <point x="418" y="-5"/>
      <point x="546" y="85"/>
      <point x="546" y="242" type="curve"/>
      <point x="546" y="389"/>
      <point x="445" y="478"/>
      <point x="293" y="478" type="curve"/>
      <point x="222" y="478"/>
      <point x="143" y="454"/>
      <point x="81" y="374" type="curve"/>
      <point x="208" y="341"/>
      <point x="79" y="370"/>
    </contour>
    <contour>
      <point x="511" y="722" type="curve"/>
      <point x="358" y="722"/>
      <point x="202" y="722"/>
      <point x="64" y="722" type="curve"/>
      <point x="206" y="610"/>
      <point x="64" y="722"/>
      <point x="206" y="610" type="curve"/>
      <point x="297" y="610"/>
      <point x="405" y="610"/>
      <point x="511" y="610" type="curve"/>
      <point x="511" y="722"/>
      <point x="511" y="610"/>
    </contour>
  </outline>
</glyph>
<glyph name="six" format="1">
  <advance width="637"/>
  <unicode hex="0036"/>
  <outline>
    <contour>
      <point x="157" y="217" type="curve"/>
      <point x="192" y="295"/>
      <point x="249" y="334"/>
      <point x="336" y="334" type="curve"/>
      <point x="411" y="334"/>
      <point x="457" y="300"/>
      <point x="457" y="226" type="curve"/>
      <point x="457" y="154"/>
      <point x="408" y="121"/>
      <point x="336" y="121" type="curve"/>
      <point x="240" y="121"/>
      <point x="178" y="169"/>
      <point x="178" y="260" type="curve"/>
      <point x="178" y="475"/>
      <point x="349" y="559"/>
      <point x="573" y="618" type="curve"/>
      <point x="538" y="728"/>
      <point x="573" y="618"/>
      <point x="538" y="728" type="curve"/>
      <point x="268" y="663"/>
      <point x="35" y="539"/>
      <point x="35" y="254" type="curve"/>
      <point x="35" y="81"/>
      <point x="152" y="-12"/>
      <point x="331" y="-12" type="curve"/>
      <point x="496" y="-12"/>
      <point x="607" y="69"/>
      <point x="607" y="226" type="curve"/>
      <point x="607" y="377"/>
      <point x="503" y="452"/>
      <point x="353" y="452" type="curve"/>
      <point x="211" y="452"/>
      <point x="115" y="353"/>
      <point x="68" y="260" type="curve"/>
      <point x="157" y="217"/>
      <point x="68" y="260"/>
    </contour>
  </outline>
</glyph>
<glyph name="seven" format="1">
  <advance width="568"/>
  <unicode hex="0037"/>
  <outline>
    <contour>
      <point x="34" y="610" type="curve"/>
      <point x="552" y="610" type="curve"/>
      <point x="552" y="722" type="curve"/>
      <point x="34" y="722" type="curve"/>
    </contour>
    <contour>
      <point x="459" y="722" type="curve"/>
      <point x="43" y="0" type="curve"/>
      <point x="210" y="0" type="curve"/>
      <point x="552" y="610" type="curve"/>
    </contour>
  </outline>
</glyph>
<glyph name="eight" format="1">
  <advance width="629"/>
  <unicode hex="0038"/>
  <outline>
    <contour>
      <point x="60" y="536" type="curve"/>
      <point x="60" y="415"/>
      <point x="156" y="386"/>
      <point x="271" y="339" type="curve"/>
      <point x="362" y="300"/>
      <point x="441" y="283"/>
      <point x="441" y="195" type="curve"/>
      <point x="441" y="133"/>
      <point x="389" y="110"/>
      <point x="316" y="110" type="curve"/>
      <point x="240" y="110"/>
      <point x="188" y="132"/>
      <point x="188" y="195" type="curve"/>
      <point x="188" y="285"/>
      <point x="270" y="300"/>
      <point x="362" y="339" type="curve"/>
      <point x="473" y="389"/>
      <point x="570" y="416"/>
      <point x="570" y="534" type="curve"/>
      <point x="570" y="674"/>
      <point x="468" y="727"/>
      <point x="316" y="727" type="curve"/>
      <point x="166" y="727"/>
      <point x="60" y="672"/>
      <point x="60" y="536" type="curve"/>
      <point x="208" y="536"/>
      <point x="60" y="536"/>
      <point x="208" y="536" type="curve"/>
      <point x="208" y="588"/>
      <point x="249" y="612"/>
      <point x="310" y="612" type="curve"/>
      <point x="377" y="612"/>
      <point x="422" y="591"/>
      <point x="422" y="534" type="curve"/>
      <point x="422" y="458"/>
      <point x="348" y="449"/>
      <point x="269" y="416" type="curve"/>
      <point x="143" y="362"/>
      <point x="40" y="327"/>
      <point x="40" y="195" type="curve"/>
      <point x="40" y="50"/>
      <point x="150" y="-5"/>
      <point x="308" y="-5" type="curve"/>
      <point x="471" y="-5"/>
      <point x="590" y="47"/>
      <point x="590" y="195" type="curve"/>
      <point x="590" y="326"/>
      <point x="486" y="363"/>
      <point x="362" y="416" type="curve"/>
      <point x="283" y="451"/>
      <point x="208" y="460"/>
      <point x="208" y="536" type="curve"/>
      <point x="60" y="536"/>
      <point x="208" y="536"/>
    </contour>
  </outline>
</glyph>
<glyph name="nine" format="1">
  <advance width="636"/>
  <unicode hex="0039"/>
  <outline>
    <contour>
      <point x="483" y="488" type="curve"/>
      <point x="445" y="413"/>
      <point x="392" y="388"/>
      <point x="311" y="388" type="curve"/>
      <point x="230" y="388"/>
      <point x="175" y="424"/>
      <point x="175" y="502" type="curve"/>
      <point x="175" y="570"/>
      <point x="226" y="600"/>
      <point x="298" y="600" type="curve"/>
      <point x="395" y="600"/>
      <point x="457" y="555"/>
      <point x="457" y="462" type="curve"/>
      <point x="457" y="248"/>
      <point x="292" y="165"/>
      <point x="67" y="105" type="curve"/>
      <point x="110" y="-10"/>
      <point x="67" y="105"/>
      <point x="110" y="-10" type="curve"/>
      <point x="381" y="51"/>
      <point x="600" y="183"/>
      <point x="600" y="468" type="curve"/>
      <point x="600" y="641"/>
      <point x="482" y="734"/>
      <point x="303" y="734" type="curve"/>
      <point x="139" y="734"/>
      <point x="28" y="653"/>
      <point x="28" y="496" type="curve"/>
      <point x="28" y="345"/>
      <point x="138" y="270"/>
      <point x="297" y="270" type="curve"/>
      <point x="431" y="270"/>
      <point x="508" y="349"/>
      <point x="555" y="454" type="curve"/>
      <point x="483" y="488"/>
      <point x="555" y="454"/>
    </contour>
  </outline>
</glyph>
<glyph name="colon" format="1">
  <advance width="269"/>
  <unicode hex="003A"/>
  <outline>
    <contour>
      <point x="218" y="371" type="curve"/>
      <point x="218" y="420"/>
      <point x="182" y="444"/>
      <point x="133" y="444" type="curve"/>
      <point x="84" y="444"/>
      <point x="51" y="417"/>
      <point x="51" y="371" type="curve"/>
      <point x="218" y="371"/>
      <point x="51" y="371"/>
      <point x="218" y="371" type="curve"/>
      <point x="218" y="320"/>
      <point x="182" y="299"/>
      <point x="133" y="299" type="curve"/>
      <point x="83" y="299"/>
      <point x="51" y="323"/>
      <point x="51" y="371" type="curve"/>
      <point x="218" y="371"/>
      <point x="51" y="371"/>
    </contour>
    <contour>
      <point x="217" y="64" type="curve"/>
      <point x="217" y="114"/>
      <point x="181" y="137"/>
      <point x="133" y="137" type="curve"/>
      <point x="84" y="137"/>
      <point x="50" y="111"/>
      <point x="50" y="64" type="curve"/>
      <point x="217" y="64"/>
      <point x="51" y="64"/>
      <point x="217" y="64" type="curve"/>
      <point x="217" y="14"/>
      <point x="182" y="-8"/>
      <point x="132" y="-8" type="curve"/>
      <point x="83" y="-8"/>
      <point x="50" y="17"/>
      <point x="50" y="64" type="curve"/>
      <point x="217" y="64"/>
      <point x="51" y="64"/>
    </contour>
  </outline>
</glyph>
<glyph name="semicolon" format="1">
  <advance width="265"/>
  <unicode hex="003B"/>
  <outline>
    <contour>
      <point x="24" y="-191" type="line"/>
      <point x="137" y="-190"/>
      <point x="215" y="-118"/>
      <point x="215" y="-11" type="curve"/>
      <point x="215" y="73"/>
      <point x="175" y="128"/>
      <point x="115" y="128" type="curve"/>
      <point x="65" y="128"/>
      <point x="29" y="103"/>
      <point x="29" y="55" type="curve"/>
      <point x="29" y="10"/>
      <point x="62" y="-17"/>
      <point x="112" y="-17" type="curve"/>
      <point x="111" y="-55"/>
      <point x="99" y="-101"/>
      <point x="24" y="-112" type="curve"/>
    </contour>
    <contour>
      <point x="195" y="377" type="curve"/>
      <point x="195" y="426"/>
      <point x="159" y="450"/>
      <point x="110" y="450" type="curve"/>
      <point x="61" y="450"/>
      <point x="28" y="423"/>
      <point x="28" y="377" type="curve"/>
      <point x="195" y="377"/>
      <point x="28" y="377"/>
      <point x="195" y="377" type="curve"/>
      <point x="195" y="326"/>
      <point x="159" y="305"/>
      <point x="110" y="305" type="curve"/>
      <point x="60" y="305"/>
      <point x="28" y="329"/>
      <point x="28" y="377" type="curve"/>
      <point x="195" y="377"/>
      <point x="28" y="377"/>
    </contour>
  </outline>
</glyph>
<glyph name="less" format="1">
  <advance width="713"/>
  <unicode hex="003C"/>
  <outline>
    <contour>
      <point x="659" y="632" type="curve"/>
      <point x="448" y="542"/>
      <point x="236" y="452"/>
      <point x="25" y="362" type="curve"/>
      <point x="25" y="238"/>
      <point x="25" y="362"/>
      <point x="25" y="238" type="curve"/>
      <point x="236" y="328"/>
      <point x="448" y="418"/>
      <point x="659" y="508" type="curve"/>
      <point x="659" y="632"/>
      <point x="659" y="508"/>
    </contour>
    <contour>
      <point x="670" y="98" type="curve"/>
      <point x="455" y="186"/>
      <point x="240" y="274"/>
      <point x="25" y="362" type="curve"/>
      <point x="25" y="238"/>
      <point x="25" y="362"/>
      <point x="25" y="238" type="curve"/>
      <point x="240" y="150"/>
      <point x="455" y="62"/>
      <point x="670" y="-26" type="curve"/>
      <point x="670" y="98"/>
      <point x="670" y="-26"/>
    </contour>
  </outline>
</glyph>
<glyph name="equal" format="1">
  <advance width="758"/>
  <unicode hex="003D"/>
  <outline>
    <contour>
      <point x="52" y="158" type="curve"/>
      <point x="270" y="158"/>
      <point x="489" y="158"/>
      <point x="707" y="158" type="curve"/>
      <point x="707" y="277"/>
      <point x="707" y="158"/>
      <point x="707" y="277" type="curve"/>
      <point x="489" y="277"/>
      <point x="270" y="277"/>
      <point x="52" y="277" type="curve"/>
      <point x="52" y="158"/>
      <point x="52" y="277"/>
    </contour>
    <contour>
      <point x="52" y="380" type="curve"/>
      <point x="270" y="380"/>
      <point x="489" y="380"/>
      <point x="707" y="380" type="curve"/>
      <point x="707" y="499"/>
      <point x="707" y="380"/>
      <point x="707" y="499" type="curve"/>
      <point x="489" y="499"/>
      <point x="270" y="499"/>
      <point x="52" y="499" type="curve"/>
      <point x="52" y="380"/>
      <point x="52" y="499"/>
    </contour>
  </outline>
</glyph>
<glyph name="greater" format="1">
  <advance width="715"/>
  <unicode hex="003E"/>
  <outline>
    <contour>
      <point x="54" y="-26" type="curve"/>
      <point x="266" y="64"/>
      <point x="477" y="154"/>
      <point x="689" y="244" type="curve"/>
      <point x="689" y="368"/>
      <point x="689" y="244"/>
      <point x="689" y="368" type="curve"/>
      <point x="477" y="278"/>
      <point x="266" y="188"/>
      <point x="54" y="98" type="curve"/>
      <point x="54" y="-26"/>
      <point x="54" y="98"/>
    </contour>
    <contour>
      <point x="44" y="508" type="curve"/>
      <point x="258" y="420"/>
      <point x="474" y="332"/>
      <point x="689" y="244" type="curve"/>
      <point x="689" y="368"/>
      <point x="689" y="244"/>
      <point x="689" y="368" type="curve"/>
      <point x="474" y="456"/>
      <point x="258" y="544"/>
      <point x="44" y="632" type="curve"/>
      <point x="44" y="508"/>
      <point x="44" y="632"/>
    </contour>
  </outline>
</glyph>
<glyph name="question" format="1">
  <advance width="565"/>
  <unicode hex="003F"/>
  <outline>
    <contour>
      <point x="195" y="381" type="curve"/>
      <point x="195" y="344"/>
      <point x="195" y="258"/>
      <point x="195" y="221" type="curve"/>
      <point x="338" y="221"/>
      <point x="195" y="221"/>
      <point x="338" y="221" type="curve"/>
      <point x="338" y="258"/>
      <point x="338" y="344"/>
      <point x="338" y="381" type="curve"/>
      <point x="195" y="381"/>
      <point x="338" y="381"/>
    </contour>
    <contour>
      <point x="113" y="570" type="line"/>
      <point x="150" y="608"/>
      <point x="200" y="636"/>
      <point x="262" y="636" type="curve"/>
      <point x="340" y="636"/>
      <point x="395" y="595"/>
      <point x="395" y="519" type="curve"/>
      <point x="395" y="430"/>
      <point x="318" y="381"/>
      <point x="211" y="381" type="curve"/>
      <point x="211" y="341"/>
      <point x="210" y="312"/>
      <point x="210" y="271" type="curve"/>
      <point x="400" y="271"/>
      <point x="538" y="358"/>
      <point x="538" y="519" type="curve"/>
      <point x="538" y="671"/>
      <point x="424" y="754"/>
      <point x="269" y="754" type="curve"/>
      <point x="173" y="754"/>
      <point x="99" y="723"/>
      <point x="36" y="659" type="curve"/>
    </contour>
    <contour>
      <point x="352" y="38" type="curve"/>
      <point x="352" y="87"/>
      <point x="316" y="111"/>
      <point x="267" y="111" type="curve"/>
      <point x="218" y="111"/>
      <point x="185" y="85"/>
      <point x="185" y="38" type="curve"/>
      <point x="352" y="38"/>
      <point x="185" y="38"/>
      <point x="352" y="38" type="curve"/>
      <point x="352" y="-12"/>
      <point x="316" y="-34"/>
      <point x="267" y="-34" type="curve"/>
      <point x="217" y="-34"/>
      <point x="185" y="-10"/>
      <point x="185" y="38" type="curve"/>
      <point x="352" y="38"/>
      <point x="185" y="38"/>
    </contour>
  </outline>
</glyph>
<glyph name="at" format="1">
  <advance width="901"/>
  <unicode hex="0040"/>
  <outline>
    <contour>
      <point x="608" y="0" type="curve"/>
      <point x="557" y="-20"/>
      <point x="521" y="-29"/>
      <point x="468" y="-29" type="curve"/>
      <point x="294" y="-29"/>
      <point x="172" y="49"/>
      <point x="172" y="214" type="curve"/>
      <point x="172" y="374"/>
      <point x="291" y="446"/>
      <point x="458" y="446" type="curve"/>
      <point x="618" y="446"/>
      <point x="728" y="368"/>
      <point x="728" y="214" type="curve"/>
      <point x="728" y="168"/>
      <point x="726" y="129"/>
      <point x="697" y="129" type="curve"/>
      <point x="667" y="129"/>
      <point x="659" y="168"/>
      <point x="659" y="219" type="curve"/>
      <point x="659" y="342"/>
      <point x="578" y="413"/>
      <point x="452" y="413" type="curve"/>
      <point x="312" y="413"/>
      <point x="229" y="347"/>
      <point x="229" y="214" type="curve"/>
      <point x="229" y="83"/>
      <point x="305" y="10"/>
      <point x="437" y="10" type="curve"/>
      <point x="553" y="10"/>
      <point x="616" y="80"/>
      <point x="638" y="198" type="curve"/>
      <point x="543" y="221"/>
      <point x="638" y="198"/>
      <point x="543" y="221" type="curve"/>
      <point x="527" y="164"/>
      <point x="511" y="122"/>
      <point x="455" y="122" type="curve"/>
      <point x="399" y="122"/>
      <point x="367" y="159"/>
      <point x="367" y="220" type="curve"/>
      <point x="367" y="271"/>
      <point x="392" y="301"/>
      <point x="441" y="301" type="curve"/>
      <point x="497" y="301"/>
      <point x="523" y="269"/>
      <point x="523" y="213" type="curve"/>
      <point x="523" y="99"/>
      <point x="576" y="22"/>
      <point x="686" y="22" type="curve"/>
      <point x="802" y="22"/>
      <point x="863" y="99"/>
      <point x="863" y="219" type="curve"/>
      <point x="863" y="448"/>
      <point x="702" y="563"/>
      <point x="464" y="563" type="curve"/>
      <point x="208" y="563"/>
      <point x="35" y="450"/>
      <point x="35" y="208" type="curve"/>
      <point x="35" y="-29"/>
      <point x="209" y="-142"/>
      <point x="461" y="-142" type="curve"/>
      <point x="542" y="-142"/>
      <point x="602" y="-125"/>
      <point x="661" y="-95" type="curve"/>
      <point x="608" y="0"/>
      <point x="661" y="-95"/>
    </contour>
  </outline>
</glyph>
<glyph name="B" format="1">
  <advance width="665"/>
  <unicode hex="0042"/>
  <outline>
    <contour>
      <point x="132" y="610" type="curve"/>
      <point x="204" y="610"/>
      <point x="270" y="610"/>
      <point x="343" y="610" type="curve"/>
      <point x="399" y="610"/>
      <point x="435" y="584"/>
      <point x="435" y="532" type="curve"/>
      <point x="435" y="480"/>
      <point x="389" y="460"/>
      <point x="333" y="460" type="curve"/>
      <point x="263" y="460"/>
      <point x="201" y="460"/>
      <point x="132" y="460" type="curve"/>
      <point x="132" y="379"/>
      <point x="132" y="428"/>
      <point x="132" y="347" type="curve"/>
      <point x="179" y="347"/>
      <point x="221" y="347"/>
      <point x="269" y="347" type="curve"/>
      <point x="396" y="347"/>
      <point x="584" y="383"/>
      <point x="584" y="529" type="curve"/>
      <point x="584" y="661"/>
      <point x="487" y="722"/>
      <point x="348" y="722" type="curve"/>
      <point x="272" y="722"/>
      <point x="206" y="722"/>
      <point x="132" y="722" type="curve"/>
      <point x="132" y="642"/>
      <point x="132" y="691"/>
    </contour>
    <contour>
      <point x="222" y="0" type="curve"/>
      <point x="222" y="241"/>
      <point x="222" y="481"/>
      <point x="222" y="722" type="curve"/>
      <point x="65" y="722"/>
      <point x="222" y="722"/>
      <point x="65" y="722" type="curve"/>
      <point x="65" y="481"/>
      <point x="65" y="241"/>
      <point x="65" y="0" type="curve"/>
      <point x="222" y="0"/>
      <point x="65" y="0"/>
    </contour>
    <contour>
      <point x="132" y="347" type="curve"/>
      <point x="201" y="347"/>
      <point x="263" y="347"/>
      <point x="333" y="347" type="curve"/>
      <point x="422" y="347"/>
      <point x="483" y="310"/>
      <point x="483" y="226" type="curve"/>
      <point x="483" y="148"/>
      <point x="428" y="112"/>
      <point x="344" y="112" type="curve"/>
      <point x="270" y="112"/>
      <point x="205" y="112"/>
      <point x="132" y="112" type="curve"/>
      <point x="132" y="31"/>
      <point x="132" y="80"/>
      <point x="132" y="0" type="curve"/>
      <point x="207" y="0"/>
      <point x="273" y="0"/>
      <point x="348" y="0" type="curve"/>
      <point x="517" y="0"/>
      <point x="633" y="69"/>
      <point x="633" y="225" type="curve"/>
      <point x="633" y="406"/>
      <point x="433" y="460"/>
      <point x="269" y="460" type="curve"/>
      <point x="221" y="460"/>
      <point x="179" y="460"/>
      <point x="132" y="460" type="curve"/>
      <point x="132" y="379"/>
      <point x="132" y="428"/>
    </contour>
  </outline>
</glyph>
<glyph name="D" format="1">
  <advance width="778"/>
  <unicode hex="0044"/>
  <outline>
    <contour>
      <point x="65" y="722" type="curve"/>
      <point x="65" y="481"/>
      <point x="65" y="241"/>
      <point x="65" y="0" type="curve"/>
      <point x="215" y="0"/>
      <point x="65" y="0"/>
      <point x="215" y="0" type="curve"/>
      <point x="215" y="241"/>
      <point x="215" y="481"/>
      <point x="215" y="722" type="curve"/>
      <point x="65" y="722"/>
      <point x="215" y="722"/>
    </contour>
    <contour>
      <point x="142" y="0" type="curve"/>
      <point x="209" y="0"/>
      <point x="277" y="0"/>
      <point x="345" y="0" type="curve"/>
      <point x="595" y="0"/>
      <point x="741" y="112"/>
      <point x="741" y="354" type="curve"/>
      <point x="741" y="603"/>
      <point x="596" y="722"/>
      <point x="340" y="722" type="curve"/>
      <point x="274" y="722"/>
      <point x="208" y="722"/>
      <point x="142" y="722" type="curve"/>
      <point x="142" y="610"/>
      <point x="142" y="722"/>
      <point x="142" y="610" type="curve"/>
      <point x="206" y="610"/>
      <point x="269" y="610"/>
      <point x="333" y="610" type="curve"/>
      <point x="505" y="610"/>
      <point x="592" y="521"/>
      <point x="592" y="350" type="curve"/>
      <point x="592" y="194"/>
      <point x="513" y="112"/>
      <point x="357" y="112" type="curve"/>
      <point x="285" y="112"/>
      <point x="214" y="112"/>
      <point x="142" y="112" type="curve"/>
      <point x="142" y="0"/>
      <point x="142" y="112"/>
    </contour>
    <contour>
      <point x="325" y="781" type="move" name="top"/>
    </contour>
  </outline>
</glyph>
<glyph name="F" format="1">
  <advance width="578"/>
  <unicode hex="0046"/>
  <outline>
    <contour>
      <point x="144" y="316" type="curve"/>
      <point x="256" y="316"/>
      <point x="368" y="316"/>
      <point x="480" y="316" type="curve"/>
      <point x="480" y="429"/>
      <point x="480" y="316"/>
      <point x="480" y="429" type="curve"/>
      <point x="368" y="429"/>
      <point x="256" y="429"/>
      <point x="144" y="429" type="curve"/>
      <point x="144" y="316"/>
      <point x="144" y="429"/>
    </contour>
    <contour>
      <point x="215" y="0" type="curve"/>
      <point x="215" y="722" type="line"/>
      <point x="65" y="722"/>
      <point x="215" y="722"/>
      <point x="65" y="722" type="curve"/>
      <point x="65" y="481"/>
      <point x="65" y="241"/>
      <point x="65" y="0" type="curve"/>
      <point x="215" y="0"/>
      <point x="65" y="0"/>
    </contour>
    <contour>
      <point x="129" y="610" type="curve"/>
      <point x="271" y="610"/>
      <point x="413" y="610"/>
      <point x="556" y="610" type="curve"/>
      <point x="556" y="722"/>
      <point x="556" y="610"/>
      <point x="556" y="722" type="curve"/>
      <point x="413" y="722"/>
      <point x="271" y="722"/>
      <point x="129" y="722" type="curve"/>
      <point x="129" y="610"/>
      <point x="129" y="722"/>
    </contour>
  </outline>
</glyph>
<glyph name="G" format="1">
  <advance width="820"/>
  <unicode hex="0047"/>
  <outline>
    <contour>
      <point x="737" y="371" type="curve"/>
      <point x="661" y="371"/>
      <point x="585" y="371"/>
      <point x="508" y="371" type="curve"/>
      <point x="508" y="259"/>
      <point x="508" y="371"/>
      <point x="508" y="259" type="curve"/>
      <point x="585" y="259"/>
      <point x="661" y="259"/>
      <point x="737" y="259" type="curve"/>
      <point x="737" y="371"/>
      <point x="737" y="259"/>
    </contour>
    <contour>
      <point x="778" y="79" type="curve"/>
      <point x="778" y="176"/>
      <point x="778" y="273"/>
      <point x="778" y="371" type="curve"/>
      <point x="641" y="371"/>
      <point x="778" y="371"/>
      <point x="641" y="371" type="curve"/>
      <point x="641" y="273"/>
      <point x="641" y="176"/>
      <point x="641" y="79" type="curve"/>
      <point x="778" y="79"/>
      <point x="641" y="79"/>
    </contour>
    <contour>
      <point x="760" y="645" type="curve"/>
      <point x="655" y="703"/>
      <point x="561" y="727"/>
      <point x="441" y="727" type="curve"/>
      <point x="193" y="727"/>
      <point x="35" y="602"/>
      <point x="35" y="360" type="curve"/>
      <point x="35" y="115"/>
      <point x="200" y="-5"/>
      <point x="452" y="-5" type="curve"/>
      <point x="580" y="-5"/>
      <point x="662" y="23"/>
      <point x="778" y="79" type="curve"/>
      <point x="702" y="163"/>
      <point x="778" y="79"/>
      <point x="702" y="163" type="curve"/>
      <point x="616" y="122"/>
      <point x="548" y="112"/>
      <point x="452" y="112" type="curve"/>
      <point x="283" y="112"/>
      <point x="185" y="203"/>
      <point x="185" y="371" type="curve"/>
      <point x="185" y="527"/>
      <point x="282" y="610"/>
      <point x="441" y="610" type="curve"/>
      <point x="532" y="610"/>
      <point x="604" y="593"/>
      <point x="694" y="547" type="curve"/>
      <point x="760" y="645"/>
      <point x="694" y="547"/>
    </contour>
    <contour>
      <point x="439" y="781" type="move" name="top"/>
    </contour>
    <contour>
      <point x="497" y="8" type="move" name="bottom"/>
    </contour>
  </outline>
</glyph>
<glyph name="H" format="1">
  <advance width="802"/>
  <unicode hex="0048"/>
  <outline>
    <contour>
      <point x="215" y="0" type="curve"/>
      <point x="215" y="722" type="line"/>
      <point x="65" y="722"/>
      <point x="215" y="722"/>
      <point x="65" y="722" type="curve"/>
      <point x="65" y="481"/>
      <point x="65" y="241"/>
      <point x="65" y="0" type="curve"/>
      <point x="215" y="0"/>
      <point x="65" y="0"/>
    </contour>
    <contour>
      <point x="659" y="419" type="curve"/>
      <point x="486" y="419"/>
      <point x="313" y="419"/>
      <point x="140" y="419" type="curve"/>
      <point x="140" y="306"/>
      <point x="140" y="419"/>
      <point x="140" y="306" type="curve"/>
      <point x="313" y="306"/>
      <point x="486" y="306"/>
      <point x="659" y="306" type="curve"/>
      <point x="659" y="419"/>
      <point x="659" y="306"/>
    </contour>
    <contour>
      <point x="736" y="0" type="curve"/>
      <point x="736" y="209"/>
      <point x="736" y="513"/>
      <point x="736" y="722" type="curve"/>
      <point x="587" y="722"/>
      <point x="736" y="722"/>
      <point x="587" y="722" type="curve"/>
      <point x="587" y="0" type="line"/>
      <point x="736" y="0"/>
      <point x="587" y="0"/>
    </contour>
  </outline>
</glyph>
<glyph name="J" format="1">
  <advance width="465"/>
  <unicode hex="004A"/>
  <outline>
    <contour>
      <point x="-2" y="45" type="curve"/>
      <point x="34" y="22"/>
      <point x="86" y="-4"/>
      <point x="149" y="-4" type="curve"/>
      <point x="311" y="-4"/>
      <point x="404" y="78"/>
      <point x="404" y="246" type="curve"/>
      <point x="404" y="403"/>
      <point x="404" y="564"/>
      <point x="404" y="722" type="curve"/>
      <point x="255" y="722"/>
      <point x="404" y="722"/>
      <point x="255" y="722" type="curve"/>
      <point x="255" y="564"/>
      <point x="255" y="403"/>
      <point x="255" y="246" type="curve"/>
      <point x="255" y="164"/>
      <point x="225" y="108"/>
      <point x="149" y="108" type="curve"/>
      <point x="115" y="108"/>
      <point x="94" y="120"/>
      <point x="66" y="134" type="curve"/>
      <point x="-2" y="45"/>
      <point x="66" y="134"/>
    </contour>
  </outline>
</glyph>
<glyph name="K" format="1">
  <advance width="740"/>
  <unicode hex="004B"/>
  <outline>
    <contour>
      <point x="517" y="722" type="curve"/>
      <point x="178" y="380" type="line"/>
      <point x="356" y="380"/>
      <point x="182" y="380"/>
      <point x="360" y="380" type="curve"/>
      <point x="704" y="722" type="line"/>
      <point x="533" y="722"/>
      <point x="688" y="722"/>
    </contour>
    <contour>
      <point x="215" y="0" type="curve"/>
      <point x="215" y="722" type="line"/>
      <point x="65" y="722"/>
      <point x="215" y="722"/>
      <point x="65" y="722" type="curve"/>
      <point x="65" y="481"/>
      <point x="65" y="241"/>
      <point x="65" y="0" type="curve"/>
      <point x="215" y="0"/>
      <point x="65" y="0"/>
    </contour>
    <contour>
      <point x="730" y="0" type="curve"/>
      <point x="360" y="380" type="line"/>
      <point x="182" y="380"/>
      <point x="356" y="380"/>
      <point x="178" y="380" type="curve"/>
      <point x="539" y="0" type="line"/>
      <point x="721" y="0"/>
      <point x="548" y="0"/>
    </contour>
    <contour>
      <point x="387" y="2" type="move" name="bottom"/>
    </contour>
  </outline>
</glyph>
<glyph name="L" format="1">
  <advance width="590"/>
  <unicode hex="004C"/>
  <outline>
    <contour>
      <point x="215" y="0" type="curve"/>
      <point x="215" y="241"/>
      <point x="215" y="481"/>
      <point x="215" y="722" type="curve"/>
      <point x="65" y="722"/>
      <point x="215" y="722"/>
      <point x="65" y="722" type="curve"/>
      <point x="65" y="481"/>
      <point x="65" y="241"/>
      <point x="65" y="0" type="curve"/>
      <point x="215" y="0"/>
      <point x="65" y="0"/>
    </contour>
    <contour>
      <point x="139" y="0" type="curve"/>
      <point x="286" y="0"/>
      <point x="432" y="0"/>
      <point x="578" y="0" type="curve"/>
      <point x="578" y="112"/>
      <point x="578" y="0"/>
      <point x="578" y="112" type="curve"/>
      <point x="432" y="112"/>
      <point x="286" y="112"/>
      <point x="139" y="112" type="curve"/>
      <point x="139" y="0"/>
      <point x="139" y="112"/>
    </contour>
    <contour>
      <point x="139" y="781" type="move" name="top"/>
    </contour>
    <contour>
      <point x="333" y="5" type="move" name="bottom"/>
    </contour>
  </outline>
</glyph>
<glyph name="M" format="1">
  <advance width="954"/>
  <unicode hex="004D"/>
  <outline>
    <contour>
      <point x="912" y="0" type="curve"/>
      <point x="890" y="241"/>
      <point x="863" y="481"/>
      <point x="841" y="722" type="curve"/>
      <point x="705" y="722"/>
      <point x="841" y="722"/>
      <point x="705" y="722" type="curve"/>
      <point x="726" y="482"/>
      <point x="741" y="240"/>
      <point x="762" y="0" type="curve"/>
      <point x="912" y="0"/>
      <point x="762" y="0"/>
    </contour>
    <contour>
      <point x="185" y="0" type="curve"/>
      <point x="205" y="241"/>
      <point x="224" y="481"/>
      <point x="244" y="722" type="curve"/>
      <point x="106" y="722"/>
      <point x="244" y="722"/>
      <point x="106" y="722" type="curve"/>
      <point x="86" y="481"/>
      <point x="66" y="241"/>
      <point x="45" y="0" type="curve"/>
      <point x="185" y="0"/>
      <point x="45" y="0"/>
    </contour>
    <contour>
      <point x="540" y="0" type="curve"/>
      <point x="442" y="241"/>
      <point x="344" y="481"/>
      <point x="247" y="722" type="curve"/>
      <point x="108" y="722"/>
      <point x="247" y="722"/>
      <point x="108" y="722" type="curve"/>
      <point x="206" y="481"/>
      <point x="303" y="241"/>
      <point x="401" y="0" type="curve"/>
      <point x="540" y="0"/>
      <point x="401" y="0"/>
    </contour>
    <contour>
      <point x="550" y="0" type="curve"/>
      <point x="645" y="241"/>
      <point x="741" y="481"/>
      <point x="836" y="722" type="curve"/>
      <point x="698" y="722"/>
      <point x="836" y="722"/>
      <point x="698" y="722" type="curve"/>
      <point x="602" y="481"/>
      <point x="505" y="241"/>
      <point x="409" y="0" type="curve"/>
      <point x="550" y="0"/>
      <point x="409" y="0"/>
    </contour>
  </outline>
</glyph>
<glyph name="N" format="1">
  <advance width="855"/>
  <unicode hex="004E"/>
  <outline>
    <contour>
      <point x="788" y="0" type="curve"/>
      <point x="603" y="240"/>
      <point x="421" y="482"/>
      <point x="236" y="722" type="curve"/>
      <point x="65" y="722"/>
      <point x="236" y="722"/>
      <point x="65" y="722" type="curve"/>
      <point x="249" y="482"/>
      <point x="432" y="240"/>
      <point x="617" y="0" type="curve"/>
      <point x="788" y="0"/>
      <point x="617" y="0"/>
    </contour>
    <contour>
      <point x="641" y="722" type="curve"/>
      <point x="641" y="481"/>
      <point x="641" y="241"/>
      <point x="641" y="0" type="curve"/>
      <point x="790" y="0"/>
      <point x="641" y="0"/>
      <point x="790" y="0" type="curve"/>
      <point x="790" y="241"/>
      <point x="790" y="481"/>
      <point x="790" y="722" type="curve"/>
      <point x="641" y="722"/>
      <point x="790" y="722"/>
    </contour>
    <contour>
      <point x="215" y="0" type="curve"/>
      <point x="215" y="241"/>
      <point x="215" y="481"/>
      <point x="215" y="722" type="curve"/>
      <point x="65" y="722"/>
      <point x="215" y="722"/>
      <point x="65" y="722" type="curve"/>
      <point x="65" y="481"/>
      <point x="65" y="241"/>
      <point x="65" y="0" type="curve"/>
      <point x="215" y="0"/>
      <point x="65" y="0"/>
    </contour>
    <contour>
      <point x="425" y="781" type="move" name="top"/>
    </contour>
    <contour>
      <point x="452" y="1" type="move" name="bottom"/>
    </contour>
  </outline>
</glyph>
<glyph name="P" format="1">
  <advance width="616"/>
  <unicode hex="0050"/>
  <outline>
    <contour>
      <point x="119" y="293" type="curve"/>
      <point x="182" y="265"/>
      <point x="256" y="247"/>
      <point x="327" y="247" type="curve"/>
      <point x="486" y="250"/>
      <point x="593" y="322"/>
      <point x="593" y="479" type="curve"/>
      <point x="593" y="641"/>
      <point x="461" y="722"/>
      <point x="286" y="722" type="curve"/>
      <point x="239" y="722"/>
      <point x="191" y="722"/>
      <point x="144" y="722" type="curve"/>
      <point x="144" y="610"/>
      <point x="144" y="722"/>
      <point x="144" y="610" type="curve"/>
      <point x="185" y="610"/>
      <point x="225" y="610"/>
      <point x="266" y="610" type="curve"/>
      <point x="367" y="610"/>
      <point x="443" y="571"/>
      <point x="443" y="483" type="curve"/>
      <point x="443" y="400"/>
      <point x="389" y="357"/>
      <point x="310" y="357" type="curve"/>
      <point x="255" y="357"/>
      <point x="216" y="369"/>
      <point x="166" y="390" type="curve"/>
      <point x="120" y="294"/>
      <point x="166" y="390"/>
    </contour>
    <contour>
      <point x="215" y="0" type="curve"/>
      <point x="215" y="241"/>
      <point x="215" y="481"/>
      <point x="215" y="722" type="curve"/>
      <point x="65" y="722"/>
      <point x="215" y="722"/>
      <point x="65" y="722" type="curve"/>
      <point x="65" y="481"/>
      <point x="65" y="241"/>
      <point x="65" y="0" type="curve"/>
      <point x="215" y="0"/>
      <point x="65" y="0"/>
    </contour>
  </outline>
</glyph>
<glyph name="Q" format="1">
  <advance width="846"/>
  <unicode hex="0051"/>
  <outline>
    <contour>
      <point x="353" y="27" type="curve"/>
      <point x="476" y="-158"/>
      <point x="614" y="-211"/>
      <point x="825" y="-211" type="curve"/>
      <point x="825" y="-93"/>
      <point x="825" y="-211"/>
      <point x="825" y="-93" type="curve"/>
      <point x="672" y="-93"/>
      <point x="574" y="-53"/>
      <point x="482" y="83" type="curve"/>
      <point x="353" y="27"/>
      <point x="482" y="83"/>
    </contour>
    <contour>
      <point x="186" y="360" type="curve"/>
      <point x="186" y="507"/>
      <point x="265" y="605"/>
      <point x="406" y="605" type="curve"/>
      <point x="551" y="605"/>
      <point x="630" y="510"/>
      <point x="630" y="360" type="curve"/>
      <point x="630" y="212"/>
      <point x="555" y="112"/>
      <point x="414" y="112" type="curve"/>
      <point x="267" y="112"/>
      <point x="186" y="209"/>
      <point x="186" y="360" type="curve"/>
      <point x="37" y="360"/>
      <point x="186" y="360"/>
      <point x="37" y="360" type="curve"/>
      <point x="37" y="133"/>
      <point x="182" y="-5"/>
      <point x="406" y="-5" type="curve"/>
      <point x="635" y="-5"/>
      <point x="780" y="136"/>
      <point x="780" y="366" type="curve"/>
      <point x="780" y="592"/>
      <point x="640" y="732"/>
      <point x="415" y="732" type="curve"/>
      <point x="185" y="732"/>
      <point x="37" y="590"/>
      <point x="37" y="360" type="curve"/>
      <point x="186" y="360"/>
      <point x="37" y="360"/>
    </contour>
  </outline>
</glyph>
<glyph name="R" format="1">
  <advance width="707"/>
  <unicode hex="0052"/>
  <outline>
    <contour>
      <point x="268" y="354" type="curve"/>
      <point x="356" y="237"/>
      <point x="447" y="117"/>
      <point x="534" y="0" type="curve"/>
      <point x="687" y="0"/>
      <point x="553" y="0"/>
      <point x="706" y="0" type="curve"/>
      <point x="624" y="111"/>
      <point x="523" y="243"/>
      <point x="441" y="354" type="curve"/>
      <point x="270" y="354"/>
      <point x="439" y="354"/>
    </contour>
    <contour>
      <point x="215" y="0" type="curve"/>
      <point x="215" y="241"/>
      <point x="215" y="481"/>
      <point x="215" y="722" type="curve"/>
      <point x="65" y="722"/>
      <point x="215" y="722"/>
      <point x="65" y="722" type="curve"/>
      <point x="65" y="481"/>
      <point x="65" y="241"/>
      <point x="65" y="0" type="curve"/>
      <point x="215" y="0"/>
      <point x="65" y="0"/>
    </contour>
    <contour>
      <point x="142" y="296" type="curve"/>
      <point x="201" y="296"/>
      <point x="261" y="296"/>
      <point x="320" y="296" type="curve"/>
      <point x="489" y="296"/>
      <point x="610" y="359"/>
      <point x="610" y="519" type="curve"/>
      <point x="610" y="665"/>
      <point x="497" y="722"/>
      <point x="339" y="722" type="curve"/>
      <point x="274" y="722"/>
      <point x="208" y="722"/>
      <point x="142" y="722" type="curve"/>
      <point x="142" y="610"/>
      <point x="142" y="722"/>
      <point x="142" y="610" type="curve"/>
      <point x="199" y="610"/>
      <point x="255" y="610"/>
      <point x="312" y="610" type="curve"/>
      <point x="398" y="610"/>
      <point x="460" y="586"/>
      <point x="460" y="508" type="curve"/>
      <point x="460" y="435"/>
      <point x="407" y="409"/>
      <point x="329" y="409" type="curve"/>
      <point x="267" y="409"/>
      <point x="204" y="409"/>
      <point x="142" y="409" type="curve"/>
      <point x="142" y="296"/>
      <point x="142" y="409"/>
    </contour>
    <contour>
      <point x="289" y="781" type="move" name="top"/>
    </contour>
    <contour>
      <point x="395" y="0" type="move" name="bottom"/>
    </contour>
  </outline>
</glyph>
<glyph name="S" format="1">
  <advance width="614"/>
  <unicode hex="0053"/>
  <outline>
    <contour>
      <point x="35" y="53" type="curve"/>
      <point x="109" y="12"/>
      <point x="189" y="-5"/>
      <point x="285" y="-5" type="curve"/>
      <point x="451" y="-5"/>
      <point x="592" y="46"/>
      <point x="592" y="194" type="curve"/>
      <point x="592" y="322"/>
      <point x="485" y="369"/>
      <point x="362" y="419" type="curve"/>
      <point x="276" y="454"/>
      <point x="182" y="488"/>
      <point x="182" y="542" type="curve"/>
      <point x="181" y="594"/>
      <point x="234" y="615"/>
      <point x="299" y="615" type="curve"/>
      <point x="365" y="615"/>
      <point x="428" y="591"/>
      <point x="477" y="571" type="curve"/>
      <point x="540" y="661"/>
      <point x="477" y="571"/>
      <point x="541" y="661" type="curve"/>
      <point x="469" y="697"/>
      <point x="395" y="722"/>
      <point x="304" y="722" type="curve"/>
      <point x="152" y="722"/>
      <point x="32" y="666"/>
      <point x="32" y="534" type="curve"/>
      <point x="32" y="409"/>
      <point x="140" y="364"/>
      <point x="261" y="315" type="curve"/>
      <point x="348" y="280"/>
      <point x="442" y="248"/>
      <point x="442" y="191" type="curve"/>
      <point x="442" y="141"/>
      <point x="371" y="112"/>
      <point x="291" y="112" type="curve"/>
      <point x="224" y="112"/>
      <point x="161" y="133"/>
      <point x="107" y="160" type="curve"/>
      <point x="35" y="53"/>
      <point x="107" y="159"/>
    </contour>
    <contour>
      <point x="303" y="781" type="move" name="top"/>
    </contour>
    <contour>
      <point x="338" y="8" type="move" name="bottom"/>
    </contour>
  </outline>
</glyph>
<glyph name="T" format="1">
  <advance width="670"/>
  <unicode hex="0054"/>
  <outline>
    <contour>
      <point x="410" y="0" type="curve"/>
      <point x="410" y="237"/>
      <point x="410" y="473"/>
      <point x="410" y="710" type="curve"/>
      <point x="260" y="710"/>
      <point x="410" y="710"/>
      <point x="260" y="710" type="curve"/>
      <point x="260" y="473"/>
      <point x="260" y="237"/>
      <point x="260" y="0" type="curve"/>
      <point x="410" y="0"/>
      <point x="260" y="0"/>
    </contour>
    <contour>
      <point x="12" y="603" type="curve"/>
      <point x="226" y="603"/>
      <point x="442" y="603"/>
      <point x="658" y="603" type="curve"/>
      <point x="658" y="727"/>
      <point x="658" y="598"/>
      <point x="658" y="722" type="curve"/>
      <point x="442" y="722"/>
      <point x="226" y="722"/>
      <point x="12" y="722" type="curve"/>
      <point x="12" y="598"/>
      <point x="12" y="727"/>
    </contour>
    <contour>
      <point x="332" y="781" type="move" name="top"/>
    </contour>
    <contour>
      <point x="385" y="3" type="move" name="bottom"/>
    </contour>
  </outline>
</glyph>
<glyph name="V" format="1">
  <advance width="750"/>
  <unicode hex="0056"/>
  <outline>
    <contour>
      <point x="593" y="722" type="curve"/>
      <point x="498" y="481"/>
      <point x="404" y="241"/>
      <point x="311" y="0" type="curve"/>
      <point x="463" y="0"/>
      <point x="304" y="0"/>
      <point x="456" y="0" type="curve"/>
      <point x="552" y="241"/>
      <point x="648" y="481"/>
      <point x="745" y="722" type="curve"/>
      <point x="593" y="722"/>
      <point x="745" y="722"/>
    </contour>
    <contour>
      <point x="3" y="722" type="curve"/>
      <point x="101" y="481"/>
      <point x="199" y="241"/>
      <point x="297" y="0" type="curve"/>
      <point x="449" y="0"/>
      <point x="291" y="0"/>
      <point x="443" y="0" type="curve"/>
      <point x="348" y="241"/>
      <point x="253" y="481"/>
      <point x="156" y="722" type="curve"/>
      <point x="3" y="722"/>
      <point x="156" y="722"/>
    </contour>
  </outline>
</glyph>
<glyph name="W" format="1">
  <advance width="973"/>
  <unicode hex="0057"/>
  <outline>
    <contour>
      <point x="351" y="0" type="curve"/>
      <point x="421" y="241"/>
      <point x="488" y="481"/>
      <point x="557" y="722" type="curve"/>
      <point x="418" y="722"/>
      <point x="560" y="722"/>
      <point x="421" y="722" type="curve"/>
      <point x="357" y="481"/>
      <point x="294" y="242"/>
      <point x="229" y="0" type="curve"/>
      <point x="363" y="0"/>
      <point x="217" y="0"/>
    </contour>
    <contour>
      <point x="433" y="722" type="curve"/>
      <point x="496" y="481"/>
      <point x="554" y="241"/>
      <point x="617" y="0" type="curve"/>
      <point x="751" y="0"/>
      <point x="602" y="0"/>
      <point x="737" y="0" type="curve"/>
      <point x="680" y="243"/>
      <point x="626" y="480"/>
      <point x="567" y="722" type="curve"/>
      <point x="429" y="722"/>
      <point x="572" y="722"/>
    </contour>
    <contour>
      <point x="21" y="722" type="curve"/>
      <point x="84" y="481"/>
      <point x="148" y="241"/>
      <point x="210" y="0" type="curve"/>
      <point x="345" y="0"/>
      <point x="206" y="0"/>
      <point x="340" y="0" type="curve"/>
      <point x="279" y="241"/>
      <point x="223" y="481"/>
      <point x="162" y="722" type="curve"/>
      <point x="21" y="722"/>
      <point x="162" y="722"/>
    </contour>
    <contour>
      <point x="814" y="722" type="curve"/>
      <point x="752" y="481"/>
      <point x="692" y="241"/>
      <point x="631" y="0" type="curve"/>
      <point x="765" y="0"/>
      <point x="623" y="0"/>
      <point x="758" y="0" type="curve"/>
      <point x="823" y="241"/>
      <point x="889" y="481"/>
      <point x="955" y="722" type="curve"/>
      <point x="814" y="722"/>
      <point x="955" y="722"/>
    </contour>
  </outline>
</glyph>
<glyph name="X" format="1">
  <advance width="714"/>
  <unicode hex="0058"/>
  <outline>
    <contour>
      <point x="531" y="722" type="curve"/>
      <point x="365" y="489"/>
      <point x="170" y="233"/>
      <point x="4" y="0" type="curve"/>
      <point x="150" y="0"/>
      <point x="29" y="0"/>
      <point x="176" y="0" type="curve"/>
      <point x="341" y="233"/>
      <point x="528" y="489"/>
      <point x="693" y="721" type="curve"/>
      <point x="554" y="721"/>
      <point x="670" y="722"/>
    </contour>
    <contour>
      <point x="36" y="722" type="curve"/>
      <point x="200" y="489"/>
      <point x="381" y="233"/>
      <point x="545" y="0" type="curve"/>
      <point x="692" y="0"/>
      <point x="561" y="0"/>
      <point x="708" y="0" type="curve"/>
      <point x="542" y="235"/>
      <point x="359" y="487"/>
      <point x="192" y="722" type="curve"/>
      <point x="56" y="722"/>
      <point x="172" y="722"/>
    </contour>
  </outline>
</glyph>
<glyph name="bracketleft" format="1">
  <advance width="322"/>
  <unicode hex="005B"/>
  <outline>
    <contour>
      <point x="283" y="769" type="curve"/>
      <point x="229" y="769"/>
      <point x="177" y="769"/>
      <point x="124" y="769" type="curve"/>
      <point x="105" y="769"/>
      <point x="73" y="769"/>
      <point x="56" y="769" type="curve"/>
      <point x="56" y="753"/>
      <point x="56" y="730"/>
      <point x="56" y="713" type="curve"/>
      <point x="56" y="456"/>
      <point x="56" y="199"/>
      <point x="56" y="-58" type="curve"/>
      <point x="56" y="-75"/>
      <point x="56" y="-93"/>
      <point x="56" y="-113" type="curve"/>
      <point x="72" y="-113"/>
      <point x="103" y="-113"/>
      <point x="123" y="-113" type="curve"/>
      <point x="176" y="-113"/>
      <point x="229" y="-113"/>
      <point x="283" y="-113" type="curve"/>
      <point x="283" y="11"/>
      <point x="283" y="-113"/>
      <point x="283" y="11" type="curve"/>
      <point x="229" y="11"/>
      <point x="176" y="11"/>
      <point x="123" y="11" type="curve"/>
      <point x="205" y="11"/>
      <point x="123" y="11"/>
      <point x="205" y="11" type="curve"/>
      <point x="205" y="-58"/>
      <point x="205" y="11"/>
      <point x="205" y="-58" type="curve"/>
      <point x="205" y="199"/>
      <point x="205" y="456"/>
      <point x="205" y="713" type="curve"/>
      <point x="205" y="646"/>
      <point x="205" y="713"/>
      <point x="205" y="646" type="curve"/>
      <point x="124" y="646"/>
      <point x="205" y="646"/>
      <point x="124" y="646" type="curve"/>
      <point x="177" y="646"/>
      <point x="229" y="646"/>
      <point x="283" y="646" type="curve"/>
      <point x="283" y="769"/>
      <point x="283" y="646"/>
    </contour>
  </outline>
</glyph>
<glyph name="backslash" format="1">
  <advance width="603"/>
  <unicode hex="005C"/>
  <outline>
    <contour>
      <point x="584" y="-68" type="curve"/>
      <point x="448" y="236"/>
      <point x="312" y="540"/>
      <point x="176" y="844" type="curve"/>
      <point x="19" y="844"/>
      <point x="176" y="844"/>
      <point x="19" y="844" type="curve"/>
      <point x="155" y="540"/>
      <point x="292" y="236"/>
      <point x="428" y="-68" type="curve"/>
      <point x="584" y="-68"/>
      <point x="428" y="-68"/>
    </contour>
  </outline>
</glyph>
<glyph name="bracketright" format="1">
  <advance width="322"/>
  <unicode hex="005D"/>
  <outline>
    <contour>
      <point x="40" y="646" type="curve"/>
      <point x="93" y="646"/>
      <point x="146" y="646"/>
      <point x="199" y="646" type="curve"/>
      <point x="185" y="657"/>
      <point x="166" y="661"/>
      <point x="152" y="672" type="curve"/>
      <point x="139" y="684"/>
      <point x="130" y="701"/>
      <point x="117" y="713" type="curve"/>
      <point x="117" y="456"/>
      <point x="117" y="199"/>
      <point x="117" y="-58" type="curve"/>
      <point x="131" y="-45"/>
      <point x="142" y="-30"/>
      <point x="156" y="-19" type="curve"/>
      <point x="170" y="-7"/>
      <point x="187" y="-1"/>
      <point x="200" y="11" type="curve"/>
      <point x="147" y="11"/>
      <point x="93" y="11"/>
      <point x="40" y="11" type="curve"/>
      <point x="40" y="-113"/>
      <point x="40" y="11"/>
      <point x="40" y="-113" type="curve"/>
      <point x="93" y="-113"/>
      <point x="147" y="-113"/>
      <point x="200" y="-113" type="curve"/>
      <point x="267" y="-113"/>
      <point x="200" y="-113"/>
      <point x="267" y="-113" type="curve"/>
      <point x="267" y="-58"/>
      <point x="267" y="-113"/>
      <point x="267" y="-58" type="curve"/>
      <point x="267" y="199"/>
      <point x="267" y="456"/>
      <point x="267" y="713" type="curve"/>
      <point x="267" y="769"/>
      <point x="267" y="713"/>
      <point x="267" y="769" type="curve"/>
      <point x="199" y="769"/>
      <point x="267" y="769"/>
      <point x="199" y="769" type="curve"/>
      <point x="146" y="769"/>
      <point x="93" y="769"/>
      <point x="40" y="769" type="curve"/>
      <point x="40" y="646"/>
      <point x="40" y="769"/>
    </contour>
  </outline>
</glyph>
<glyph name="asciicircum" format="1">
  <advance width="571"/>
  <unicode hex="005E"/>
  <outline>
    <contour>
      <point x="178" y="453" type="curve"/>
      <point x="238" y="553"/>
      <point x="299" y="653"/>
      <point x="360" y="753" type="curve"/>
      <point x="210" y="753"/>
      <point x="359" y="753"/>
      <point x="210" y="753" type="curve"/>
      <point x="149" y="653"/>
      <point x="89" y="553"/>
      <point x="29" y="453" type="curve"/>
      <point x="178" y="453"/>
      <point x="29" y="453"/>
    </contour>
    <contour>
      <point x="542" y="453" type="curve"/>
      <point x="483" y="552"/>
      <point x="420" y="653"/>
      <point x="360" y="753" type="curve"/>
      <point x="210" y="753"/>
      <point x="360" y="753"/>
      <point x="210" y="753" type="curve"/>
      <point x="270" y="653"/>
      <point x="333" y="552"/>
      <point x="393" y="453" type="curve"/>
      <point x="542" y="453"/>
      <point x="393" y="453"/>
    </contour>
  </outline>
</glyph>
<glyph name="b" format="1">
  <advance width="669"/>
  <unicode hex="0062"/>
  <outline>
    <contour>
      <point x="163" y="327" type="curve"/>
      <point x="207" y="378"/>
      <point x="262" y="421"/>
      <point x="345" y="421" type="curve"/>
      <point x="438" y="421"/>
      <point x="486" y="358"/>
      <point x="486" y="262" type="curve"/>
      <point x="488" y="169"/>
      <point x="436" y="111"/>
      <point x="346" y="112" type="curve"/>
      <point x="272" y="112"/>
      <point x="216" y="144"/>
      <point x="175" y="188" type="curve"/>
      <point x="123" y="153"/>
      <point x="144" y="167"/>
      <point x="91" y="132" type="curve"/>
      <point x="166" y="51"/>
      <point x="243" y="-5"/>
      <point x="369" y="-5" type="curve"/>
      <point x="533" y="-5"/>
      <point x="638" y="95"/>
      <point x="637" y="265" type="curve"/>
      <point x="637" y="437"/>
      <point x="533" y="539"/>
      <point x="368" y="539" type="curve"/>
      <point x="245" y="539"/>
      <point x="169" y="477"/>
      <point x="99" y="395" type="curve"/>
      <point x="142" y="356"/>
      <point x="120" y="365"/>
    </contour>
    <contour>
      <point x="204" y="0" type="curve"/>
      <point x="204" y="289"/>
      <point x="204" y="511"/>
      <point x="204" y="800" type="curve"/>
      <point x="106" y="800"/>
      <point x="153" y="800"/>
      <point x="54" y="800" type="curve"/>
      <point x="54" y="511"/>
      <point x="54" y="289"/>
      <point x="54" y="0" type="curve"/>
      <point x="153" y="0"/>
      <point x="106" y="0"/>
    </contour>
  </outline>
</glyph>
<glyph name="c" format="1">
  <advance width="563"/>
  <unicode hex="0063"/>
  <outline>
    <contour>
      <point x="545" y="469" type="curve"/>
      <point x="487" y="510"/>
      <point x="413" y="538"/>
      <point x="338" y="538" type="curve"/>
      <point x="153" y="538"/>
      <point x="32" y="451"/>
      <point x="32" y="267" type="curve"/>
      <point x="32" y="84"/>
      <point x="149" y="-5"/>
      <point x="335" y="-5" type="curve"/>
      <point x="419" y="-5"/>
      <point x="500" y="22"/>
      <point x="549" y="81" type="curve"/>
      <point x="460" y="163"/>
      <point x="549" y="81"/>
      <point x="460" y="163" type="curve"/>
      <point x="427" y="133"/>
      <point x="387" y="112"/>
      <point x="342" y="112" type="curve"/>
      <point x="241" y="112"/>
      <point x="182" y="164"/>
      <point x="182" y="267" type="curve"/>
      <point x="182" y="368"/>
      <point x="237" y="421"/>
      <point x="336" y="421" type="curve"/>
      <point x="379" y="421"/>
      <point x="422" y="412"/>
      <point x="467" y="388" type="curve"/>
      <point x="545" y="469"/>
      <point x="467" y="388"/>
    </contour>
    <contour>
      <point x="322" y="611" type="move" name="top"/>
    </contour>
    <contour>
      <point x="348" y="9" type="move" name="bottom"/>
    </contour>
  </outline>
</glyph>
<glyph name="d" format="1">
  <advance width="666"/>
  <unicode hex="0064"/>
  <outline>
    <contour>
      <point x="552" y="421" type="curve"/>
      <point x="487" y="495"/>
      <point x="395" y="536"/>
      <point x="298" y="536" type="curve"/>
      <point x="134" y="536"/>
      <point x="32" y="435"/>
      <point x="32" y="262" type="curve"/>
      <point x="32" y="91"/>
      <point x="136" y="-3"/>
      <point x="297" y="-3" type="curve"/>
      <point x="413" y="-3"/>
      <point x="496" y="49"/>
      <point x="554" y="138" type="curve"/>
      <point x="492" y="206"/>
      <point x="549" y="138"/>
      <point x="487" y="206" type="curve"/>
      <point x="443" y="142"/>
      <point x="392" y="109"/>
      <point x="321" y="109" type="curve"/>
      <point x="234" y="109"/>
      <point x="181" y="168"/>
      <point x="181" y="268" type="curve"/>
      <point x="181" y="367"/>
      <point x="238" y="424"/>
      <point x="326" y="424" type="curve"/>
      <point x="390" y="424"/>
      <point x="454" y="390"/>
      <point x="493" y="341" type="curve"/>
      <point x="556" y="416"/>
      <point x="489" y="347"/>
    </contour>
    <contour>
      <point x="612" y="0" type="curve"/>
      <point x="612" y="267"/>
      <point x="612" y="533"/>
      <point x="612" y="800" type="curve"/>
      <point x="456" y="800"/>
      <point x="612" y="800"/>
      <point x="456" y="800" type="curve"/>
      <point x="456" y="533"/>
      <point x="456" y="267"/>
      <point x="456" y="0" type="curve"/>
      <point x="612" y="0"/>
      <point x="456" y="0"/>
    </contour>
  </outline>
</glyph>
<glyph name="e" format="1">
  <advance width="607"/>
  <unicode hex="0065"/>
  <outline>
    <contour>
      <point x="108" y="225" type="curve"/>
      <point x="243" y="225"/>
      <point x="380" y="225"/>
      <point x="515" y="225" type="curve"/>
      <point x="578" y="225"/>
      <point x="515" y="225"/>
      <point x="578" y="225" type="curve"/>
      <point x="578" y="266"/>
      <point x="578" y="225"/>
      <point x="578" y="266" type="curve"/>
      <point x="578" y="272"/>
      <point x="578" y="277"/>
      <point x="578" y="283" type="curve"/>
      <point x="578" y="453"/>
      <point x="478" y="537"/>
      <point x="315" y="537" type="curve"/>
      <point x="140" y="537"/>
      <point x="32" y="452"/>
      <point x="32" y="278" type="curve"/>
      <point x="32" y="89"/>
      <point x="149" y="-5"/>
      <point x="338" y="-5" type="curve"/>
      <point x="426" y="-5"/>
      <point x="483" y="18"/>
      <point x="548" y="68" type="curve"/>
      <point x="471" y="154"/>
      <point x="548" y="68"/>
      <point x="471" y="154" type="curve"/>
      <point x="429" y="124"/>
      <point x="386" y="110"/>
      <point x="335" y="110" type="curve"/>
      <point x="230" y="110"/>
      <point x="177" y="171"/>
      <point x="177" y="278" type="curve"/>
      <point x="177" y="369"/>
      <point x="218" y="423"/>
      <point x="308" y="423" type="curve"/>
      <point x="389" y="423"/>
      <point x="435" y="384"/>
      <point x="435" y="303" type="curve"/>
      <point x="435" y="293"/>
      <point x="435" y="284"/>
      <point x="435" y="274" type="curve"/>
      <point x="448" y="285"/>
      <point x="460" y="298"/>
      <point x="474" y="308" type="curve"/>
      <point x="487" y="318"/>
      <point x="502" y="319"/>
      <point x="515" y="329" type="curve"/>
      <point x="380" y="329"/>
      <point x="243" y="329"/>
      <point x="108" y="329" type="curve"/>
      <point x="108" y="217"/>
      <point x="108" y="337"/>
    </contour>
    <contour>
      <point x="314" y="611" type="move" name="top"/>
    </contour>
    <contour>
      <point x="413" y="18" type="move" name="bottom"/>
    </contour>
  </outline>
</glyph>
<glyph name="f" format="1">
  <advance width="472"/>
  <unicode hex="0066"/>
  <outline>
    <contour>
      <point x="23" y="421" type="curve"/>
      <point x="445" y="421" type="line"/>
      <point x="445" y="533"/>
      <point x="445" y="421"/>
      <point x="445" y="533" type="curve"/>
      <point x="23" y="533" type="line"/>
      <point x="23" y="421"/>
      <point x="23" y="533"/>
    </contour>
    <contour>
      <point x="280" y="0" type="curve"/>
      <point x="280" y="604" type="line"/>
      <point x="279" y="657"/>
      <point x="300" y="695"/>
      <point x="352" y="695" type="curve"/>
      <point x="378" y="695"/>
      <point x="404" y="687"/>
      <point x="428" y="677" type="curve"/>
      <point x="489" y="767"/>
      <point x="428" y="677"/>
      <point x="489" y="767" type="curve"/>
      <point x="447" y="787"/>
      <point x="400" y="802"/>
      <point x="352" y="802" type="curve"/>
      <point x="219" y="802"/>
      <point x="128" y="731"/>
      <point x="130" y="604" type="curve"/>
      <point x="130" y="0" type="line"/>
      <point x="280" y="0"/>
      <point x="130" y="0"/>
    </contour>
  </outline>
</glyph>
<glyph name="g" format="1">
  <advance width="611"/>
  <unicode hex="0067"/>
  <outline>
    <contour>
      <point x="417" y="433" type="curve"/>
      <point x="588" y="501" type="line"/>
      <point x="530" y="610" type="line"/>
      <point x="340" y="516" type="line"/>
      <point x="416" y="433"/>
      <point x="340" y="517"/>
    </contour>
    <contour>
      <point x="194" y="336" type="curve"/>
      <point x="194" y="395"/>
      <point x="240" y="426"/>
      <point x="302" y="426" type="curve"/>
      <point x="364" y="426"/>
      <point x="405" y="393"/>
      <point x="405" y="335" type="curve"/>
      <point x="405" y="280"/>
      <point x="364" y="252"/>
      <point x="304" y="252" type="curve"/>
      <point x="243" y="252"/>
      <point x="194" y="278"/>
      <point x="194" y="336" type="curve"/>
      <point x="44" y="331"/>
      <point x="194" y="336"/>
      <point x="44" y="331" type="curve"/>
      <point x="44" y="203"/>
      <point x="154" y="140"/>
      <point x="294" y="140" type="curve"/>
      <point x="439" y="140"/>
      <point x="555" y="205"/>
      <point x="555" y="339" type="curve"/>
      <point x="555" y="471"/>
      <point x="444" y="538"/>
      <point x="302" y="538" type="curve"/>
      <point x="156" y="538"/>
      <point x="44" y="467"/>
      <point x="44" y="331" type="curve"/>
      <point x="194" y="336"/>
      <point x="44" y="331"/>
    </contour>
    <contour>
      <point x="163" y="247" type="curve"/>
      <point x="99" y="218"/>
      <point x="48" y="182"/>
      <point x="48" y="113" type="curve"/>
      <point x="48" y="2"/>
      <point x="160" y="-24"/>
      <point x="283" y="-34" type="curve"/>
      <point x="372" y="-40"/>
      <point x="465" y="-43"/>
      <point x="465" y="-117" type="curve"/>
      <point x="465" y="-180"/>
      <point x="386" y="-193"/>
      <point x="305" y="-193" type="curve"/>
      <point x="228" y="-193"/>
      <point x="158" y="-172"/>
      <point x="158" y="-102" type="curve"/>
      <point x="158" y="-46"/>
      <point x="188" y="-12"/>
      <point x="233" y="4" type="curve"/>
      <point x="158" y="71"/>
      <point x="233" y="4"/>
      <point x="158" y="71" type="curve"/>
      <point x="73" y="41"/>
      <point x="9" y="-11"/>
      <point x="9" y="-107" type="curve"/>
      <point x="9" y="-253"/>
      <point x="141" y="-304"/>
      <point x="298" y="-304" type="curve"/>
      <point x="461" y="-304"/>
      <point x="604" y="-259"/>
      <point x="601" y="-107" type="curve"/>
      <point x="601" y="38"/>
      <point x="462" y="63"/>
      <point x="310" y="73" type="curve"/>
      <point x="255" y="76"/>
      <point x="198" y="83"/>
      <point x="198" y="124" type="curve"/>
      <point x="198" y="150"/>
      <point x="212" y="165"/>
      <point x="235" y="177" type="curve"/>
      <point x="163" y="247"/>
      <point x="235" y="177"/>
    </contour>
    <contour>
      <point x="294" y="611" type="move" name="top"/>
    </contour>
  </outline>
</glyph>
<glyph name="h" format="1">
  <advance width="642"/>
  <unicode hex="0068"/>
  <outline>
    <contour>
      <point x="171" y="284" type="curve"/>
      <point x="200" y="365"/>
      <point x="262" y="424"/>
      <point x="337" y="424" type="curve"/>
      <point x="410" y="424"/>
      <point x="442" y="373"/>
      <point x="442" y="300" type="curve"/>
      <point x="442" y="198"/>
      <point x="442" y="103"/>
      <point x="442" y="0" type="curve"/>
      <point x="592" y="0"/>
      <point x="442" y="0"/>
      <point x="592" y="0" type="curve"/>
      <point x="592" y="106"/>
      <point x="592" y="212"/>
      <point x="592" y="318" type="curve"/>
      <point x="592" y="461"/>
      <point x="516" y="536"/>
      <point x="370" y="536" type="curve"/>
      <point x="254" y="536"/>
      <point x="157" y="459"/>
      <point x="112" y="338" type="curve"/>
      <point x="172" y="281"/>
      <point x="110" y="340"/>
    </contour>
    <contour>
      <point x="204" y="0" type="curve"/>
      <point x="204" y="267"/>
      <point x="204" y="533"/>
      <point x="204" y="800" type="curve"/>
      <point x="54" y="800"/>
      <point x="204" y="800"/>
      <point x="54" y="800" type="curve"/>
      <point x="54" y="533"/>
      <point x="54" y="267"/>
      <point x="54" y="0" type="curve"/>
      <point x="204" y="0"/>
      <point x="54" y="0"/>
    </contour>
  </outline>
</glyph>
<glyph name="i" format="1">
  <advance width="259"/>
  <unicode hex="0069"/>
  <outline>
    <contour>
      <point x="209" y="0" type="curve"/>
      <point x="209" y="178"/>
      <point x="209" y="355"/>
      <point x="209" y="533" type="curve"/>
      <point x="52" y="533"/>
      <point x="209" y="533"/>
      <point x="52" y="533" type="curve"/>
      <point x="52" y="355"/>
      <point x="52" y="178"/>
      <point x="52" y="0" type="curve"/>
      <point x="209" y="0"/>
      <point x="52" y="0"/>
    </contour>
    <contour>
      <point x="211" y="682" type="curve"/>
      <point x="211" y="732"/>
      <point x="175" y="755"/>
      <point x="127" y="755" type="curve"/>
      <point x="77" y="755"/>
      <point x="44" y="729"/>
      <point x="44" y="682" type="curve"/>
      <point x="211" y="682"/>
      <point x="45" y="682"/>
      <point x="211" y="682" type="curve"/>
      <point x="211" y="632"/>
      <point x="176" y="610"/>
      <point x="126" y="610" type="curve"/>
      <point x="77" y="610"/>
      <point x="44" y="634"/>
      <point x="44" y="682" type="curve"/>
      <point x="211" y="682"/>
      <point x="45" y="682"/>
    </contour>
    <contour>
      <point x="127" y="612" type="move" name="top"/>
    </contour>
    <contour>
      <point x="197" y="9" type="move" name="bottom"/>
    </contour>
  </outline>
</glyph>
<glyph name="j" format="1">
  <advance width="299"/>
  <unicode hex="006A"/>
  <outline>
    <contour>
      <point x="-18" y="-303" type="curve"/>
      <point x="-8" y="-304"/>
      <point x="5" y="-305"/>
      <point x="18" y="-305" type="curve"/>
      <point x="148" y="-305"/>
      <point x="249" y="-242"/>
      <point x="249" y="-119" type="curve"/>
      <point x="249" y="98"/>
      <point x="249" y="316"/>
      <point x="249" y="534" type="curve"/>
      <point x="100" y="534"/>
      <point x="249" y="534"/>
      <point x="100" y="534" type="curve"/>
      <point x="100" y="316"/>
      <point x="100" y="98"/>
      <point x="100" y="-119" type="curve"/>
      <point x="100" y="-167"/>
      <point x="73" y="-198"/>
      <point x="25" y="-198" type="curve"/>
      <point x="17" y="-198"/>
      <point x="9" y="-197"/>
      <point x="3" y="-196" type="curve"/>
      <point x="-18" y="-303"/>
      <point x="3" y="-196"/>
    </contour>
    <contour>
      <point x="258" y="679" type="curve"/>
      <point x="258" y="728"/>
      <point x="222" y="752"/>
      <point x="173" y="752" type="curve"/>
      <point x="124" y="752"/>
      <point x="91" y="726"/>
      <point x="91" y="679" type="curve"/>
      <point x="258" y="679"/>
      <point x="91" y="679"/>
      <point x="258" y="679" type="curve"/>
      <point x="258" y="628"/>
      <point x="222" y="607"/>
      <point x="173" y="607" type="curve"/>
      <point x="123" y="607"/>
      <point x="91" y="631"/>
      <point x="91" y="679" type="curve"/>
      <point x="258" y="679"/>
      <point x="91" y="679"/>
    </contour>
  </outline>
</glyph>
<glyph name="k" format="1">
  <advance width="644"/>
  <unicode hex="006B"/>
  <outline>
    <contour>
      <point x="204" y="0" type="curve"/>
      <point x="204" y="800" type="line"/>
      <point x="54" y="800"/>
      <point x="204" y="800"/>
      <point x="54" y="800" type="curve"/>
      <point x="54" y="533"/>
      <point x="54" y="267"/>
      <point x="54" y="0" type="curve"/>
      <point x="204" y="0"/>
      <point x="54" y="0"/>
    </contour>
    <contour>
      <point x="420" y="533" type="curve"/>
      <point x="170" y="275" type="line"/>
      <point x="336" y="275"/>
      <point x="179" y="275"/>
      <point x="344" y="275" type="curve"/>
      <point x="604" y="533" type="line"/>
      <point x="432" y="533"/>
      <point x="592" y="533"/>
    </contour>
    <contour>
      <point x="631" y="0" type="curve"/>
      <point x="344" y="275" type="line"/>
      <point x="179" y="275"/>
      <point x="335" y="275"/>
      <point x="170" y="275" type="curve"/>
      <point x="447" y="0" type="line"/>
      <point x="614" y="0"/>
      <point x="465" y="0"/>
    </contour>
    <contour>
      <point x="362" y="-2" type="move" name="bottom"/>
    </contour>
  </outline>
</glyph>
<glyph name="m" format="1">
  <advance width="947"/>
  <unicode hex="006D"/>
  <outline>
    <contour>
      <point x="516" y="265" type="curve"/>
      <point x="551" y="350"/>
      <point x="587" y="421"/>
      <point x="659" y="421" type="curve"/>
      <point x="729" y="421"/>
      <point x="746" y="380"/>
      <point x="746" y="307" type="curve"/>
      <point x="746" y="205"/>
      <point x="746" y="103"/>
      <point x="746" y="0" type="curve"/>
      <point x="896" y="0"/>
      <point x="746" y="0"/>
      <point x="896" y="0" type="curve"/>
      <point x="896" y="106"/>
      <point x="896" y="212"/>
      <point x="896" y="318" type="curve"/>
      <point x="896" y="464"/>
      <point x="846" y="538"/>
      <point x="701" y="538" type="curve"/>
      <point x="584" y="538"/>
      <point x="512" y="454"/>
      <point x="456" y="326" type="curve"/>
      <point x="518" y="266"/>
      <point x="454" y="324"/>
    </contour>
    <contour>
      <point x="171" y="268" type="curve"/>
      <point x="204" y="352"/>
      <point x="240" y="421"/>
      <point x="313" y="421" type="curve"/>
      <point x="383" y="421"/>
      <point x="400" y="380"/>
      <point x="400" y="307" type="curve"/>
      <point x="400" y="205"/>
      <point x="400" y="103"/>
      <point x="400" y="0" type="curve"/>
      <point x="550" y="0"/>
      <point x="400" y="0"/>
      <point x="550" y="0" type="curve"/>
      <point x="550" y="106"/>
      <point x="550" y="212"/>
      <point x="550" y="318" type="curve"/>
      <point x="550" y="464"/>
      <point x="501" y="538"/>
      <point x="356" y="538" type="curve"/>
      <point x="238" y="538"/>
      <point x="176" y="459"/>
      <point x="110" y="329" type="curve"/>
      <point x="173" y="269"/>
      <point x="108" y="327"/>
    </contour>
    <contour>
      <point x="204" y="0" type="curve"/>
      <point x="204" y="178"/>
      <point x="204" y="355"/>
      <point x="204" y="533" type="curve"/>
      <point x="54" y="533"/>
      <point x="204" y="533"/>
      <point x="54" y="533" type="curve"/>
      <point x="54" y="355"/>
      <point x="54" y="178"/>
      <point x="54" y="0" type="curve"/>
      <point x="204" y="0"/>
      <point x="54" y="0"/>
    </contour>
  </outline>
</glyph>
<glyph name="p" format="1">
  <advance width="670"/>
  <unicode hex="0070"/>
  <outline>
    <contour>
      <point x="161" y="290" type="curve"/>
      <point x="206" y="369"/>
      <point x="265" y="427"/>
      <point x="350" y="427" type="curve"/>
      <point x="444" y="427"/>
      <point x="488" y="359"/>
      <point x="488" y="262" type="curve"/>
      <point x="489" y="169"/>
      <point x="442" y="106"/>
      <point x="348" y="107" type="curve"/>
      <point x="275" y="107"/>
      <point x="217" y="133"/>
      <point x="163" y="180" type="curve"/>
      <point x="122" y="141"/>
      <point x="142" y="149"/>
      <point x="101" y="109" type="curve"/>
      <point x="173" y="36"/>
      <point x="260" y="-5"/>
      <point x="371" y="-5" type="curve"/>
      <point x="540" y="-5"/>
      <point x="638" y="103"/>
      <point x="637" y="268" type="curve"/>
      <point x="637" y="429"/>
      <point x="545" y="539"/>
      <point x="380" y="539" type="curve"/>
      <point x="259" y="539"/>
      <point x="174" y="474"/>
      <point x="110" y="375" type="curve"/>
      <point x="142" y="317"/>
      <point x="129" y="348"/>
    </contour>
    <contour>
      <point x="204" y="-300" type="curve"/>
      <point x="204" y="-22"/>
      <point x="204" y="255"/>
      <point x="204" y="533" type="curve"/>
      <point x="54" y="533"/>
      <point x="204" y="533"/>
      <point x="54" y="533" type="curve"/>
      <point x="54" y="255"/>
      <point x="54" y="-22"/>
      <point x="54" y="-300" type="curve"/>
      <point x="204" y="-300"/>
      <point x="54" y="-300"/>
    </contour>
  </outline>
</glyph>
<glyph name="q" format="1">
  <advance width="676"/>
  <unicode hex="0071"/>
  <outline>
    <contour>
      <point x="565" y="385" type="curve"/>
      <point x="494" y="479"/>
      <point x="412" y="538"/>
      <point x="296" y="538" type="curve"/>
      <point x="127" y="538"/>
      <point x="31" y="429"/>
      <point x="32" y="263" type="curve"/>
      <point x="32" y="98"/>
      <point x="133" y="-5"/>
      <point x="302" y="-5" type="curve"/>
      <point x="418" y="-5"/>
      <point x="500" y="56"/>
      <point x="580" y="143" type="curve"/>
      <point x="542" y="185"/>
      <point x="548" y="165"/>
      <point x="510" y="206" type="curve"/>
      <point x="462" y="141"/>
      <point x="403" y="107"/>
      <point x="324" y="107" type="curve"/>
      <point x="231" y="107"/>
      <point x="182" y="172"/>
      <point x="182" y="269" type="curve"/>
      <point x="182" y="363"/>
      <point x="232" y="424"/>
      <point x="322" y="424" type="curve"/>
      <point x="402" y="424"/>
      <point x="462" y="385"/>
      <point x="515" y="314" type="curve"/>
      <point x="544" y="359"/>
      <point x="536" y="340"/>
    </contour>
    <contour>
      <point x="622" y="-300" type="curve"/>
      <point x="622" y="-6"/>
      <point x="622" y="239"/>
      <point x="622" y="533" type="curve"/>
      <point x="521" y="533"/>
      <point x="567" y="533"/>
      <point x="466" y="533" type="curve"/>
      <point x="466" y="239"/>
      <point x="466" y="-6"/>
      <point x="466" y="-300" type="curve"/>
      <point x="567" y="-300"/>
      <point x="521" y="-300"/>
    </contour>
  </outline>
</glyph>
<glyph name="r" format="1">
  <advance width="409"/>
  <unicode hex="0072"/>
  <outline>
    <contour>
      <point x="204" y="0" type="curve"/>
      <point x="204" y="192"/>
      <point x="204" y="341"/>
      <point x="204" y="533" type="curve"/>
      <point x="106" y="533"/>
      <point x="153" y="533"/>
      <point x="54" y="533" type="curve"/>
      <point x="54" y="341"/>
      <point x="54" y="192"/>
      <point x="54" y="0" type="curve"/>
      <point x="153" y="0"/>
      <point x="106" y="0"/>
    </contour>
    <contour>
      <point x="168" y="266" type="curve"/>
      <point x="220" y="384"/>
      <point x="293" y="411"/>
      <point x="398" y="411" type="curve"/>
      <point x="398" y="493"/>
      <point x="398" y="456"/>
      <point x="398" y="538" type="curve"/>
      <point x="266" y="538"/>
      <point x="183" y="461"/>
      <point x="118" y="336" type="curve"/>
      <point x="151" y="292"/>
      <point x="135" y="310"/>
    </contour>
    <contour>
      <point x="177" y="611" type="move" name="top"/>
    </contour>
    <contour>
      <point x="162" y="18" type="move" name="bottom"/>
    </contour>
  </outline>
</glyph>
<glyph name="t" format="1">
  <advance width="440"/>
  <unicode hex="0074"/>
  <outline>
    <contour>
      <point x="30" y="421" type="curve"/>
      <point x="410" y="421" type="line"/>
      <point x="410" y="533"/>
      <point x="410" y="421"/>
      <point x="410" y="533" type="curve"/>
      <point x="30" y="533" type="line"/>
      <point x="30" y="421"/>
      <point x="30" y="533"/>
    </contour>
    <contour>
      <point x="386" y="127" type="curve"/>
      <point x="363" y="115"/>
      <point x="345" y="111"/>
      <point x="320" y="111" type="curve"/>
      <point x="280" y="111"/>
      <point x="265" y="135"/>
      <point x="265" y="176" type="curve"/>
      <point x="265" y="687" type="line"/>
      <point x="199" y="646"/>
      <point x="182" y="643"/>
      <point x="115" y="601" type="curve"/>
      <point x="115" y="170" type="line"/>
      <point x="115" y="52"/>
      <point x="186" y="-6"/>
      <point x="302" y="-6" type="curve"/>
      <point x="358" y="-6"/>
      <point x="396" y="9"/>
      <point x="434" y="29" type="curve"/>
      <point x="386" y="127"/>
      <point x="434" y="29"/>
    </contour>
    <contour>
      <point x="335" y="8" type="move" name="bottom"/>
    </contour>
  </outline>
</glyph>
<glyph name="v" format="1">
  <advance width="627"/>
  <unicode hex="0076"/>
  <outline>
    <contour>
      <point x="11" y="533" type="curve"/>
      <point x="84" y="355"/>
      <point x="156" y="178"/>
      <point x="228" y="0" type="curve"/>
      <point x="373" y="0"/>
      <point x="228" y="0"/>
      <point x="373" y="0" type="curve"/>
      <point x="302" y="178"/>
      <point x="235" y="355"/>
      <point x="163" y="533" type="curve"/>
      <point x="11" y="533"/>
      <point x="163" y="533"/>
    </contour>
    <contour>
      <point x="469" y="533" type="curve"/>
      <point x="246" y="0" type="line"/>
      <point x="392" y="0"/>
      <point x="246" y="0"/>
      <point x="392" y="0" type="curve"/>
      <point x="468" y="178"/>
      <point x="544" y="355"/>
      <point x="620" y="533" type="curve"/>
      <point x="469" y="533"/>
      <point x="620" y="533"/>
    </contour>
  </outline>
</glyph>
<glyph name="w" format="1">
  <advance width="956"/>
  <unicode hex="0077"/>
  <outline>
    <contour>
      <point x="342" y="0" type="curve"/>
      <point x="412" y="178"/>
      <point x="483" y="355"/>
      <point x="553" y="533" type="curve"/>
      <point x="411" y="533"/>
      <point x="553" y="533"/>
      <point x="411" y="533" type="curve"/>
      <point x="342" y="355"/>
      <point x="273" y="178"/>
      <point x="203" y="0" type="curve"/>
      <point x="342" y="0"/>
      <point x="203" y="0"/>
    </contour>
    <contour>
      <point x="804" y="533" type="curve"/>
      <point x="739" y="355"/>
      <point x="674" y="178"/>
      <point x="609" y="0" type="curve"/>
      <point x="748" y="0"/>
      <point x="609" y="0"/>
      <point x="748" y="0" type="curve"/>
      <point x="814" y="178"/>
      <point x="880" y="355"/>
      <point x="946" y="533" type="curve"/>
      <point x="804" y="533"/>
      <point x="946" y="533"/>
    </contour>
    <contour>
      <point x="418" y="533" type="curve"/>
      <point x="481" y="355"/>
      <point x="544" y="178"/>
      <point x="608" y="0" type="curve"/>
      <point x="747" y="0"/>
      <point x="608" y="0"/>
      <point x="747" y="0" type="curve"/>
      <point x="685" y="178"/>
      <point x="621" y="355"/>
      <point x="558" y="533" type="curve"/>
      <point x="418" y="533"/>
      <point x="558" y="533"/>
    </contour>
    <contour>
      <point x="12" y="533" type="curve"/>
      <point x="76" y="355"/>
      <point x="139" y="178"/>
      <point x="202" y="0" type="curve"/>
      <point x="341" y="0"/>
      <point x="202" y="0"/>
      <point x="341" y="0" type="curve"/>
      <point x="278" y="178"/>
      <point x="216" y="355"/>
      <point x="153" y="533" type="curve"/>
      <point x="12" y="533"/>
      <point x="153" y="533"/>
    </contour>
  </outline>
</glyph>
<glyph name="x" format="1">
  <advance width="659"/>
  <unicode hex="0078"/>
  <outline>
    <contour>
      <point x="649" y="0" type="curve"/>
      <point x="646" y="4"/>
      <point x="171" y="529"/>
      <point x="168" y="533" type="curve"/>
      <point x="-36" y="533"/>
      <point x="217" y="533"/>
      <point x="12" y="533" type="curve"/>
      <point x="15" y="529"/>
      <point x="479" y="4"/>
      <point x="482" y="0" type="curve"/>
      <point x="649" y="0"/>
      <point x="482" y="0"/>
    </contour>
    <contour>
      <point x="494" y="533" type="curve"/>
      <point x="491" y="529"/>
      <point x="10" y="4"/>
      <point x="7" y="0" type="curve"/>
      <point x="176" y="0"/>
      <point x="7" y="0"/>
      <point x="176" y="0" type="curve"/>
      <point x="179" y="4"/>
      <point x="651" y="529"/>
      <point x="654" y="533" type="curve"/>
      <point x="427" y="533"/>
      <point x="721" y="533"/>
    </contour>
  </outline>
</glyph>
<glyph name="y" format="1">
  <advance width="641"/>
  <unicode hex="0079"/>
  <outline>
    <contour>
      <point x="374" y="-15" type="curve"/>
      <point x="345" y="72"/>
      <point x="188" y="445"/>
      <point x="159" y="533" type="curve"/>
      <point x="6" y="533"/>
      <point x="159" y="533"/>
      <point x="6" y="533" type="curve"/>
      <point x="38" y="446"/>
      <point x="209" y="64"/>
      <point x="240" y="-23" type="curve"/>
      <point x="374" y="-23"/>
      <point x="240" y="-15"/>
    </contour>
    <contour>
      <point x="254" y="-300" type="curve"/>
      <point x="303" y="-169"/>
      <point x="592" y="402"/>
      <point x="641" y="533" type="curve"/>
      <point x="489" y="533"/>
      <point x="641" y="533"/>
      <point x="489" y="533" type="curve"/>
      <point x="440" y="402"/>
      <point x="150" y="-169"/>
      <point x="101" y="-300" type="curve"/>
      <point x="254" y="-300"/>
      <point x="101" y="-300"/>
    </contour>
    <contour>
      <point x="321" y="611" type="move" name="top"/>
    </contour>
  </outline>
</glyph>
<glyph name="z" format="1">
  <advance width="570"/>
  <unicode hex="007A"/>
  <outline>
    <contour>
      <point x="48" y="421" type="curve"/>
      <point x="189" y="421"/>
      <point x="324" y="421"/>
      <point x="465" y="421" type="curve"/>
      <point x="454" y="434"/>
      <point x="432" y="428"/>
      <point x="421" y="440" type="curve"/>
      <point x="413" y="451"/>
      <point x="411" y="467"/>
      <point x="402" y="478" type="curve"/>
      <point x="394" y="469"/>
      <point x="380" y="477"/>
      <point x="372" y="469" type="curve"/>
      <point x="29" y="112" type="line"/>
      <point x="29" y="55"/>
      <point x="29" y="112"/>
      <point x="29" y="55" type="curve"/>
      <point x="29" y="0"/>
      <point x="29" y="55"/>
      <point x="29" y="0" type="curve"/>
      <point x="83" y="0"/>
      <point x="29" y="0"/>
      <point x="83" y="0" type="curve"/>
      <point x="541" y="0"/>
      <point x="382" y="0"/>
      <point x="536" y="0" type="curve"/>
      <point x="536" y="112"/>
      <point x="536" y="0"/>
      <point x="536" y="112" type="curve"/>
      <point x="382" y="112"/>
      <point x="236" y="112"/>
      <point x="83" y="112" type="curve"/>
      <point x="94" y="104"/>
      <point x="110" y="104"/>
      <point x="121" y="96" type="curve"/>
      <point x="131" y="84"/>
      <point x="135" y="67"/>
      <point x="144" y="55" type="curve"/>
      <point x="152" y="63"/>
      <point x="156" y="57"/>
      <point x="163" y="64" type="curve"/>
      <point x="508" y="421" type="line"/>
      <point x="508" y="478"/>
      <point x="508" y="421"/>
      <point x="508" y="478" type="curve"/>
      <point x="508" y="533"/>
      <point x="508" y="478"/>
      <point x="508" y="533" type="curve"/>
      <point x="465" y="533"/>
      <point x="508" y="533"/>
      <point x="465" y="533" type="curve"/>
      <point x="324" y="533"/>
      <point x="189" y="533"/>
      <point x="48" y="533" type="curve"/>
      <point x="48" y="421"/>
      <point x="48" y="533"/>
    </contour>
    <contour>
      <point x="282" y="611" type="move" name="top"/>
    </contour>
  </outline>
</glyph>
<glyph name="braceleft" format="1">
  <advance width="318"/>
  <unicode hex="007B"/>
  <outline>
    <contour>
      <point x="275" y="4" type="curve"/>
      <point x="237" y="4"/>
      <point x="223" y="29"/>
      <point x="223" y="67" type="curve"/>
      <point x="223" y="117"/>
      <point x="223" y="168"/>
      <point x="223" y="219" type="curve"/>
      <point x="223" y="331"/>
      <point x="148" y="400"/>
      <point x="35" y="400" type="curve"/>
      <point x="35" y="282"/>
      <point x="35" y="400"/>
      <point x="35" y="282" type="curve"/>
      <point x="69" y="282"/>
      <point x="86" y="264"/>
      <point x="86" y="230" type="curve"/>
      <point x="86" y="177"/>
      <point x="86" y="125"/>
      <point x="86" y="73" type="curve"/>
      <point x="86" y="-41"/>
      <point x="160" y="-108"/>
      <point x="275" y="-108" type="curve"/>
      <point x="275" y="4"/>
      <point x="275" y="-108"/>
    </contour>
    <contour>
      <point x="275" y="790" type="curve"/>
      <point x="160" y="790"/>
      <point x="86" y="726"/>
      <point x="86" y="613" type="curve"/>
      <point x="86" y="559"/>
      <point x="86" y="503"/>
      <point x="86" y="449" type="curve"/>
      <point x="86" y="416"/>
      <point x="68" y="400"/>
      <point x="35" y="400" type="curve"/>
      <point x="35" y="282"/>
      <point x="35" y="400"/>
      <point x="35" y="282" type="curve"/>
      <point x="149" y="282"/>
      <point x="222" y="351"/>
      <point x="222" y="466" type="curve"/>
      <point x="222" y="515"/>
      <point x="222" y="564"/>
      <point x="222" y="613" type="curve"/>
      <point x="222" y="652"/>
      <point x="237" y="677"/>
      <point x="275" y="677" type="curve"/>
      <point x="275" y="790"/>
      <point x="275" y="677"/>
    </contour>
  </outline>
</glyph>
<glyph name="braceright" format="1">
  <advance width="318"/>
  <unicode hex="007D"/>
  <outline>
    <contour>
      <point x="41" y="-108" type="curve"/>
      <point x="156" y="-108"/>
      <point x="230" y="-41"/>
      <point x="230" y="73" type="curve"/>
      <point x="230" y="125"/>
      <point x="230" y="177"/>
      <point x="230" y="230" type="curve"/>
      <point x="230" y="264"/>
      <point x="247" y="282"/>
      <point x="282" y="282" type="curve"/>
      <point x="282" y="400"/>
      <point x="282" y="282"/>
      <point x="282" y="400" type="curve"/>
      <point x="167" y="400"/>
      <point x="94" y="331"/>
      <point x="94" y="219" type="curve"/>
      <point x="94" y="168"/>
      <point x="94" y="117"/>
      <point x="94" y="67" type="curve"/>
      <point x="94" y="29"/>
      <point x="78" y="4"/>
      <point x="41" y="4" type="curve"/>
      <point x="41" y="-108"/>
      <point x="41" y="4"/>
    </contour>
    <contour>
      <point x="41" y="677" type="curve"/>
      <point x="79" y="677"/>
      <point x="94" y="652"/>
      <point x="94" y="613" type="curve"/>
      <point x="94" y="564"/>
      <point x="94" y="515"/>
      <point x="94" y="466" type="curve"/>
      <point x="94" y="351"/>
      <point x="166" y="282"/>
      <point x="282" y="282" type="curve"/>
      <point x="282" y="400"/>
      <point x="282" y="282"/>
      <point x="282" y="400" type="curve"/>
      <point x="248" y="400"/>
      <point x="230" y="416"/>
      <point x="230" y="449" type="curve"/>
      <point x="230" y="503"/>
      <point x="230" y="559"/>
      <point x="230" y="613" type="curve"/>
      <point x="230" y="726"/>
      <point x="156" y="790"/>
      <point x="41" y="790" type="curve"/>
      <point x="41" y="677"/>
      <point x="41" y="790"/>
    </contour>
  </outline>
</glyph>
<glyph name="asciitilde" format="1">
  <advance width="697"/>
  <unicode hex="007E"/>
  <outline>
    <contour>
      <point x="540" y="380" type="curve"/>
      <point x="524" y="339"/>
      <point x="509" y="307"/>
      <point x="475" y="307" type="curve"/>
      <point x="439" y="307"/>
      <point x="419" y="314"/>
      <point x="389" y="333" type="curve"/>
      <point x="334" y="374"/>
      <point x="297" y="394"/>
      <point x="228" y="394" type="curve"/>
      <point x="126" y="394"/>
      <point x="72" y="345"/>
      <point x="40" y="246" type="curve"/>
      <point x="83" y="228"/>
      <point x="108" y="218"/>
      <point x="151" y="201" type="curve"/>
      <point x="166" y="245"/>
      <point x="184" y="278"/>
      <point x="223" y="278" type="curve"/>
      <point x="255" y="278"/>
      <point x="272" y="271"/>
      <point x="298" y="253" type="curve"/>
      <point x="357" y="212"/>
      <point x="395" y="193"/>
      <point x="468" y="192" type="curve"/>
      <point x="568" y="192"/>
      <point x="617" y="240"/>
      <point x="656" y="335" type="curve"/>
      <point x="611" y="353"/>
      <point x="586" y="362"/>
    </contour>
  </outline>
</glyph>
<glyph name="exclamdown" format="1">
  <advance width="265"/>
  <unicode hex="00A1"/>
  <outline>
    <contour>
      <point x="70" y="302" type="line"/>
      <point x="54" y="-191" type="line"/>
      <point x="213" y="-191" type="line"/>
      <point x="199" y="302" type="line"/>
    </contour>
    <contour>
      <point x="51" y="469" type="curve"/>
      <point x="51" y="419"/>
      <point x="86" y="396"/>
      <point x="135" y="395" type="curve"/>
      <point x="184" y="395"/>
      <point x="218" y="421"/>
      <point x="218" y="468" type="curve"/>
      <point x="51" y="469"/>
      <point x="218" y="468"/>
      <point x="51" y="469" type="curve"/>
      <point x="51" y="519"/>
      <point x="86" y="541"/>
      <point x="136" y="540" type="curve"/>
      <point x="186" y="540"/>
      <point x="218" y="516"/>
      <point x="218" y="468" type="curve"/>
      <point x="51" y="469"/>
      <point x="218" y="468"/>
    </contour>
  </outline>
</glyph>
<glyph name="cent" format="1">
  <advance width="681"/>
  <unicode hex="00A2"/>
  <outline>
    <contour>
      <point x="443" y="-53" type="curve"/>
      <point x="443" y="-13"/>
      <point x="443" y="27"/>
      <point x="443" y="67" type="curve"/>
      <point x="293" y="67"/>
      <point x="443" y="67"/>
      <point x="293" y="67" type="curve"/>
      <point x="293" y="27"/>
      <point x="293" y="-13"/>
      <point x="293" y="-53" type="curve"/>
      <point x="443" y="-53"/>
      <point x="293" y="-53"/>
    </contour>
    <contour>
      <point x="315" y="778" type="curve"/>
      <point x="315" y="742"/>
      <point x="315" y="706"/>
      <point x="315" y="670" type="curve"/>
      <point x="465" y="670"/>
      <point x="315" y="670"/>
      <point x="465" y="670" type="curve"/>
      <point x="465" y="706"/>
      <point x="465" y="742"/>
      <point x="465" y="778" type="curve"/>
      <point x="315" y="778"/>
      <point x="465" y="778"/>
    </contour>
    <contour>
      <point x="652" y="615" type="curve"/>
      <point x="567" y="668"/>
      <point x="498" y="687"/>
      <point x="400" y="687" type="curve"/>
      <point x="182" y="687"/>
      <point x="32" y="573"/>
      <point x="32" y="363" type="curve"/>
      <point x="32" y="164"/>
      <point x="159" y="45"/>
      <point x="360" y="45" type="curve"/>
      <point x="476" y="45"/>
      <point x="559" y="70"/>
      <point x="652" y="139" type="curve"/>
      <point x="569" y="232"/>
      <point x="652" y="139"/>
      <point x="569" y="232" type="curve"/>
      <point x="498" y="187"/>
      <point x="449" y="162"/>
      <point x="374" y="162" type="curve"/>
      <point x="252" y="162"/>
      <point x="182" y="243"/>
      <point x="182" y="369" type="curve"/>
      <point x="182" y="495"/>
      <point x="263" y="570"/>
      <point x="386" y="570" type="curve"/>
      <point x="458" y="570"/>
      <point x="508" y="554"/>
      <point x="579" y="516" type="curve"/>
      <point x="652" y="615"/>
      <point x="579" y="516"/>
    </contour>
  </outline>
</glyph>
<glyph name="sterling" format="1">
  <advance width="525"/>
  <unicode hex="00A3"/>
  <outline>
    <contour>
      <point x="464" y="112" type="curve"/>
      <point x="324" y="112"/>
      <point x="180" y="112"/>
      <point x="41" y="112" type="curve"/>
      <point x="41" y="0"/>
      <point x="41" y="112"/>
      <point x="41" y="0" type="curve"/>
      <point x="180" y="0"/>
      <point x="324" y="0"/>
      <point x="464" y="0" type="curve"/>
      <point x="464" y="112"/>
      <point x="464" y="0"/>
    </contour>
    <contour>
      <point x="411" y="431" type="curve"/>
      <point x="300" y="431"/>
      <point x="183" y="431"/>
      <point x="72" y="431" type="curve"/>
      <point x="72" y="319"/>
      <point x="72" y="431"/>
      <point x="72" y="319" type="curve"/>
      <point x="183" y="319"/>
      <point x="300" y="319"/>
      <point x="411" y="319" type="curve"/>
      <point x="411" y="431"/>
      <point x="411" y="319"/>
    </contour>
    <contour>
      <point x="500" y="661" type="curve"/>
      <point x="446" y="707"/>
      <point x="400" y="720"/>
      <point x="334" y="720" type="curve"/>
      <point x="154" y="720"/>
      <point x="73" y="559"/>
      <point x="120" y="363" type="curve"/>
      <point x="152" y="232"/>
      <point x="131" y="112"/>
      <point x="41" y="112" type="curve"/>
      <point x="41" y="0"/>
      <point x="41" y="112"/>
      <point x="41" y="0" type="curve"/>
      <point x="234" y="0"/>
      <point x="312" y="176"/>
      <point x="262" y="386" type="curve"/>
      <point x="234" y="505"/>
      <point x="251" y="614"/>
      <point x="327" y="614" type="curve"/>
      <point x="367" y="614"/>
      <point x="393" y="600"/>
      <point x="427" y="578" type="curve"/>
      <point x="500" y="661"/>
      <point x="427" y="578"/>
    </contour>
  </outline>
</glyph>
<glyph name="currency" format="1">
  <advance width="683"/>
  <unicode hex="00A4"/>
  <outline>
    <contour>
      <point x="260" y="317" type="curve"/>
      <point x="260" y="366"/>
      <point x="289" y="399"/>
      <point x="339" y="399" type="curve"/>
      <point x="393" y="399"/>
      <point x="422" y="369"/>
      <point x="422" y="316" type="curve"/>
      <point x="422" y="266"/>
      <point x="396" y="229"/>
      <point x="347" y="229" type="curve"/>
      <point x="291" y="229"/>
      <point x="260" y="262"/>
      <point x="260" y="317" type="curve"/>
      <point x="110" y="317"/>
      <point x="264" y="317"/>
      <point x="114" y="317" type="curve"/>
      <point x="114" y="187"/>
      <point x="208" y="117"/>
      <point x="344" y="117" type="curve"/>
      <point x="478" y="117"/>
      <point x="570" y="191"/>
      <point x="570" y="320" type="curve"/>
      <point x="570" y="444"/>
      <point x="481" y="511"/>
      <point x="352" y="511" type="curve"/>
      <point x="213" y="511"/>
      <point x="114" y="446"/>
      <point x="114" y="317" type="curve"/>
      <point x="264" y="317"/>
      <point x="110" y="317"/>
    </contour>
    <contour>
      <point x="477" y="313" type="line"/>
      <point x="644" y="467" type="line"/>
      <point x="531" y="580" type="line"/>
      <point x="378" y="412" type="line"/>
    </contour>
    <contour>
      <point x="381" y="223" type="line"/>
      <point x="534" y="56" type="line"/>
      <point x="647" y="168" type="line"/>
      <point x="480" y="322" type="line"/>
    </contour>
    <contour>
      <point x="204" y="323" type="line"/>
      <point x="37" y="170" type="line"/>
      <point x="150" y="57" type="line"/>
      <point x="303" y="224" type="line"/>
    </contour>
    <contour>
      <point x="307" y="414" type="line"/>
      <point x="153" y="581" type="line"/>
      <point x="40" y="468" type="line"/>
      <point x="208" y="315" type="line"/>
    </contour>
  </outline>
</glyph>
<glyph name="yen" format="1">
  <advance width="709"/>
  <unicode hex="00A5"/>
  <outline>
    <contour>
      <point x="589" y="437" type="curve"/>
      <point x="516" y="437"/>
      <point x="443" y="437"/>
      <point x="370" y="437" type="curve"/>
      <point x="370" y="313"/>
      <point x="370" y="437"/>
      <point x="370" y="313" type="curve"/>
      <point x="443" y="313"/>
      <point x="516" y="313"/>
      <point x="589" y="313" type="curve"/>
      <point x="589" y="437"/>
      <point x="589" y="313"/>
    </contour>
    <contour>
      <point x="339" y="437" type="curve"/>
      <point x="268" y="437"/>
      <point x="196" y="437"/>
      <point x="124" y="437" type="curve"/>
      <point x="124" y="313"/>
      <point x="124" y="437"/>
      <point x="124" y="313" type="curve"/>
      <point x="196" y="313"/>
      <point x="268" y="313"/>
      <point x="339" y="313" type="curve"/>
      <point x="339" y="437"/>
      <point x="339" y="313"/>
    </contour>
    <contour>
      <point x="589" y="279" type="curve"/>
      <point x="434" y="279"/>
      <point x="279" y="279"/>
      <point x="124" y="279" type="curve"/>
      <point x="124" y="156"/>
      <point x="124" y="279"/>
      <point x="124" y="156" type="curve"/>
      <point x="279" y="156"/>
      <point x="434" y="156"/>
      <point x="589" y="156" type="curve"/>
      <point x="589" y="279"/>
      <point x="589" y="156"/>
    </contour>
    <contour>
      <point x="23" y="722" type="curve"/>
      <point x="99" y="601"/>
      <point x="199" y="460"/>
      <point x="275" y="337" type="curve"/>
      <point x="426" y="337"/>
      <point x="264" y="337"/>
      <point x="416" y="337" type="curve"/>
      <point x="339" y="467"/>
      <point x="263" y="593"/>
      <point x="184" y="722" type="curve"/>
      <point x="50" y="722"/>
      <point x="157" y="722"/>
    </contour>
    <contour>
      <point x="535" y="722" type="curve"/>
      <point x="451" y="592"/>
      <point x="370" y="467"/>
      <point x="285" y="337" type="curve"/>
      <point x="437" y="337"/>
      <point x="280" y="337"/>
      <point x="431" y="337" type="curve"/>
      <point x="511" y="460"/>
      <point x="608" y="601"/>
      <point x="689" y="722" type="curve"/>
      <point x="554" y="722"/>
      <point x="670" y="722"/>
    </contour>
    <contour>
      <point x="435" y="0" type="curve"/>
      <point x="435" y="115"/>
      <point x="435" y="227"/>
      <point x="435" y="342" type="curve"/>
      <point x="271" y="342"/>
      <point x="435" y="342"/>
      <point x="271" y="342" type="curve"/>
      <point x="271" y="227"/>
      <point x="271" y="115"/>
      <point x="271" y="0" type="curve"/>
      <point x="435" y="0"/>
      <point x="271" y="0"/>
    </contour>
  </outline>
</glyph>
<glyph name="section" format="1">
  <advance width="552"/>
  <unicode hex="00A7"/>
  <outline>
    <contour>
      <point x="457" y="701" type="curve"/>
      <point x="395" y="733"/>
      <point x="349" y="748"/>
      <point x="281" y="748" type="curve"/>
      <point x="157" y="748"/>
      <point x="67" y="700"/>
      <point x="67" y="593" type="curve"/>
      <point x="67" y="499"/>
      <point x="133" y="453"/>
      <point x="227" y="425" type="curve"/>
      <point x="293" y="405"/>
      <point x="373" y="404"/>
      <point x="373" y="356" type="curve"/>
      <point x="373" y="306"/>
      <point x="326" y="292"/>
      <point x="269" y="282" type="curve"/>
      <point x="357" y="193"/>
      <point x="269" y="282"/>
      <point x="357" y="193" type="curve"/>
      <point x="457" y="214"/>
      <point x="522" y="265"/>
      <point x="522" y="361" type="curve"/>
      <point x="521" y="474"/>
      <point x="418" y="500"/>
      <point x="302" y="531" type="curve"/>
      <point x="258" y="544"/>
      <point x="213" y="553"/>
      <point x="213" y="593" type="curve"/>
      <point x="213" y="623"/>
      <point x="239" y="636"/>
      <point x="274" y="636" type="curve"/>
      <point x="320" y="636"/>
      <point x="348" y="628"/>
      <point x="395" y="607" type="curve"/>
      <point x="457" y="701"/>
      <point x="395" y="607"/>
    </contour>
    <contour>
      <point x="194" y="528" type="curve"/>
      <point x="100" y="503"/>
      <point x="32" y="459"/>
      <point x="32" y="366" type="curve"/>
      <point x="32" y="260"/>
      <point x="119" y="223"/>
      <point x="228" y="193" type="curve"/>
      <point x="282" y="178"/>
      <point x="344" y="172"/>
      <point x="344" y="130" type="curve"/>
      <point x="344" y="98"/>
      <point x="315" y="86"/>
      <point x="278" y="86" type="curve"/>
      <point x="227" y="86"/>
      <point x="195" y="98"/>
      <point x="142" y="124" type="curve"/>
      <point x="70" y="38"/>
      <point x="142" y="124"/>
      <point x="70" y="38" type="curve"/>
      <point x="137" y="-9"/>
      <point x="194" y="-26"/>
      <point x="273" y="-26" type="curve"/>
      <point x="396" y="-26"/>
      <point x="492" y="20"/>
      <point x="492" y="133" type="curve"/>
      <point x="491" y="229"/>
      <point x="420" y="274"/>
      <point x="323" y="300" type="curve"/>
      <point x="257" y="319"/>
      <point x="181" y="320"/>
      <point x="181" y="373" type="curve"/>
      <point x="181" y="416"/>
      <point x="220" y="431"/>
      <point x="268" y="444" type="curve"/>
      <point x="194" y="528"/>
      <point x="268" y="444"/>
    </contour>
  </outline>
</glyph>
<glyph name="dieresis" format="1">
  <advance width="420"/>
  <unicode hex="00A8"/>
  <outline>
    <contour>
      <point x="187" y="617" type="curve"/>
      <point x="187" y="666"/>
      <point x="150" y="690"/>
      <point x="102" y="690" type="curve"/>
      <point x="53" y="690"/>
      <point x="20" y="664"/>
      <point x="20" y="617" type="curve"/>
      <point x="186" y="617"/>
      <point x="20" y="617"/>
      <point x="187" y="617" type="curve"/>
      <point x="187" y="567"/>
      <point x="151" y="545"/>
      <point x="101" y="545" type="curve"/>
      <point x="52" y="545"/>
      <point x="20" y="569"/>
      <point x="20" y="617" type="curve"/>
      <point x="186" y="617"/>
      <point x="20" y="617"/>
    </contour>
    <contour>
      <point x="406" y="617" type="curve"/>
      <point x="406" y="666"/>
      <point x="370" y="690"/>
      <point x="322" y="690" type="curve"/>
      <point x="273" y="690"/>
      <point x="239" y="664"/>
      <point x="239" y="617" type="curve"/>
      <point x="406" y="617"/>
      <point x="240" y="617"/>
      <point x="406" y="617" type="curve"/>
      <point x="406" y="567"/>
      <point x="371" y="545"/>
      <point x="321" y="545" type="curve"/>
      <point x="272" y="545"/>
      <point x="239" y="569"/>
      <point x="239" y="617" type="curve"/>
      <point x="406" y="617"/>
      <point x="240" y="617"/>
    </contour>
    <contour>
      <point x="213" y="549" type="move" name="_top"/>
    </contour>
  </outline>
</glyph>
<glyph name="copyright" format="1">
  <advance width="823"/>
  <unicode hex="00A9"/>
  <outline>
    <contour>
      <point x="154" y="324" type="curve"/>
      <point x="154" y="470"/>
      <point x="263" y="555"/>
      <point x="414" y="555" type="curve"/>
      <point x="561" y="555"/>
      <point x="667" y="467"/>
      <point x="667" y="322" type="curve"/>
      <point x="667" y="182"/>
      <point x="565" y="96"/>
      <point x="422" y="96" type="curve"/>
      <point x="271" y="96"/>
      <point x="154" y="178"/>
      <point x="154" y="324" type="curve"/>
      <point x="33" y="324"/>
      <point x="155" y="324"/>
      <point x="35" y="324" type="curve"/>
      <point x="35" y="120"/>
      <point x="201" y="6"/>
      <point x="417" y="6" type="curve"/>
      <point x="627" y="6"/>
      <point x="785" y="124"/>
      <point x="785" y="326" type="curve"/>
      <point x="785" y="528"/>
      <point x="624" y="645"/>
      <point x="414" y="645" type="curve"/>
      <point x="200" y="645"/>
      <point x="35" y="529"/>
      <point x="35" y="324" type="curve"/>
      <point x="155" y="324"/>
      <point x="33" y="324"/>
    </contour>
    <contour>
      <point x="576" y="451" type="curve"/>
      <point x="537" y="492"/>
      <point x="481" y="514"/>
      <point x="420" y="514" type="curve"/>
      <point x="290" y="514"/>
      <point x="203" y="447"/>
      <point x="203" y="323" type="curve"/>
      <point x="203" y="204"/>
      <point x="281" y="138"/>
      <point x="402" y="138" type="curve"/>
      <point x="472" y="138"/>
      <point x="521" y="149"/>
      <point x="573" y="193" type="curve"/>
      <point x="514" y="258"/>
      <point x="573" y="193"/>
      <point x="514" y="258" type="curve"/>
      <point x="474" y="237"/>
      <point x="446" y="228"/>
      <point x="408" y="228" type="curve"/>
      <point x="349" y="228"/>
      <point x="319" y="267"/>
      <point x="319" y="327" type="curve"/>
      <point x="319" y="388"/>
      <point x="353" y="424"/>
      <point x="415" y="424" type="curve"/>
      <point x="441" y="424"/>
      <point x="474" y="417"/>
      <point x="509" y="396" type="curve"/>
      <point x="580" y="453"/>
      <point x="505" y="394"/>
    </contour>
  </outline>
</glyph>
<glyph name="ordfeminine" format="1">
  <advance width="422"/>
  <unicode hex="00AA"/>
  <outline>
    <contour>
      <point x="373" y="425" type="curve"/>
      <point x="373" y="506"/>
      <point x="373" y="585"/>
      <point x="373" y="666" type="curve"/>
      <point x="373" y="754"/>
      <point x="302" y="779"/>
      <point x="211" y="779" type="curve"/>
      <point x="143" y="779"/>
      <point x="93" y="759"/>
      <point x="54" y="729" type="curve"/>
      <point x="91" y="667"/>
      <point x="58" y="727"/>
      <point x="95" y="664" type="curve"/>
      <point x="118" y="684"/>
      <point x="151" y="704"/>
      <point x="198" y="704" type="curve"/>
      <point x="240" y="704"/>
      <point x="274" y="692"/>
      <point x="274" y="651" type="curve"/>
      <point x="274" y="575"/>
      <point x="274" y="500"/>
      <point x="274" y="425" type="curve"/>
      <point x="373" y="425"/>
      <point x="275" y="425"/>
    </contour>
    <contour>
      <point x="321" y="655" type="curve"/>
      <point x="268" y="649"/>
      <point x="235" y="647"/>
      <point x="181" y="641" type="curve"/>
      <point x="95" y="632"/>
      <point x="32" y="612"/>
      <point x="32" y="533" type="curve"/>
      <point x="32" y="456"/>
      <point x="86" y="422"/>
      <point x="169" y="422" type="curve"/>
      <point x="251" y="422"/>
      <point x="288" y="467"/>
      <point x="346" y="526" type="curve"/>
      <point x="299" y="565"/>
      <point x="346" y="526"/>
      <point x="298" y="564" type="curve"/>
      <point x="265" y="525"/>
      <point x="237" y="495"/>
      <point x="188" y="495" type="curve"/>
      <point x="151" y="495"/>
      <point x="129" y="506"/>
      <point x="129" y="535" type="curve"/>
      <point x="129" y="562"/>
      <point x="154" y="572"/>
      <point x="181" y="575" type="curve"/>
      <point x="238" y="581"/>
      <point x="268" y="585"/>
      <point x="326" y="592" type="curve"/>
      <point x="321" y="655"/>
      <point x="326" y="592"/>
    </contour>
  </outline>
</glyph>
<glyph name="guillemotleft" format="1">
  <advance width="556"/>
  <unicode hex="00AB"/>
  <outline>
    <contour>
      <point x="254" y="484" type="curve"/>
      <point x="196" y="450"/>
      <point x="93" y="387"/>
      <point x="35" y="353" type="curve"/>
      <point x="35" y="230"/>
      <point x="35" y="344"/>
      <point x="35" y="221" type="curve"/>
      <point x="93" y="255"/>
      <point x="196" y="322"/>
      <point x="254" y="356" type="curve"/>
      <point x="254" y="479"/>
      <point x="254" y="361"/>
    </contour>
    <contour>
      <point x="254" y="221" type="curve"/>
      <point x="196" y="255"/>
      <point x="93" y="319"/>
      <point x="35" y="353" type="curve"/>
      <point x="35" y="230"/>
      <point x="35" y="344"/>
      <point x="35" y="221" type="curve"/>
      <point x="93" y="187"/>
      <point x="196" y="127"/>
      <point x="254" y="93" type="curve"/>
      <point x="254" y="216"/>
      <point x="254" y="98"/>
    </contour>
    <contour>
      <point x="502" y="484" type="curve"/>
      <point x="444" y="450"/>
      <point x="341" y="387"/>
      <point x="283" y="353" type="curve"/>
      <point x="283" y="230"/>
      <point x="283" y="344"/>
      <point x="283" y="221" type="curve"/>
      <point x="341" y="255"/>
      <point x="444" y="322"/>
      <point x="502" y="356" type="curve"/>
      <point x="502" y="479"/>
      <point x="502" y="361"/>
    </contour>
    <contour>
      <point x="502" y="221" type="curve"/>
      <point x="444" y="255"/>
      <point x="341" y="319"/>
      <point x="283" y="353" type="curve"/>
      <point x="283" y="230"/>
      <point x="283" y="344"/>
      <point x="283" y="221" type="curve"/>
      <point x="341" y="187"/>
      <point x="444" y="127"/>
      <point x="502" y="93" type="curve"/>
      <point x="502" y="216"/>
      <point x="502" y="98"/>
    </contour>
  </outline>
</glyph>
<glyph name="logicalnot" format="1">
  <advance width="630"/>
  <unicode hex="00AC"/>
  <outline>
    <contour>
      <point x="53" y="253" type="curve"/>
      <point x="575" y="253" type="line"/>
      <point x="575" y="375"/>
      <point x="575" y="253"/>
      <point x="575" y="375" type="curve"/>
      <point x="53" y="375" type="line"/>
      <point x="53" y="253"/>
      <point x="53" y="375"/>
    </contour>
    <contour>
      <point x="575" y="139" type="curve"/>
      <point x="575" y="375" type="line"/>
      <point x="425" y="375"/>
      <point x="580" y="375"/>
      <point x="431" y="375" type="curve"/>
      <point x="431" y="139" type="line"/>
      <point x="580" y="139"/>
      <point x="425" y="139"/>
    </contour>
  </outline>
</glyph>
<glyph name="registered" format="1">
  <advance width="826"/>
  <unicode hex="00AE"/>
  <outline>
    <contour>
      <point x="145" y="323" type="curve"/>
      <point x="145" y="482"/>
      <point x="255" y="564"/>
      <point x="417" y="564" type="curve"/>
      <point x="577" y="564"/>
      <point x="682" y="479"/>
      <point x="682" y="321" type="curve"/>
      <point x="682" y="168"/>
      <point x="580" y="85"/>
      <point x="425" y="85" type="curve"/>
      <point x="260" y="85"/>
      <point x="145" y="163"/>
      <point x="145" y="323" type="curve"/>
      <point x="105" y="323"/>
      <point x="78" y="323"/>
      <point x="39" y="323" type="curve"/>
      <point x="39" y="110"/>
      <point x="197" y="5"/>
      <point x="421" y="5" type="curve"/>
      <point x="638" y="5"/>
      <point x="788" y="115"/>
      <point x="788" y="325" type="curve"/>
      <point x="788" y="537"/>
      <point x="636" y="644"/>
      <point x="417" y="644" type="curve"/>
      <point x="194" y="644"/>
      <point x="39" y="537"/>
      <point x="39" y="323" type="curve"/>
      <point x="78" y="323"/>
      <point x="105" y="323"/>
    </contour>
    <contour>
      <point x="363" y="318" type="curve"/>
      <point x="388" y="288"/>
      <point x="447" y="171"/>
      <point x="472" y="141" type="curve"/>
      <point x="535" y="141"/>
      <point x="516" y="140"/>
      <point x="588" y="140" type="curve"/>
      <point x="563" y="173"/>
      <point x="505" y="281"/>
      <point x="481" y="312" type="curve"/>
      <point x="348" y="312"/>
      <point x="496" y="318"/>
    </contour>
    <contour>
      <point x="387" y="141" type="curve"/>
      <point x="387" y="250"/>
      <point x="387" y="399"/>
      <point x="387" y="508" type="curve"/>
      <point x="318" y="508"/>
      <point x="344" y="509"/>
      <point x="272" y="509" type="curve"/>
      <point x="272" y="400"/>
      <point x="272" y="250"/>
      <point x="272" y="141" type="curve"/>
      <point x="346" y="141"/>
      <point x="312" y="141"/>
    </contour>
    <contour>
      <point x="335" y="268" type="curve"/>
      <point x="354" y="268"/>
      <point x="374" y="268"/>
      <point x="393" y="268" type="curve"/>
      <point x="494" y="268"/>
      <point x="567" y="297"/>
      <point x="567" y="392" type="curve"/>
      <point x="567" y="472"/>
      <point x="503" y="509"/>
      <point x="418" y="509" type="curve"/>
      <point x="409" y="509"/>
      <point x="348" y="509"/>
      <point x="340" y="509" type="curve"/>
      <point x="273" y="438"/>
      <point x="392" y="509"/>
      <point x="272" y="419" type="curve"/>
      <point x="313" y="419"/>
      <point x="355" y="419"/>
      <point x="395" y="419" type="curve"/>
      <point x="427" y="419"/>
      <point x="454" y="415"/>
      <point x="454" y="388" type="curve"/>
      <point x="454" y="364"/>
      <point x="435" y="358"/>
      <point x="410" y="358" type="curve"/>
      <point x="385" y="358"/>
      <point x="359" y="358"/>
      <point x="335" y="358" type="curve"/>
      <point x="335" y="268"/>
      <point x="335" y="358"/>
    </contour>
  </outline>
</glyph>
<glyph name="degree" format="1">
  <advance width="488"/>
  <unicode hex="00B0"/>
  <outline>
    <contour>
      <point x="459" y="548" type="curve"/>
      <point x="459" y="672"/>
      <point x="372" y="742"/>
      <point x="244" y="742" type="curve"/>
      <point x="117" y="742"/>
      <point x="30" y="673"/>
      <point x="30" y="549" type="curve"/>
      <point x="124" y="549"/>
      <point x="63" y="549"/>
      <point x="157" y="549" type="curve"/>
      <point x="157" y="601"/>
      <point x="188" y="636"/>
      <point x="243" y="636" type="curve"/>
      <point x="295" y="636"/>
      <point x="329" y="603"/>
      <point x="329" y="548" type="curve"/>
      <point x="329" y="493"/>
      <point x="298" y="457"/>
      <point x="245" y="457" type="curve"/>
      <point x="190" y="457"/>
      <point x="157" y="493"/>
      <point x="157" y="549" type="curve"/>
      <point x="63" y="549"/>
      <point x="124" y="549"/>
      <point x="30" y="549" type="curve"/>
      <point x="30" y="424"/>
      <point x="115" y="351"/>
      <point x="242" y="351" type="curve"/>
      <point x="372" y="351"/>
      <point x="459" y="423"/>
    </contour>
  </outline>
</glyph>
<glyph name="plusminus" format="1">
  <advance width="655"/>
  <unicode hex="00B1"/>
  <outline>
    <contour>
      <point x="45" y="36" type="line"/>
      <point x="610" y="36" type="line"/>
      <point x="610" y="159" type="line"/>
      <point x="45" y="159" type="line"/>
    </contour>
    <contour>
      <point x="45" y="253" type="curve"/>
      <point x="610" y="253" type="line"/>
      <point x="610" y="375"/>
      <point x="610" y="253"/>
      <point x="610" y="375" type="curve"/>
      <point x="45" y="375" type="line"/>
      <point x="45" y="253"/>
      <point x="45" y="375"/>
    </contour>
    <contour>
      <point x="400" y="36" type="curve"/>
      <point x="400" y="583" type="line"/>
      <point x="250" y="583"/>
      <point x="410" y="583"/>
      <point x="260" y="583" type="curve"/>
      <point x="260" y="36" type="line"/>
      <point x="410" y="36"/>
      <point x="250" y="36"/>
    </contour>
  </outline>
</glyph>
<glyph name="twosuperior" format="1">
  <advance width="480"/>
  <unicode hex="00B2"/>
  <outline>
    <contour>
      <point x="35" y="319" type="curve"/>
      <point x="193" y="319"/>
      <point x="325" y="319"/>
      <point x="440" y="319" type="curve"/>
      <point x="440" y="373"/>
      <point x="440" y="370"/>
      <point x="440" y="421" type="curve"/>
      <point x="310" y="421"/>
      <point x="165" y="421"/>
      <point x="35" y="421" type="curve"/>
      <point x="35" y="319"/>
      <point x="35" y="421"/>
    </contour>
    <contour>
      <point x="138" y="611" type="curve"/>
      <point x="162" y="642"/>
      <point x="184" y="661"/>
      <point x="220" y="661" type="curve"/>
      <point x="256" y="661"/>
      <point x="281" y="645"/>
      <point x="281" y="616" type="curve"/>
      <point x="281" y="582"/>
      <point x="255" y="567"/>
      <point x="229" y="545" type="curve"/>
      <point x="164" y="503"/>
      <point x="99" y="462"/>
      <point x="35" y="421" type="curve"/>
      <point x="35" y="321"/>
      <point x="37" y="421"/>
      <point x="37" y="321" type="curve"/>
      <point x="140" y="378"/>
      <point x="234" y="420"/>
      <point x="304" y="467" type="curve"/>
      <point x="365" y="513"/>
      <point x="416" y="547"/>
      <point x="416" y="620" type="curve"/>
      <point x="416" y="718"/>
      <point x="338" y="762"/>
      <point x="233" y="762" type="curve"/>
      <point x="148" y="762"/>
      <point x="83" y="736"/>
      <point x="45" y="662" type="curve"/>
      <point x="138" y="611"/>
      <point x="45" y="662"/>
    </contour>
    <contour>
      <point x="227" y="762" type="move" name="_top"/>
    </contour>
    <contour>
      <point x="239" y="319" type="move" name="_bottom"/>
    </contour>
  </outline>
</glyph>
<glyph name="threesuperior" format="1">
  <advance width="424"/>
  <unicode hex="00B3"/>
  <outline>
    <contour>
      <point x="95" y="627" type="curve"/>
      <point x="123" y="650"/>
      <point x="153" y="660"/>
      <point x="178" y="660" type="curve"/>
      <point x="213" y="660"/>
      <point x="239" y="650"/>
      <point x="239" y="622" type="curve"/>
      <point x="239" y="589"/>
      <point x="185" y="583"/>
      <point x="135" y="582" type="curve"/>
      <point x="135" y="497"/>
      <point x="135" y="582"/>
      <point x="135" y="497" type="curve"/>
      <point x="263" y="499"/>
      <point x="375" y="521"/>
      <point x="375" y="630" type="curve"/>
      <point x="375" y="725"/>
      <point x="296" y="760"/>
      <point x="192" y="760" type="curve"/>
      <point x="130" y="760"/>
      <point x="72" y="737"/>
      <point x="30" y="698" type="curve"/>
      <point x="95" y="627"/>
      <point x="30" y="698"/>
    </contour>
    <contour>
      <point x="29" y="350" type="curve"/>
      <point x="74" y="326"/>
      <point x="118" y="311"/>
      <point x="168" y="311" type="curve"/>
      <point x="295" y="309"/>
      <point x="393" y="342"/>
      <point x="391" y="453" type="curve"/>
      <point x="391" y="568"/>
      <point x="268" y="569"/>
      <point x="135" y="572" type="curve"/>
      <point x="135" y="496"/>
      <point x="135" y="572"/>
      <point x="135" y="496" type="curve"/>
      <point x="196" y="495"/>
      <point x="254" y="488"/>
      <point x="254" y="451" type="curve"/>
      <point x="254" y="418"/>
      <point x="221" y="407"/>
      <point x="181" y="408" type="curve"/>
      <point x="152" y="408"/>
      <point x="124" y="414"/>
      <point x="87" y="428" type="curve"/>
      <point x="29" y="350"/>
      <point x="87" y="428"/>
    </contour>
    <contour>
      <point x="204" y="761" type="move" name="_top"/>
    </contour>
    <contour>
      <point x="196" y="311" type="move" name="_bottom"/>
    </contour>
  </outline>
</glyph>
<glyph name="paragraph" format="1">
  <advance width="847"/>
  <unicode hex="00B6"/>
  <outline>
    <contour>
      <point x="477" y="610" type="curve"/>
      <point x="645" y="610"/>
      <point x="477" y="610"/>
      <point x="645" y="610" type="curve"/>
      <point x="645" y="722"/>
      <point x="645" y="610"/>
      <point x="645" y="722" type="curve"/>
      <point x="589" y="722"/>
      <point x="533" y="722"/>
      <point x="477" y="722" type="curve"/>
      <point x="477" y="610"/>
      <point x="477" y="722"/>
    </contour>
    <contour>
      <point x="452" y="390" type="curve"/>
      <point x="402" y="369"/>
      <point x="363" y="357"/>
      <point x="308" y="357" type="curve"/>
      <point x="229" y="357"/>
      <point x="175" y="397"/>
      <point x="175" y="473" type="curve"/>
      <point x="175" y="568"/>
      <point x="251" y="610"/>
      <point x="352" y="610" type="curve"/>
      <point x="393" y="610"/>
      <point x="434" y="610"/>
      <point x="474" y="610" type="curve"/>
      <point x="474" y="722"/>
      <point x="474" y="610"/>
      <point x="474" y="722" type="curve"/>
      <point x="427" y="722"/>
      <point x="380" y="722"/>
      <point x="332" y="722" type="curve"/>
      <point x="158" y="722"/>
      <point x="25" y="641"/>
      <point x="25" y="479" type="curve"/>
      <point x="25" y="322"/>
      <point x="153" y="250"/>
      <point x="321" y="247" type="curve"/>
      <point x="387" y="247"/>
      <point x="440" y="267"/>
      <point x="499" y="293" type="curve"/>
      <point x="452" y="390"/>
      <point x="499" y="294"/>
    </contour>
    <contour>
      <point x="553" y="0" type="curve"/>
      <point x="553" y="241"/>
      <point x="553" y="481"/>
      <point x="553" y="722" type="curve"/>
      <point x="403" y="722"/>
      <point x="553" y="722"/>
      <point x="403" y="722" type="curve"/>
      <point x="403" y="481"/>
      <point x="403" y="241"/>
      <point x="403" y="0" type="curve"/>
      <point x="553" y="0"/>
      <point x="403" y="0"/>
    </contour>
    <contour>
      <point x="788" y="0" type="curve"/>
      <point x="788" y="241"/>
      <point x="788" y="481"/>
      <point x="788" y="722" type="curve"/>
      <point x="638" y="722"/>
      <point x="788" y="722"/>
      <point x="638" y="722" type="curve"/>
      <point x="638" y="481"/>
      <point x="638" y="241"/>
      <point x="638" y="0" type="curve"/>
      <point x="788" y="0"/>
      <point x="638" y="0"/>
    </contour>
  </outline>
</glyph>
<glyph name="periodcentered" format="1">
  <advance width="241"/>
  <unicode hex="00B7"/>
  <outline>
    <contour>
      <point x="204" y="440" type="curve"/>
      <point x="204" y="489"/>
      <point x="168" y="513"/>
      <point x="119" y="513" type="curve"/>
      <point x="70" y="513"/>
      <point x="37" y="487"/>
      <point x="37" y="440" type="curve"/>
      <point x="204" y="440"/>
      <point x="37" y="440"/>
      <point x="204" y="440" type="curve"/>
      <point x="204" y="390"/>
      <point x="168" y="368"/>
      <point x="118" y="368" type="curve"/>
      <point x="69" y="368"/>
      <point x="37" y="392"/>
      <point x="37" y="440" type="curve"/>
      <point x="204" y="440"/>
      <point x="37" y="440"/>
    </contour>
  </outline>
</glyph>
<glyph name="cedilla" format="1">
  <advance width="336"/>
  <unicode hex="00B8"/>
  <outline>
    <contour>
      <point x="137" y="172" type="curve"/>
      <point x="123" y="151"/>
      <point x="61" y="50"/>
      <point x="47" y="29" type="curve"/>
      <point x="149" y="-61"/>
      <point x="47" y="29"/>
      <point x="149" y="-61" type="curve"/>
      <point x="167" y="-35"/>
      <point x="236" y="68"/>
      <point x="253" y="94" type="curve"/>
      <point x="137" y="172"/>
      <point x="253" y="94"/>
    </contour>
    <contour>
      <point x="149" y="-61" type="curve"/>
      <point x="154" y="-57"/>
      <point x="158" y="-54"/>
      <point x="164" y="-54" type="curve"/>
      <point x="172" y="-54"/>
      <point x="178" y="-57"/>
      <point x="178" y="-66" type="curve"/>
      <point x="178" y="-79"/>
      <point x="165" y="-82"/>
      <point x="150" y="-82" type="curve"/>
      <point x="127" y="-82"/>
      <point x="108" y="-76"/>
      <point x="80" y="-64" type="curve"/>
      <point x="32" y="-148"/>
      <point x="80" y="-64"/>
      <point x="32" y="-148" type="curve"/>
      <point x="70" y="-166"/>
      <point x="101" y="-175"/>
      <point x="143" y="-175" type="curve"/>
      <point x="231" y="-175"/>
      <point x="297" y="-144"/>
      <point x="297" y="-62" type="curve"/>
      <point x="297" y="13"/>
      <point x="241" y="53"/>
      <point x="162" y="53" type="curve"/>
      <point x="119" y="53"/>
      <point x="88" y="46"/>
      <point x="47" y="29" type="curve"/>
      <point x="149" y="-61"/>
      <point x="47" y="29"/>
    </contour>
    <contour>
      <point x="234" y="94" type="move" name="_bottom"/>
    </contour>
  </outline>
</glyph>
<glyph name="onesuperior" format="1">
  <advance width="315"/>
  <unicode hex="00B9"/>
  <outline>
    <contour>
      <point x="72" y="579" type="line"/>
      <point x="261" y="752" type="line"/>
      <point x="124" y="753" type="line"/>
      <point x="7" y="654" type="line"/>
    </contour>
    <contour>
      <point x="261" y="319" type="curve"/>
      <point x="261" y="753" type="line"/>
      <point x="124" y="753" type="line"/>
      <point x="124" y="319" type="line"/>
      <point x="221" y="319"/>
      <point x="167" y="319"/>
    </contour>
    <contour>
      <point x="181" y="752" type="move" name="_top"/>
    </contour>
    <contour>
      <point x="194" y="319" type="move" name="_bottom"/>
    </contour>
  </outline>
</glyph>
<glyph name="ordmasculine" format="1">
  <advance width="451"/>
  <unicode hex="00BA"/>
  <outline>
    <contour>
      <point x="126" y="600" type="curve"/>
      <point x="126" y="661"/>
      <point x="158" y="704"/>
      <point x="222" y="704" type="curve"/>
      <point x="287" y="704"/>
      <point x="322" y="662"/>
      <point x="322" y="600" type="curve"/>
      <point x="322" y="535"/>
      <point x="289" y="497"/>
      <point x="229" y="497" type="curve"/>
      <point x="162" y="497"/>
      <point x="126" y="535"/>
      <point x="126" y="600" type="curve"/>
      <point x="69" y="600"/>
      <point x="87" y="600"/>
      <point x="30" y="600" type="curve"/>
      <point x="30" y="483"/>
      <point x="106" y="421"/>
      <point x="224" y="421" type="curve"/>
      <point x="343" y="421"/>
      <point x="422" y="482"/>
      <point x="422" y="600" type="curve"/>
      <point x="422" y="714"/>
      <point x="346" y="780"/>
      <point x="226" y="780" type="curve"/>
      <point x="105" y="780"/>
      <point x="30" y="714"/>
      <point x="30" y="600" type="curve"/>
      <point x="87" y="600"/>
      <point x="69" y="600"/>
    </contour>
  </outline>
</glyph>
<glyph name="guillemotright" format="1">
  <advance width="553"/>
  <unicode hex="00BB"/>
  <outline>
    <contour>
      <point x="300" y="484" type="curve"/>
      <point x="358" y="450"/>
      <point x="461" y="387"/>
      <point x="519" y="353" type="curve"/>
      <point x="519" y="230"/>
      <point x="519" y="344"/>
      <point x="519" y="221" type="curve"/>
      <point x="461" y="255"/>
      <point x="358" y="322"/>
      <point x="300" y="356" type="curve"/>
      <point x="300" y="479"/>
      <point x="300" y="361"/>
    </contour>
    <contour>
      <point x="300" y="221" type="curve"/>
      <point x="358" y="255"/>
      <point x="461" y="319"/>
      <point x="519" y="353" type="curve"/>
      <point x="519" y="230"/>
      <point x="519" y="344"/>
      <point x="519" y="221" type="curve"/>
      <point x="461" y="187"/>
      <point x="358" y="127"/>
      <point x="300" y="93" type="curve"/>
      <point x="300" y="216"/>
      <point x="300" y="98"/>
    </contour>
    <contour>
      <point x="52" y="484" type="curve"/>
      <point x="110" y="450"/>
      <point x="213" y="387"/>
      <point x="271" y="353" type="curve"/>
      <point x="271" y="230"/>
      <point x="271" y="344"/>
      <point x="271" y="221" type="curve"/>
      <point x="213" y="255"/>
      <point x="110" y="322"/>
      <point x="52" y="356" type="curve"/>
      <point x="52" y="479"/>
      <point x="52" y="361"/>
    </contour>
    <contour>
      <point x="52" y="221" type="curve"/>
      <point x="110" y="255"/>
      <point x="213" y="319"/>
      <point x="271" y="353" type="curve"/>
      <point x="271" y="230"/>
      <point x="271" y="344"/>
      <point x="271" y="221" type="curve"/>
      <point x="213" y="187"/>
      <point x="110" y="127"/>
      <point x="52" y="93" type="curve"/>
      <point x="52" y="216"/>
      <point x="52" y="98"/>
    </contour>
  </outline>
</glyph>
<glyph name="onequarter" format="1">
  <advance width="1015"/>
  <unicode hex="00BC"/>
  <outline>
    <contour>
      <point x="354" y="-34" type="line"/>
      <point x="798" y="706" type="line"/>
      <point x="662" y="706" type="line"/>
      <point x="218" y="-34" type="line"/>
    </contour>
    <contour>
      <point x="86" y="533" type="line"/>
      <point x="275" y="706" type="line"/>
      <point x="139" y="706" type="line"/>
      <point x="21" y="607" type="line"/>
    </contour>
    <contour>
      <point x="275" y="273" type="curve"/>
      <point x="275" y="706" type="line"/>
      <point x="139" y="706" type="line"/>
      <point x="139" y="273" type="line"/>
      <point x="236" y="273"/>
      <point x="182" y="273"/>
    </contour>
    <contour>
      <point x="984" y="190" type="line"/>
      <point x="583" y="190" type="line"/>
      <point x="583" y="91" type="line"/>
      <point x="984" y="91" type="line"/>
    </contour>
    <contour>
      <point x="619" y="102" type="line"/>
      <point x="878" y="398" type="line"/>
      <point x="775" y="415" type="line"/>
      <point x="583" y="190" type="line"/>
    </contour>
    <contour>
      <point x="912" y="-34" type="line"/>
      <point x="912" y="415" type="line"/>
      <point x="775" y="415" type="line"/>
      <point x="775" y="-34" type="line"/>
    </contour>
  </outline>
</glyph>
<glyph name="onehalf" format="1">
  <advance width="1092"/>
  <unicode hex="00BD"/>
  <outline>
    <contour>
      <point x="373" y="-34" type="line"/>
      <point x="817" y="706" type="line"/>
      <point x="681" y="706" type="line"/>
      <point x="237" y="-34" type="line"/>
    </contour>
    <contour>
      <point x="86" y="533" type="line"/>
      <point x="275" y="706" type="line"/>
      <point x="139" y="706" type="line"/>
      <point x="21" y="607" type="line"/>
    </contour>
    <contour>
      <point x="275" y="273" type="curve"/>
      <point x="275" y="706" type="line"/>
      <point x="139" y="706" type="line"/>
      <point x="139" y="273" type="line"/>
      <point x="236" y="273"/>
      <point x="182" y="273"/>
    </contour>
    <contour>
      <point x="653" y="-35" type="curve"/>
      <point x="812" y="-35"/>
      <point x="943" y="-35"/>
      <point x="1059" y="-35" type="curve"/>
      <point x="1059" y="19"/>
      <point x="1059" y="15"/>
      <point x="1059" y="66" type="curve"/>
      <point x="928" y="66"/>
      <point x="784" y="66"/>
      <point x="653" y="66" type="curve"/>
      <point x="653" y="-35"/>
      <point x="653" y="66"/>
    </contour>
    <contour>
      <point x="756" y="257" type="curve"/>
      <point x="781" y="288"/>
      <point x="803" y="306"/>
      <point x="839" y="306" type="curve"/>
      <point x="874" y="306"/>
      <point x="900" y="291"/>
      <point x="900" y="261" type="curve"/>
      <point x="900" y="228"/>
      <point x="874" y="212"/>
      <point x="847" y="191" type="curve"/>
      <point x="783" y="149"/>
      <point x="718" y="108"/>
      <point x="653" y="66" type="curve"/>
      <point x="653" y="-33"/>
      <point x="656" y="66"/>
      <point x="656" y="-33" type="curve"/>
      <point x="759" y="24"/>
      <point x="852" y="65"/>
      <point x="922" y="112" type="curve"/>
      <point x="984" y="159"/>
      <point x="1035" y="193"/>
      <point x="1035" y="266" type="curve"/>
      <point x="1035" y="364"/>
      <point x="956" y="408"/>
      <point x="852" y="408" type="curve"/>
      <point x="767" y="408"/>
      <point x="702" y="382"/>
      <point x="663" y="308" type="curve"/>
      <point x="756" y="257"/>
      <point x="663" y="308"/>
    </contour>
  </outline>
</glyph>
<glyph name="threequarters" format="1">
  <advance width="1028"/>
  <unicode hex="00BE"/>
  <outline>
    <contour>
      <point x="382" y="-34" type="line"/>
      <point x="826" y="706" type="line"/>
      <point x="690" y="706" type="line"/>
      <point x="246" y="-34" type="line"/>
    </contour>
    <contour>
      <point x="96" y="572" type="curve"/>
      <point x="123" y="595"/>
      <point x="154" y="605"/>
      <point x="178" y="605" type="curve"/>
      <point x="213" y="605"/>
      <point x="239" y="595"/>
      <point x="239" y="567" type="curve"/>
      <point x="239" y="534"/>
      <point x="185" y="528"/>
      <point x="136" y="527" type="curve"/>
      <point x="136" y="442"/>
      <point x="136" y="527"/>
      <point x="136" y="442" type="curve"/>
      <point x="264" y="444"/>
      <point x="376" y="465"/>
      <point x="376" y="575" type="curve"/>
      <point x="376" y="670"/>
      <point x="296" y="705"/>
      <point x="192" y="705" type="curve"/>
      <point x="130" y="705"/>
      <point x="73" y="682"/>
      <point x="31" y="643" type="curve"/>
      <point x="96" y="572"/>
      <point x="31" y="643"/>
    </contour>
    <contour>
      <point x="30" y="295" type="curve"/>
      <point x="75" y="271"/>
      <point x="119" y="256"/>
      <point x="169" y="256" type="curve"/>
      <point x="296" y="254"/>
      <point x="394" y="287"/>
      <point x="392" y="398" type="curve"/>
      <point x="392" y="513"/>
      <point x="269" y="514"/>
      <point x="136" y="517" type="curve"/>
      <point x="136" y="441"/>
      <point x="136" y="517"/>
      <point x="136" y="441" type="curve"/>
      <point x="197" y="440"/>
      <point x="255" y="433"/>
      <point x="255" y="396" type="curve"/>
      <point x="255" y="363"/>
      <point x="222" y="352"/>
      <point x="182" y="353" type="curve"/>
      <point x="153" y="353"/>
      <point x="124" y="359"/>
      <point x="87" y="373" type="curve"/>
      <point x="30" y="295"/>
      <point x="87" y="373"/>
    </contour>
    <contour>
      <point x="1002" y="190" type="line"/>
      <point x="601" y="190" type="line"/>
      <point x="601" y="91" type="line"/>
      <point x="1002" y="91" type="line"/>
    </contour>
    <contour>
      <point x="638" y="102" type="line"/>
      <point x="896" y="398" type="line"/>
      <point x="793" y="415" type="line"/>
      <point x="601" y="190" type="line"/>
    </contour>
    <contour>
      <point x="930" y="-34" type="line"/>
      <point x="930" y="415" type="line"/>
      <point x="793" y="415" type="line"/>
      <point x="793" y="-34" type="line"/>
    </contour>
  </outline>
</glyph>
<glyph name="questiondown" format="1">
  <advance width="564"/>
  <unicode hex="00BF"/>
  <outline>
    <contour>
      <point x="369" y="339" type="curve"/>
      <point x="369" y="376"/>
      <point x="369" y="462"/>
      <point x="369" y="499" type="curve"/>
      <point x="225" y="499"/>
      <point x="369" y="499"/>
      <point x="225" y="499" type="curve"/>
      <point x="225" y="462"/>
      <point x="225" y="376"/>
      <point x="225" y="339" type="curve"/>
      <point x="369" y="339"/>
      <point x="225" y="339"/>
    </contour>
    <contour>
      <point x="450" y="150" type="line"/>
      <point x="414" y="113"/>
      <point x="363" y="84"/>
      <point x="302" y="84" type="curve"/>
      <point x="223" y="84"/>
      <point x="168" y="125"/>
      <point x="168" y="202" type="curve"/>
      <point x="168" y="291"/>
      <point x="246" y="339"/>
      <point x="353" y="339" type="curve"/>
      <point x="353" y="380"/>
      <point x="353" y="409"/>
      <point x="353" y="449" type="curve"/>
      <point x="164" y="449"/>
      <point x="26" y="363"/>
      <point x="26" y="202" type="curve"/>
      <point x="26" y="49"/>
      <point x="139" y="-33"/>
      <point x="295" y="-33" type="curve"/>
      <point x="391" y="-33"/>
      <point x="465" y="-3"/>
      <point x="527" y="61" type="curve"/>
    </contour>
    <contour>
      <point x="212" y="682" type="curve"/>
      <point x="212" y="633"/>
      <point x="248" y="609"/>
      <point x="297" y="609" type="curve"/>
      <point x="346" y="609"/>
      <point x="379" y="635"/>
      <point x="379" y="682" type="curve"/>
      <point x="212" y="682"/>
      <point x="379" y="682"/>
      <point x="212" y="682" type="curve"/>
      <point x="212" y="733"/>
      <point x="248" y="754"/>
      <point x="297" y="754" type="curve"/>
      <point x="347" y="754"/>
      <point x="379" y="730"/>
      <point x="379" y="682" type="curve"/>
      <point x="212" y="682"/>
      <point x="379" y="682"/>
    </contour>
  </outline>
</glyph>
<glyph name="Acircumflex" format="1">
  <advance width="756"/>
  <unicode hex="00C2"/>
  <outline>
    <contour>
      <point x="544" y="306" type="curve"/>
      <point x="438" y="306"/>
      <point x="331" y="306"/>
      <point x="225" y="306" type="curve"/>
      <point x="163" y="187"/>
      <point x="225" y="306"/>
      <point x="163" y="187" type="curve"/>
      <point x="306" y="187"/>
      <point x="449" y="187"/>
      <point x="592" y="187" type="curve"/>
      <point x="544" y="306"/>
      <point x="592" y="187"/>
    </contour>
    <contour>
      <point x="748" y="0" type="curve"/>
      <point x="654" y="242"/>
      <point x="553" y="480"/>
      <point x="458" y="722" type="curve"/>
      <point x="322" y="722"/>
      <point x="458" y="722"/>
      <point x="322" y="722" type="curve"/>
      <point x="414" y="482"/>
      <point x="499" y="240"/>
      <point x="592" y="0" type="curve"/>
      <point x="748" y="0"/>
      <point x="592" y="0"/>
    </contour>
    <contour>
      <point x="158" y="0" type="curve"/>
      <point x="261" y="240"/>
      <point x="353" y="482"/>
      <point x="457" y="722" type="curve"/>
      <point x="321" y="722"/>
      <point x="457" y="722"/>
      <point x="321" y="722" type="curve"/>
      <point x="215" y="480"/>
      <point x="99" y="242"/>
      <point x="-6" y="0" type="curve"/>
      <point x="158" y="0"/>
      <point x="-6" y="0"/>
    </contour>
    <contour>
      <point x="295" y="781" type="line"/>
      <point x="456" y="947" type="line"/>
      <point x="266" y="947" type="line"/>
      <point x="150" y="781" type="line"/>
    </contour>
    <contour>
      <point x="625" y="781" type="line"/>
      <point x="507" y="947" type="line"/>
      <point x="317" y="947" type="line"/>
      <point x="478" y="781" type="line"/>
    </contour>
  </outline>
</glyph>
<glyph name="Atilde" format="1">
  <advance width="756"/>
  <unicode hex="00C3"/>
  <outline>
    <contour>
      <point x="544" y="306" type="curve"/>
      <point x="438" y="306"/>
      <point x="331" y="306"/>
      <point x="225" y="306" type="curve"/>
      <point x="163" y="187"/>
      <point x="225" y="306"/>
      <point x="163" y="187" type="curve"/>
      <point x="306" y="187"/>
      <point x="449" y="187"/>
      <point x="592" y="187" type="curve"/>
      <point x="544" y="306"/>
      <point x="592" y="187"/>
    </contour>
    <contour>
      <point x="748" y="0" type="curve"/>
      <point x="654" y="242"/>
      <point x="553" y="480"/>
      <point x="458" y="722" type="curve"/>
      <point x="322" y="722"/>
      <point x="458" y="722"/>
      <point x="322" y="722" type="curve"/>
      <point x="414" y="482"/>
      <point x="499" y="240"/>
      <point x="592" y="0" type="curve"/>
      <point x="748" y="0"/>
      <point x="592" y="0"/>
    </contour>
    <contour>
      <point x="158" y="0" type="curve"/>
      <point x="261" y="240"/>
      <point x="353" y="482"/>
      <point x="457" y="722" type="curve"/>
      <point x="321" y="722"/>
      <point x="457" y="722"/>
      <point x="321" y="722" type="curve"/>
      <point x="215" y="480"/>
      <point x="99" y="242"/>
      <point x="-6" y="0" type="curve"/>
      <point x="158" y="0"/>
      <point x="-6" y="0"/>
    </contour>
    <contour>
      <point x="526" y="965" type="curve"/>
      <point x="512" y="929"/>
      <point x="495" y="906"/>
      <point x="471" y="906" type="curve"/>
      <point x="440" y="906"/>
      <point x="423" y="915"/>
      <point x="399" y="933" type="curve"/>
      <point x="363" y="961"/>
      <point x="337" y="973"/>
      <point x="293" y="973" type="curve"/>
      <point x="213" y="973"/>
      <point x="167" y="915"/>
      <point x="137" y="836" type="curve"/>
      <point x="247" y="779"/>
      <point x="138" y="836"/>
      <point x="248" y="779" type="curve"/>
      <point x="267" y="822"/>
      <point x="285" y="840"/>
      <point x="310" y="840" type="curve"/>
      <point x="338" y="840"/>
      <point x="353" y="830"/>
      <point x="374" y="814" type="curve"/>
      <point x="415" y="783"/>
      <point x="441" y="772"/>
      <point x="488" y="772" type="curve"/>
      <point x="571" y="772"/>
      <point x="613" y="829"/>
      <point x="643" y="909" type="curve"/>
      <point x="526" y="964"/>
      <point x="643" y="908"/>
    </contour>
  </outline>
</glyph>
<glyph name="Adieresis" format="1">
  <advance width="756"/>
  <unicode hex="00C4"/>
  <outline>
    <contour>
      <point x="544" y="306" type="curve"/>
      <point x="438" y="306"/>
      <point x="331" y="306"/>
      <point x="225" y="306" type="curve"/>
      <point x="163" y="187"/>
      <point x="225" y="306"/>
      <point x="163" y="187" type="curve"/>
      <point x="306" y="187"/>
      <point x="449" y="187"/>
      <point x="592" y="187" type="curve"/>
      <point x="544" y="306"/>
      <point x="592" y="187"/>
    </contour>
    <contour>
      <point x="748" y="0" type="curve"/>
      <point x="654" y="242"/>
      <point x="553" y="480"/>
      <point x="458" y="722" type="curve"/>
      <point x="322" y="722"/>
      <point x="458" y="722"/>
      <point x="322" y="722" type="curve"/>
      <point x="414" y="482"/>
      <point x="499" y="240"/>
      <point x="592" y="0" type="curve"/>
      <point x="748" y="0"/>
      <point x="592" y="0"/>
    </contour>
    <contour>
      <point x="158" y="0" type="curve"/>
      <point x="261" y="240"/>
      <point x="353" y="482"/>
      <point x="457" y="722" type="curve"/>
      <point x="321" y="722"/>
      <point x="457" y="722"/>
      <point x="321" y="722" type="curve"/>
      <point x="215" y="480"/>
      <point x="99" y="242"/>
      <point x="-6" y="0" type="curve"/>
      <point x="158" y="0"/>
      <point x="-6" y="0"/>
    </contour>
    <contour>
      <point x="361" y="849" type="curve"/>
      <point x="361" y="898"/>
      <point x="325" y="922"/>
      <point x="277" y="922" type="curve"/>
      <point x="227" y="922"/>
      <point x="194" y="895"/>
      <point x="194" y="849" type="curve"/>
      <point x="361" y="849"/>
      <point x="195" y="849"/>
      <point x="361" y="849" type="curve"/>
      <point x="361" y="798"/>
      <point x="326" y="777"/>
      <point x="276" y="777" type="curve"/>
      <point x="227" y="777"/>
      <point x="194" y="801"/>
      <point x="194" y="849" type="curve"/>
      <point x="361" y="849"/>
      <point x="195" y="849"/>
    </contour>
    <contour>
      <point x="581" y="849" type="curve"/>
      <point x="581" y="898"/>
      <point x="545" y="922"/>
      <point x="496" y="922" type="curve"/>
      <point x="447" y="922"/>
      <point x="414" y="895"/>
      <point x="414" y="849" type="curve"/>
      <point x="581" y="849"/>
      <point x="414" y="849"/>
      <point x="581" y="849" type="curve"/>
      <point x="581" y="798"/>
      <point x="545" y="777"/>
      <point x="496" y="777" type="curve"/>
      <point x="446" y="777"/>
      <point x="414" y="801"/>
      <point x="414" y="849" type="curve"/>
      <point x="581" y="849"/>
      <point x="414" y="849"/>
    </contour>
  </outline>
</glyph>
<glyph name="Aring" format="1">
  <advance width="756"/>
  <unicode hex="00C5"/>
  <outline>
    <contour>
      <point x="544" y="306" type="curve"/>
      <point x="438" y="306"/>
      <point x="331" y="306"/>
      <point x="225" y="306" type="curve"/>
      <point x="163" y="187"/>
      <point x="225" y="306"/>
      <point x="163" y="187" type="curve"/>
      <point x="306" y="187"/>
      <point x="449" y="187"/>
      <point x="592" y="187" type="curve"/>
      <point x="544" y="306"/>
      <point x="592" y="187"/>
    </contour>
    <contour>
      <point x="748" y="0" type="curve"/>
      <point x="654" y="242"/>
      <point x="553" y="480"/>
      <point x="458" y="722" type="curve"/>
      <point x="322" y="722"/>
      <point x="458" y="722"/>
      <point x="322" y="722" type="curve"/>
      <point x="414" y="482"/>
      <point x="499" y="240"/>
      <point x="592" y="0" type="curve"/>
      <point x="748" y="0"/>
      <point x="592" y="0"/>
    </contour>
    <contour>
      <point x="158" y="0" type="curve"/>
      <point x="261" y="240"/>
      <point x="353" y="482"/>
      <point x="457" y="722" type="curve"/>
      <point x="321" y="722"/>
      <point x="457" y="722"/>
      <point x="321" y="722" type="curve"/>
      <point x="215" y="480"/>
      <point x="99" y="242"/>
      <point x="-6" y="0" type="curve"/>
      <point x="158" y="0"/>
      <point x="-6" y="0"/>
    </contour>
    <contour>
      <point x="211" y="926" type="curve"/>
      <point x="211" y="828"/>
      <point x="285" y="778"/>
      <point x="388" y="778" type="curve"/>
      <point x="493" y="778"/>
      <point x="568" y="827"/>
      <point x="568" y="926" type="curve"/>
      <point x="568" y="1025"/>
      <point x="492" y="1074"/>
      <point x="386" y="1074" type="curve"/>
      <point x="283" y="1074"/>
      <point x="211" y="1024"/>
      <point x="211" y="926" type="curve"/>
      <point x="338" y="926"/>
      <point x="206" y="926"/>
      <point x="333" y="926" type="curve"/>
      <point x="333" y="959"/>
      <point x="351" y="977"/>
      <point x="386" y="977" type="curve"/>
      <point x="421" y="977"/>
      <point x="443" y="963"/>
      <point x="443" y="926" type="curve"/>
      <point x="443" y="892"/>
      <point x="423" y="875"/>
      <point x="388" y="875" type="curve"/>
      <point x="353" y="875"/>
      <point x="333" y="893"/>
      <point x="333" y="926" type="curve"/>
      <point x="206" y="926"/>
      <point x="338" y="926"/>
    </contour>
  </outline>
</glyph>
<glyph name="AE" format="1">
  <advance width="1016"/>
  <unicode hex="00C6"/>
  <outline>
    <contour>
      <point x="491" y="287" type="curve"/>
      <point x="385" y="287"/>
      <point x="322" y="287"/>
      <point x="216" y="287" type="curve"/>
      <point x="154" y="169"/>
      <point x="216" y="287"/>
      <point x="154" y="169" type="curve"/>
      <point x="297" y="169"/>
      <point x="396" y="169"/>
      <point x="539" y="169" type="curve"/>
      <point x="491" y="287"/>
      <point x="539" y="169"/>
    </contour>
    <contour>
      <point x="149" y="0" type="curve"/>
      <point x="607" y="722" type="line"/>
      <point x="471" y="722"/>
      <point x="607" y="722"/>
      <point x="471" y="722" type="curve"/>
      <point x="-15" y="0" type="line"/>
      <point x="149" y="0"/>
      <point x="-15" y="0"/>
    </contour>
    <contour>
      <point x="551" y="316" type="curve"/>
      <point x="665" y="316"/>
      <point x="779" y="316"/>
      <point x="893" y="316" type="curve"/>
      <point x="893" y="429"/>
      <point x="893" y="316"/>
      <point x="893" y="429" type="curve"/>
      <point x="779" y="429"/>
      <point x="665" y="429"/>
      <point x="551" y="429" type="curve"/>
      <point x="551" y="316"/>
      <point x="551" y="429"/>
    </contour>
    <contour>
      <point x="535" y="610" type="curve"/>
      <point x="676" y="610"/>
      <point x="817" y="610"/>
      <point x="958" y="610" type="curve"/>
      <point x="958" y="722"/>
      <point x="958" y="610"/>
      <point x="958" y="722" type="curve"/>
      <point x="817" y="722"/>
      <point x="676" y="722"/>
      <point x="535" y="722" type="curve"/>
      <point x="535" y="610"/>
      <point x="535" y="722"/>
    </contour>
    <contour>
      <point x="622" y="0" type="curve"/>
      <point x="622" y="722" type="line"/>
      <point x="472" y="722"/>
      <point x="622" y="722"/>
      <point x="472" y="722" type="curve"/>
      <point x="472" y="481"/>
      <point x="472" y="241"/>
      <point x="472" y="0" type="curve"/>
      <point x="622" y="0"/>
      <point x="472" y="0"/>
    </contour>
    <contour>
      <point x="535" y="0" type="curve"/>
      <point x="688" y="0"/>
      <point x="840" y="0"/>
      <point x="993" y="0" type="curve"/>
      <point x="993" y="112"/>
      <point x="993" y="0"/>
      <point x="993" y="112" type="curve"/>
      <point x="840" y="112"/>
      <point x="688" y="112"/>
      <point x="535" y="112" type="curve"/>
      <point x="535" y="0"/>
      <point x="535" y="112"/>
    </contour>
  </outline>
</glyph>
<glyph name="Ccedilla" format="1">
  <advance width="716"/>
  <unicode hex="00C7"/>
  <outline>
    <contour>
      <point x="703" y="654" type="curve"/>
      <point x="623" y="696"/>
      <point x="534" y="727"/>
      <point x="434" y="727" type="curve"/>
      <point x="189" y="727"/>
      <point x="37" y="590"/>
      <point x="37" y="344" type="curve"/>
      <point x="37" y="118"/>
      <point x="180" y="-5"/>
      <point x="410" y="-5" type="curve"/>
      <point x="540" y="-5"/>
      <point x="622" y="25"/>
      <point x="709" y="93" type="curve"/>
      <point x="640" y="184"/>
      <point x="709" y="93"/>
      <point x="640" y="184" type="curve"/>
      <point x="562" y="135"/>
      <point x="503" y="113"/>
      <point x="416" y="113" type="curve"/>
      <point x="268" y="113"/>
      <point x="187" y="201"/>
      <point x="187" y="350" type="curve"/>
      <point x="187" y="512"/>
      <point x="271" y="610"/>
      <point x="428" y="610" type="curve"/>
      <point x="499" y="610"/>
      <point x="564" y="595"/>
      <point x="636" y="560" type="curve"/>
      <point x="703" y="654"/>
      <point x="636" y="560"/>
    </contour>
    <contour>
      <point x="353" y="83" type="curve"/>
      <point x="339" y="62"/>
      <point x="277" y="-38"/>
      <point x="263" y="-60" type="curve"/>
      <point x="365" y="-150"/>
      <point x="263" y="-60"/>
      <point x="365" y="-150" type="curve"/>
      <point x="382" y="-123"/>
      <point x="452" y="-21"/>
      <point x="468" y="5" type="curve"/>
      <point x="353" y="83"/>
      <point x="468" y="5"/>
    </contour>
    <contour>
      <point x="365" y="-150" type="curve"/>
      <point x="370" y="-146"/>
      <point x="374" y="-143"/>
      <point x="380" y="-143" type="curve"/>
      <point x="388" y="-143"/>
      <point x="394" y="-146"/>
      <point x="394" y="-154" type="curve"/>
      <point x="394" y="-167"/>
      <point x="381" y="-171"/>
      <point x="366" y="-171" type="curve"/>
      <point x="343" y="-171"/>
      <point x="324" y="-164"/>
      <point x="296" y="-152" type="curve"/>
      <point x="248" y="-236"/>
      <point x="296" y="-152"/>
      <point x="248" y="-236" type="curve"/>
      <point x="285" y="-255"/>
      <point x="317" y="-264"/>
      <point x="359" y="-264" type="curve"/>
      <point x="446" y="-264"/>
      <point x="513" y="-233"/>
      <point x="513" y="-151" type="curve"/>
      <point x="513" y="-76"/>
      <point x="457" y="-36"/>
      <point x="378" y="-36" type="curve"/>
      <point x="335" y="-36"/>
      <point x="304" y="-43"/>
      <point x="263" y="-60" type="curve"/>
      <point x="365" y="-150"/>
      <point x="263" y="-60"/>
    </contour>
  </outline>
</glyph>
<glyph name="Egrave" format="1">
  <advance width="618"/>
  <unicode hex="00C8"/>
  <outline>
    <contour>
      <point x="153" y="316" type="curve"/>
      <point x="267" y="316"/>
      <point x="381" y="316"/>
      <point x="495" y="316" type="curve"/>
      <point x="495" y="429"/>
      <point x="495" y="316"/>
      <point x="495" y="429" type="curve"/>
      <point x="381" y="429"/>
      <point x="267" y="429"/>
      <point x="153" y="429" type="curve"/>
      <point x="153" y="316"/>
      <point x="153" y="429"/>
    </contour>
    <contour>
      <point x="137" y="610" type="curve"/>
      <point x="278" y="610"/>
      <point x="419" y="610"/>
      <point x="560" y="610" type="curve"/>
      <point x="560" y="722"/>
      <point x="560" y="610"/>
      <point x="560" y="722" type="curve"/>
      <point x="419" y="722"/>
      <point x="278" y="722"/>
      <point x="137" y="722" type="curve"/>
      <point x="137" y="610"/>
      <point x="137" y="722"/>
    </contour>
    <contour>
      <point x="224" y="0" type="curve"/>
      <point x="224" y="722" type="line"/>
      <point x="74" y="722"/>
      <point x="224" y="722"/>
      <point x="74" y="722" type="curve"/>
      <point x="74" y="481"/>
      <point x="74" y="241"/>
      <point x="74" y="0" type="curve"/>
      <point x="224" y="0"/>
      <point x="74" y="0"/>
    </contour>
    <contour>
      <point x="137" y="0" type="curve"/>
      <point x="290" y="0"/>
      <point x="442" y="0"/>
      <point x="595" y="0" type="curve"/>
      <point x="595" y="112"/>
      <point x="595" y="0"/>
      <point x="595" y="112" type="curve"/>
      <point x="442" y="112"/>
      <point x="290" y="112"/>
      <point x="137" y="112" type="curve"/>
      <point x="137" y="0"/>
      <point x="137" y="112"/>
    </contour>
    <contour>
      <point x="374" y="781" type="line"/>
      <point x="256" y="947" type="line"/>
      <point x="66" y="947" type="line"/>
      <point x="227" y="781" type="line"/>
    </contour>
  </outline>
</glyph>
<glyph name="Eacute" format="1">
  <advance width="610"/>
  <unicode hex="00C9"/>
  <outline>
    <contour>
      <point x="145" y="316" type="curve"/>
      <point x="258" y="316"/>
      <point x="372" y="316"/>
      <point x="486" y="316" type="curve"/>
      <point x="486" y="429"/>
      <point x="486" y="316"/>
      <point x="486" y="429" type="curve"/>
      <point x="372" y="429"/>
      <point x="258" y="429"/>
      <point x="145" y="429" type="curve"/>
      <point x="145" y="316"/>
      <point x="145" y="429"/>
    </contour>
    <contour>
      <point x="129" y="610" type="curve"/>
      <point x="270" y="610"/>
      <point x="411" y="610"/>
      <point x="552" y="610" type="curve"/>
      <point x="552" y="722"/>
      <point x="552" y="610"/>
      <point x="552" y="722" type="curve"/>
      <point x="411" y="722"/>
      <point x="270" y="722"/>
      <point x="129" y="722" type="curve"/>
      <point x="129" y="610"/>
      <point x="129" y="722"/>
    </contour>
    <contour>
      <point x="215" y="0" type="curve"/>
      <point x="215" y="722" type="line"/>
      <point x="65" y="722"/>
      <point x="215" y="722"/>
      <point x="65" y="722" type="curve"/>
      <point x="65" y="481"/>
      <point x="65" y="241"/>
      <point x="65" y="0" type="curve"/>
      <point x="215" y="0"/>
      <point x="65" y="0"/>
    </contour>
    <contour>
      <point x="129" y="0" type="curve"/>
      <point x="282" y="0"/>
      <point x="434" y="0"/>
      <point x="587" y="0" type="curve"/>
      <point x="587" y="112"/>
      <point x="587" y="0"/>
      <point x="587" y="112" type="curve"/>
      <point x="434" y="112"/>
      <point x="282" y="112"/>
      <point x="129" y="112" type="curve"/>
      <point x="129" y="0"/>
      <point x="129" y="112"/>
    </contour>
    <contour>
      <point x="348" y="780" type="line"/>
      <point x="509" y="946" type="line"/>
      <point x="319" y="946" type="line"/>
      <point x="203" y="780" type="line"/>
    </contour>
  </outline>
</glyph>
<glyph name="Ecircumflex" format="1">
  <advance width="576"/>
  <unicode hex="00CA"/>
  <outline>
    <contour>
      <point x="124" y="316" type="curve"/>
      <point x="238" y="316"/>
      <point x="352" y="316"/>
      <point x="466" y="316" type="curve"/>
      <point x="466" y="429"/>
      <point x="466" y="316"/>
      <point x="466" y="429" type="curve"/>
      <point x="352" y="429"/>
      <point x="238" y="429"/>
      <point x="124" y="429" type="curve"/>
      <point x="124" y="316"/>
      <point x="124" y="429"/>
    </contour>
    <contour>
      <point x="108" y="610" type="curve"/>
      <point x="249" y="610"/>
      <point x="390" y="610"/>
      <point x="531" y="610" type="curve"/>
      <point x="531" y="722"/>
      <point x="531" y="610"/>
      <point x="531" y="722" type="curve"/>
      <point x="390" y="722"/>
      <point x="249" y="722"/>
      <point x="108" y="722" type="curve"/>
      <point x="108" y="610"/>
      <point x="108" y="722"/>
    </contour>
    <contour>
      <point x="195" y="0" type="curve"/>
      <point x="195" y="722" type="line"/>
      <point x="45" y="722"/>
      <point x="195" y="722"/>
      <point x="45" y="722" type="curve"/>
      <point x="45" y="481"/>
      <point x="45" y="241"/>
      <point x="45" y="0" type="curve"/>
      <point x="195" y="0"/>
      <point x="45" y="0"/>
    </contour>
    <contour>
      <point x="108" y="0" type="curve"/>
      <point x="261" y="0"/>
      <point x="414" y="0"/>
      <point x="566" y="0" type="curve"/>
      <point x="566" y="112"/>
      <point x="566" y="0"/>
      <point x="566" y="112" type="curve"/>
      <point x="414" y="112"/>
      <point x="261" y="112"/>
      <point x="108" y="112" type="curve"/>
      <point x="108" y="0"/>
      <point x="108" y="112"/>
    </contour>
    <contour>
      <point x="173" y="781" type="line"/>
      <point x="334" y="947" type="line"/>
      <point x="144" y="947" type="line"/>
      <point x="28" y="781" type="line"/>
    </contour>
    <contour>
      <point x="503" y="781" type="line"/>
      <point x="385" y="947" type="line"/>
      <point x="195" y="947" type="line"/>
      <point x="355" y="781" type="line"/>
    </contour>
  </outline>
</glyph>
<glyph name="Edieresis" format="1">
  <advance width="608"/>
  <unicode hex="00CB"/>
  <outline>
    <contour>
      <point x="143" y="316" type="curve"/>
      <point x="256" y="316"/>
      <point x="370" y="316"/>
      <point x="484" y="316" type="curve"/>
      <point x="484" y="429"/>
      <point x="484" y="316"/>
      <point x="484" y="429" type="curve"/>
      <point x="370" y="429"/>
      <point x="256" y="429"/>
      <point x="143" y="429" type="curve"/>
      <point x="143" y="316"/>
      <point x="143" y="429"/>
    </contour>
    <contour>
      <point x="126" y="610" type="curve"/>
      <point x="268" y="610"/>
      <point x="408" y="610"/>
      <point x="550" y="610" type="curve"/>
      <point x="550" y="722"/>
      <point x="550" y="610"/>
      <point x="550" y="722" type="curve"/>
      <point x="408" y="722"/>
      <point x="268" y="722"/>
      <point x="126" y="722" type="curve"/>
      <point x="126" y="610"/>
      <point x="126" y="722"/>
    </contour>
    <contour>
      <point x="213" y="0" type="curve"/>
      <point x="213" y="722" type="line"/>
      <point x="63" y="722"/>
      <point x="213" y="722"/>
      <point x="63" y="722" type="curve"/>
      <point x="63" y="481"/>
      <point x="63" y="241"/>
      <point x="63" y="0" type="curve"/>
      <point x="213" y="0"/>
      <point x="63" y="0"/>
    </contour>
    <contour>
      <point x="126" y="0" type="curve"/>
      <point x="279" y="0"/>
      <point x="432" y="0"/>
      <point x="585" y="0" type="curve"/>
      <point x="585" y="112"/>
      <point x="585" y="0"/>
      <point x="585" y="112" type="curve"/>
      <point x="432" y="112"/>
      <point x="279" y="112"/>
      <point x="126" y="112" type="curve"/>
      <point x="126" y="0"/>
      <point x="126" y="112"/>
    </contour>
    <contour>
      <point x="257" y="849" type="curve"/>
      <point x="257" y="898"/>
      <point x="221" y="922"/>
      <point x="172" y="922" type="curve"/>
      <point x="123" y="922"/>
      <point x="90" y="895"/>
      <point x="90" y="849" type="curve"/>
      <point x="257" y="849"/>
      <point x="90" y="849"/>
      <point x="257" y="849" type="curve"/>
      <point x="257" y="798"/>
      <point x="221" y="777"/>
      <point x="172" y="777" type="curve"/>
      <point x="122" y="777"/>
      <point x="90" y="801"/>
      <point x="90" y="849" type="curve"/>
      <point x="257" y="849"/>
      <point x="90" y="849"/>
    </contour>
    <contour>
      <point x="477" y="849" type="curve"/>
      <point x="477" y="898"/>
      <point x="441" y="922"/>
      <point x="392" y="922" type="curve"/>
      <point x="343" y="922"/>
      <point x="310" y="895"/>
      <point x="310" y="849" type="curve"/>
      <point x="477" y="849"/>
      <point x="310" y="849"/>
      <point x="477" y="849" type="curve"/>
      <point x="477" y="798"/>
      <point x="441" y="777"/>
      <point x="392" y="777" type="curve"/>
      <point x="342" y="777"/>
      <point x="310" y="801"/>
      <point x="310" y="849" type="curve"/>
      <point x="477" y="849"/>
      <point x="310" y="849"/>
    </contour>
  </outline>
</glyph>
<glyph name="Igrave" format="1">
  <advance width="301"/>
  <unicode hex="00CC"/>
  <outline>
    <contour>
      <point x="229" y="0" type="curve"/>
      <point x="229" y="241"/>
      <point x="229" y="481"/>
      <point x="229" y="722" type="curve"/>
      <point x="79" y="722"/>
      <point x="229" y="722"/>
      <point x="79" y="722" type="curve"/>
      <point x="79" y="481"/>
      <point x="79" y="241"/>
      <point x="79" y="0" type="curve"/>
      <point x="229" y="0"/>
      <point x="79" y="0"/>
    </contour>
    <contour>
      <point x="235" y="781" type="line"/>
      <point x="117" y="947" type="line"/>
      <point x="-73" y="947" type="line"/>
      <point x="88" y="781" type="line"/>
    </contour>
  </outline>
</glyph>
<glyph name="Iacute" format="1">
  <advance width="303"/>
  <unicode hex="00CD"/>
  <outline>
    <contour>
      <point x="223" y="0" type="curve"/>
      <point x="223" y="241"/>
      <point x="223" y="481"/>
      <point x="223" y="722" type="curve"/>
      <point x="73" y="722"/>
      <point x="223" y="722"/>
      <point x="73" y="722" type="curve"/>
      <point x="73" y="481"/>
      <point x="73" y="241"/>
      <point x="73" y="0" type="curve"/>
      <point x="223" y="0"/>
      <point x="73" y="0"/>
    </contour>
    <contour>
      <point x="212" y="780" type="line"/>
      <point x="373" y="946" type="line"/>
      <point x="183" y="946" type="line"/>
      <point x="67" y="780" type="line"/>
    </contour>
  </outline>
</glyph>
<glyph name="Icircumflex" format="1">
  <advance width="338"/>
  <unicode hex="00CE"/>
  <outline>
    <contour>
      <point x="247" y="0" type="curve"/>
      <point x="247" y="241"/>
      <point x="247" y="481"/>
      <point x="247" y="722" type="curve"/>
      <point x="97" y="722"/>
      <point x="247" y="722"/>
      <point x="97" y="722" type="curve"/>
      <point x="97" y="481"/>
      <point x="97" y="241"/>
      <point x="97" y="0" type="curve"/>
      <point x="247" y="0"/>
      <point x="97" y="0"/>
    </contour>
    <contour>
      <point x="81" y="781" type="line"/>
      <point x="241" y="947" type="line"/>
      <point x="52" y="947" type="line"/>
      <point x="-65" y="781" type="line"/>
    </contour>
    <contour>
      <point x="411" y="781" type="line"/>
      <point x="292" y="947" type="line"/>
      <point x="103" y="947" type="line"/>
      <point x="263" y="781" type="line"/>
    </contour>
  </outline>
</glyph>
<glyph name="Idieresis" format="1">
  <advance width="317"/>
  <unicode hex="00CF"/>
  <outline>
    <contour>
      <point x="237" y="0" type="curve"/>
      <point x="237" y="241"/>
      <point x="237" y="481"/>
      <point x="237" y="722" type="curve"/>
      <point x="87" y="722"/>
      <point x="237" y="722"/>
      <point x="87" y="722" type="curve"/>
      <point x="87" y="481"/>
      <point x="87" y="241"/>
      <point x="87" y="0" type="curve"/>
      <point x="237" y="0"/>
      <point x="87" y="0"/>
    </contour>
    <contour>
      <point x="137" y="849" type="curve"/>
      <point x="137" y="898"/>
      <point x="101" y="922"/>
      <point x="52" y="922" type="curve"/>
      <point x="3" y="922"/>
      <point x="-30" y="895"/>
      <point x="-30" y="849" type="curve"/>
      <point x="136" y="849"/>
      <point x="-30" y="849"/>
      <point x="137" y="849" type="curve"/>
      <point x="137" y="798"/>
      <point x="101" y="777"/>
      <point x="51" y="777" type="curve"/>
      <point x="2" y="777"/>
      <point x="-30" y="801"/>
      <point x="-30" y="849" type="curve"/>
      <point x="136" y="849"/>
      <point x="-30" y="849"/>
    </contour>
    <contour>
      <point x="357" y="849" type="curve"/>
      <point x="357" y="898"/>
      <point x="320" y="922"/>
      <point x="272" y="922" type="curve"/>
      <point x="223" y="922"/>
      <point x="189" y="895"/>
      <point x="189" y="849" type="curve"/>
      <point x="356" y="849"/>
      <point x="190" y="849"/>
      <point x="357" y="849" type="curve"/>
      <point x="357" y="798"/>
      <point x="321" y="777"/>
      <point x="271" y="777" type="curve"/>
      <point x="222" y="777"/>
      <point x="189" y="801"/>
      <point x="189" y="849" type="curve"/>
      <point x="356" y="849"/>
      <point x="190" y="849"/>
    </contour>
  </outline>
</glyph>
<glyph name="Ntilde" format="1">
  <advance width="855"/>
  <unicode hex="00D1"/>
  <outline>
    <contour>
      <point x="788" y="0" type="curve"/>
      <point x="603" y="240"/>
      <point x="421" y="482"/>
      <point x="236" y="722" type="curve"/>
      <point x="65" y="722"/>
      <point x="236" y="722"/>
      <point x="65" y="722" type="curve"/>
      <point x="249" y="482"/>
      <point x="432" y="240"/>
      <point x="617" y="0" type="curve"/>
      <point x="788" y="0"/>
      <point x="617" y="0"/>
    </contour>
    <contour>
      <point x="641" y="722" type="curve"/>
      <point x="641" y="481"/>
      <point x="641" y="241"/>
      <point x="641" y="0" type="curve"/>
      <point x="790" y="0"/>
      <point x="641" y="0"/>
      <point x="790" y="0" type="curve"/>
      <point x="790" y="241"/>
      <point x="790" y="481"/>
      <point x="790" y="722" type="curve"/>
      <point x="641" y="722"/>
      <point x="790" y="722"/>
    </contour>
    <contour>
      <point x="215" y="0" type="curve"/>
      <point x="215" y="241"/>
      <point x="215" y="481"/>
      <point x="215" y="722" type="curve"/>
      <point x="65" y="722"/>
      <point x="215" y="722"/>
      <point x="65" y="722" type="curve"/>
      <point x="65" y="481"/>
      <point x="65" y="241"/>
      <point x="65" y="0" type="curve"/>
      <point x="215" y="0"/>
      <point x="65" y="0"/>
    </contour>
    <contour>
      <point x="564" y="965" type="curve"/>
      <point x="550" y="929"/>
      <point x="533" y="906"/>
      <point x="510" y="906" type="curve"/>
      <point x="479" y="906"/>
      <point x="462" y="915"/>
      <point x="438" y="933" type="curve"/>
      <point x="401" y="961"/>
      <point x="376" y="973"/>
      <point x="332" y="973" type="curve"/>
      <point x="252" y="973"/>
      <point x="205" y="915"/>
      <point x="175" y="836" type="curve"/>
      <point x="286" y="779"/>
      <point x="176" y="836"/>
      <point x="286" y="779" type="curve"/>
      <point x="305" y="822"/>
      <point x="324" y="840"/>
      <point x="349" y="840" type="curve"/>
      <point x="377" y="840"/>
      <point x="392" y="830"/>
      <point x="413" y="814" type="curve"/>
      <point x="454" y="783"/>
      <point x="479" y="772"/>
      <point x="527" y="772" type="curve"/>
      <point x="610" y="772"/>
      <point x="652" y="829"/>
      <point x="682" y="909" type="curve"/>
      <point x="565" y="964"/>
      <point x="681" y="908"/>
    </contour>
  </outline>
</glyph>
<glyph name="Ocircumflex" format="1">
  <advance width="814"/>
  <unicode hex="00D4"/>
  <outline>
    <contour>
      <point x="186" y="360" type="curve" name="FullCurve"/>
      <point x="186" y="508"/>
      <point x="256" y="609"/>
      <point x="402" y="609" type="curve" name="FullCurve"/>
      <point x="549" y="609"/>
      <point x="628" y="513"/>
      <point x="628" y="363" type="curve" name="FullCurve"/>
      <point x="628" y="214"/>
      <point x="557" y="114"/>
      <point x="411" y="114" type="curve" name="FullCurve"/>
      <point x="262" y="114"/>
      <point x="186" y="210"/>
      <point x="186" y="360" type="curve" name="FullCurve"/>
      <point x="36" y="360"/>
      <point x="186" y="360"/>
      <point x="36" y="360" type="curve" name="FullCurve"/>
      <point x="36" y="133"/>
      <point x="177" y="-5"/>
      <point x="404" y="-5" type="curve" name="FullCurve"/>
      <point x="635" y="-5"/>
      <point x="778" y="134"/>
      <point x="778" y="363" type="curve" name="FullCurve"/>
      <point x="778" y="588"/>
      <point x="639" y="727"/>
      <point x="412" y="727" type="curve" name="FullCurve"/>
      <point x="180" y="727"/>
      <point x="36" y="588"/>
      <point x="36" y="360" type="curve" name="FullCurve"/>
      <point x="186" y="360"/>
      <point x="36" y="360"/>
    </contour>
    <contour>
      <point x="319" y="781" type="line"/>
      <point x="480" y="947" type="line"/>
      <point x="290" y="947" type="line"/>
      <point x="174" y="781" type="line"/>
    </contour>
    <contour>
      <point x="649" y="781" type="line"/>
      <point x="531" y="947" type="line"/>
      <point x="341" y="947" type="line"/>
      <point x="501" y="781" type="line"/>
    </contour>
  </outline>
</glyph>
<glyph name="Otilde" format="1">
  <advance width="814"/>
  <unicode hex="00D5"/>
  <outline>
    <contour>
      <point x="186" y="360" type="curve" name="FullCurve"/>
      <point x="186" y="508"/>
      <point x="256" y="609"/>
      <point x="402" y="609" type="curve" name="FullCurve"/>
      <point x="549" y="609"/>
      <point x="628" y="513"/>
      <point x="628" y="363" type="curve" name="FullCurve"/>
      <point x="628" y="214"/>
      <point x="557" y="114"/>
      <point x="411" y="114" type="curve" name="FullCurve"/>
      <point x="262" y="114"/>
      <point x="186" y="210"/>
      <point x="186" y="360" type="curve" name="FullCurve"/>
      <point x="36" y="360"/>
      <point x="186" y="360"/>
      <point x="36" y="360" type="curve" name="FullCurve"/>
      <point x="36" y="133"/>
      <point x="177" y="-5"/>
      <point x="404" y="-5" type="curve" name="FullCurve"/>
      <point x="635" y="-5"/>
      <point x="778" y="134"/>
      <point x="778" y="363" type="curve" name="FullCurve"/>
      <point x="778" y="588"/>
      <point x="639" y="727"/>
      <point x="412" y="727" type="curve" name="FullCurve"/>
      <point x="180" y="727"/>
      <point x="36" y="588"/>
      <point x="36" y="360" type="curve" name="FullCurve"/>
      <point x="186" y="360"/>
      <point x="36" y="360"/>
    </contour>
    <contour>
      <point x="549" y="965" type="curve"/>
      <point x="535" y="929"/>
      <point x="518" y="906"/>
      <point x="495" y="906" type="curve"/>
      <point x="464" y="906"/>
      <point x="447" y="915"/>
      <point x="423" y="933" type="curve"/>
      <point x="386" y="961"/>
      <point x="361" y="973"/>
      <point x="317" y="973" type="curve"/>
      <point x="237" y="973"/>
      <point x="190" y="915"/>
      <point x="160" y="836" type="curve"/>
      <point x="271" y="779"/>
      <point x="161" y="836"/>
      <point x="271" y="779" type="curve"/>
      <point x="290" y="822"/>
      <point x="309" y="840"/>
      <point x="334" y="840" type="curve"/>
      <point x="362" y="840"/>
      <point x="377" y="830"/>
      <point x="398" y="814" type="curve"/>
      <point x="439" y="783"/>
      <point x="464" y="772"/>
      <point x="512" y="772" type="curve"/>
      <point x="595" y="772"/>
      <point x="637" y="829"/>
      <point x="667" y="909" type="curve"/>
      <point x="550" y="964"/>
      <point x="666" y="908"/>
    </contour>
  </outline>
</glyph>
<glyph name="Odieresis" format="1">
  <advance width="814"/>
  <unicode hex="00D6"/>
  <outline>
    <contour>
      <point x="186" y="360" type="curve" name="FullCurve"/>
      <point x="186" y="508"/>
      <point x="256" y="609"/>
      <point x="402" y="609" type="curve" name="FullCurve"/>
      <point x="549" y="609"/>
      <point x="628" y="513"/>
      <point x="628" y="363" type="curve" name="FullCurve"/>
      <point x="628" y="214"/>
      <point x="557" y="114"/>
      <point x="411" y="114" type="curve" name="FullCurve"/>
      <point x="262" y="114"/>
      <point x="186" y="210"/>
      <point x="186" y="360" type="curve" name="FullCurve"/>
      <point x="36" y="360"/>
      <point x="186" y="360"/>
      <point x="36" y="360" type="curve" name="FullCurve"/>
      <point x="36" y="133"/>
      <point x="177" y="-5"/>
      <point x="404" y="-5" type="curve" name="FullCurve"/>
      <point x="635" y="-5"/>
      <point x="778" y="134"/>
      <point x="778" y="363" type="curve" name="FullCurve"/>
      <point x="778" y="588"/>
      <point x="639" y="727"/>
      <point x="412" y="727" type="curve" name="FullCurve"/>
      <point x="180" y="727"/>
      <point x="36" y="588"/>
      <point x="36" y="360" type="curve" name="FullCurve"/>
      <point x="186" y="360"/>
      <point x="36" y="360"/>
    </contour>
    <contour>
      <point x="385" y="849" type="curve"/>
      <point x="385" y="898"/>
      <point x="349" y="922"/>
      <point x="300" y="922" type="curve"/>
      <point x="251" y="922"/>
      <point x="218" y="895"/>
      <point x="218" y="849" type="curve"/>
      <point x="384" y="849"/>
      <point x="218" y="849"/>
      <point x="385" y="849" type="curve"/>
      <point x="385" y="798"/>
      <point x="349" y="777"/>
      <point x="299" y="777" type="curve"/>
      <point x="250" y="777"/>
      <point x="218" y="801"/>
      <point x="218" y="849" type="curve"/>
      <point x="384" y="849"/>
      <point x="218" y="849"/>
    </contour>
    <contour>
      <point x="605" y="849" type="curve"/>
      <point x="605" y="898"/>
      <point x="568" y="922"/>
      <point x="520" y="922" type="curve"/>
      <point x="471" y="922"/>
      <point x="437" y="895"/>
      <point x="437" y="849" type="curve"/>
      <point x="604" y="849"/>
      <point x="438" y="849"/>
      <point x="605" y="849" type="curve"/>
      <point x="605" y="798"/>
      <point x="569" y="777"/>
      <point x="519" y="777" type="curve"/>
      <point x="470" y="777"/>
      <point x="437" y="801"/>
      <point x="437" y="849" type="curve"/>
      <point x="604" y="849"/>
      <point x="438" y="849"/>
    </contour>
  </outline>
</glyph>
<glyph name="multiply" format="1">
  <advance width="606"/>
  <unicode hex="00D7"/>
  <outline>
    <contour>
      <point x="123" y="42" type="line"/>
      <point x="569" y="497" type="line"/>
      <point x="484" y="582" type="line"/>
      <point x="38" y="127" type="line"/>
    </contour>
    <contour>
      <point x="569" y="125" type="line"/>
      <point x="123" y="581" type="line"/>
      <point x="38" y="496" type="line"/>
      <point x="484" y="41" type="line"/>
    </contour>
  </outline>
</glyph>
<glyph name="Oslash" format="1">
  <advance width="814"/>
  <unicode hex="00D8"/>
  <outline>
    <contour>
      <point x="212" y="-64" type="line"/>
      <point x="692" y="732" type="line"/>
      <point x="595" y="781" type="line"/>
      <point x="124" y="-7" type="line"/>
    </contour>
    <contour>
      <point x="186" y="360" type="curve" name="FullCurve"/>
      <point x="186" y="508"/>
      <point x="256" y="609"/>
      <point x="402" y="609" type="curve" name="FullCurve"/>
      <point x="549" y="609"/>
      <point x="628" y="513"/>
      <point x="628" y="363" type="curve" name="FullCurve"/>
      <point x="628" y="214"/>
      <point x="557" y="114"/>
      <point x="411" y="114" type="curve" name="FullCurve"/>
      <point x="262" y="114"/>
      <point x="186" y="210"/>
      <point x="186" y="360" type="curve" name="FullCurve"/>
      <point x="36" y="360"/>
      <point x="186" y="360"/>
      <point x="36" y="360" type="curve" name="FullCurve"/>
      <point x="36" y="133"/>
      <point x="177" y="-5"/>
      <point x="404" y="-5" type="curve" name="FullCurve"/>
      <point x="635" y="-5"/>
      <point x="778" y="134"/>
      <point x="778" y="363" type="curve" name="FullCurve"/>
      <point x="778" y="588"/>
      <point x="639" y="727"/>
      <point x="412" y="727" type="curve" name="FullCurve"/>
      <point x="180" y="727"/>
      <point x="36" y="588"/>
      <point x="36" y="360" type="curve" name="FullCurve"/>
      <point x="186" y="360"/>
      <point x="36" y="360"/>
    </contour>
  </outline>
</glyph>
<glyph name="Ugrave" format="1">
  <advance width="777"/>
  <unicode hex="00D9"/>
  <outline>
    <contour>
      <point x="59" y="722" type="curve"/>
      <point x="59" y="588"/>
      <point x="59" y="412"/>
      <point x="59" y="278" type="curve"/>
      <point x="59" y="79"/>
      <point x="176" y="-5"/>
      <point x="385" y="-5" type="curve"/>
      <point x="599" y="-5"/>
      <point x="718" y="85"/>
      <point x="718" y="290" type="curve"/>
      <point x="718" y="421"/>
      <point x="718" y="592"/>
      <point x="718" y="722" type="curve"/>
      <point x="582" y="722"/>
      <point x="718" y="722"/>
      <point x="582" y="722" type="curve"/>
      <point x="582" y="585"/>
      <point x="582" y="414"/>
      <point x="582" y="277" type="curve"/>
      <point x="582" y="168"/>
      <point x="512" y="119"/>
      <point x="397" y="119" type="curve"/>
      <point x="265" y="119"/>
      <point x="195" y="173"/>
      <point x="195" y="299" type="curve"/>
      <point x="195" y="426"/>
      <point x="195" y="596"/>
      <point x="195" y="722" type="curve"/>
      <point x="59" y="722"/>
      <point x="195" y="722"/>
    </contour>
    <contour>
      <point x="471" y="781" type="line"/>
      <point x="353" y="947" type="line"/>
      <point x="163" y="947" type="line"/>
      <point x="324" y="781" type="line"/>
    </contour>
  </outline>
</glyph>
